<?xml version="1.0" encoding="UTF-8"?>
<svg id="Layer_1" data-name="Layer 1" xmlns="http://www.w3.org/2000/svg" xmlns:xlink="http://www.w3.org/1999/xlink" viewBox="0 0 2396.56 1080" width="100%" opacity="0.1">
  <defs>
    <linearGradient id="linear-gradient" x1="0" y1="567.53" x2="2394.15" y2="567.53" gradientUnits="userSpaceOnUse">
      <stop offset="0" stop-color="#3476b6"/>
      <stop offset="1" stop-color="#bfe2f2"/>
    </linearGradient>
    <linearGradient id="linear-gradient-2" x1="7.8" y1="558.03" x2="2390.21" y2="558.03" xlink:href="#linear-gradient"/>
    <linearGradient id="linear-gradient-3" x1="15.59" y1="547.66" x2="2386.26" y2="547.66" xlink:href="#linear-gradient"/>
    <linearGradient id="linear-gradient-4" x1="23.37" y1="536.71" x2="2382.3" y2="536.71" xlink:href="#linear-gradient"/>
    <linearGradient id="linear-gradient-5" x1="31.14" y1="525.19" x2="2378.33" y2="525.19" xlink:href="#linear-gradient"/>
    <linearGradient id="linear-gradient-6" x1="39.03" y1="531.86" x2="2374.46" y2="531.86" xlink:href="#linear-gradient"/>
    <linearGradient id="linear-gradient-7" x1="46.75" y1="539.95" x2="2370.43" y2="539.95" xlink:href="#linear-gradient"/>
    <linearGradient id="linear-gradient-8" x1="54.64" y1="547.28" x2="2366.53" y2="547.28" xlink:href="#linear-gradient"/>
    <linearGradient id="linear-gradient-9" x1="62.52" y1="553.75" x2="2362.61" y2="553.75" xlink:href="#linear-gradient"/>
    <linearGradient id="linear-gradient-10" x1="70.36" y1="558.84" x2="2358.63" y2="558.84" xlink:href="#linear-gradient"/>
    <linearGradient id="linear-gradient-11" x1="78.09" y1="561.27" x2="2354.53" y2="561.27" xlink:href="#linear-gradient"/>
    <linearGradient id="linear-gradient-12" x1="85.94" y1="558.99" x2="2350.59" y2="558.99" xlink:href="#linear-gradient"/>
    <linearGradient id="linear-gradient-13" x1="93.73" y1="559.15" x2="2346.74" y2="559.15" xlink:href="#linear-gradient"/>
    <linearGradient id="linear-gradient-14" x1="101.6" y1="557.95" x2="2342.96" y2="557.95" xlink:href="#linear-gradient"/>
    <linearGradient id="linear-gradient-15" x1="109.32" y1="554.89" x2="2339" y2="554.89" xlink:href="#linear-gradient"/>
    <linearGradient id="linear-gradient-16" x1="117.19" y1="548.84" x2="2335.19" y2="548.84" xlink:href="#linear-gradient"/>
    <linearGradient id="linear-gradient-17" x1="125.06" y1="542.55" x2="2331.36" y2="542.55" xlink:href="#linear-gradient"/>
    <linearGradient id="linear-gradient-18" x1="118.37" y1="558.39" x2="2327.3" y2="558.39" xlink:href="#linear-gradient"/>
    <linearGradient id="linear-gradient-19" x1="111.67" y1="574.38" x2="2323.24" y2="574.38" xlink:href="#linear-gradient"/>
    <linearGradient id="linear-gradient-20" x1="104.97" y1="589.64" x2="2319.17" y2="589.64" xlink:href="#linear-gradient"/>
    <linearGradient id="linear-gradient-21" x1="98.28" y1="604.41" x2="2315.09" y2="604.41" xlink:href="#linear-gradient"/>
    <linearGradient id="linear-gradient-22" x1="91.73" y1="618.66" x2="2311.15" y2="618.66" xlink:href="#linear-gradient"/>
    <linearGradient id="linear-gradient-23" x1="85.02" y1="632.13" x2="2307.05" y2="632.13" xlink:href="#linear-gradient"/>
    <linearGradient id="linear-gradient-24" x1="78.4" y1="645.81" x2="2303.02" y2="645.81" xlink:href="#linear-gradient"/>
    <linearGradient id="linear-gradient-25" x1="71.73" y1="663.78" x2="2298.96" y2="663.78" xlink:href="#linear-gradient"/>
    <linearGradient id="linear-gradient-26" x1="65.04" y1="684.98" x2="2295.01" y2="684.98" xlink:href="#linear-gradient"/>
    <linearGradient id="linear-gradient-27" x1="58.47" y1="705.27" x2="2291.18" y2="705.27" xlink:href="#linear-gradient"/>
    <linearGradient id="linear-gradient-28" x1="51.76" y1="724.99" x2="2287.21" y2="724.99" xlink:href="#linear-gradient"/>
    <linearGradient id="linear-gradient-29" x1="45.02" y1="744.22" x2="2283.2" y2="744.22" xlink:href="#linear-gradient"/>
    <linearGradient id="linear-gradient-30" x1="38.3" y1="762.97" x2="2279.17" y2="762.97" xlink:href="#linear-gradient"/>
    <linearGradient id="linear-gradient-31" x1="31.73" y1="781.29" x2="2277.45" y2="781.29" xlink:href="#linear-gradient"/>
    <linearGradient id="linear-gradient-32" x1="25" y1="795.01" x2="2273.44" y2="795.01" xlink:href="#linear-gradient"/>
    <linearGradient id="linear-gradient-33" x1="18.38" y1="806.44" x2="2269.43" y2="806.44" xlink:href="#linear-gradient"/>
    <linearGradient id="linear-gradient-34" x1="21.18" y1="773.19" x2="2264.79" y2="773.19" xlink:href="#linear-gradient"/>
    <linearGradient id="linear-gradient-35" x1="24.1" y1="739.48" x2="2260.14" y2="739.48" xlink:href="#linear-gradient"/>
    <linearGradient id="linear-gradient-36" x1="26.86" y1="705.32" x2="2253.23" y2="705.32" xlink:href="#linear-gradient"/>
    <linearGradient id="linear-gradient-37" x1="29.61" y1="670.44" x2="2248.44" y2="670.44" xlink:href="#linear-gradient"/>
    <linearGradient id="linear-gradient-38" x1="32.52" y1="634.85" x2="2243.81" y2="634.85" xlink:href="#linear-gradient"/>
    <linearGradient id="linear-gradient-39" x1="35.22" y1="598.41" x2="2238.94" y2="598.41" xlink:href="#linear-gradient"/>
    <linearGradient id="linear-gradient-40" x1="38.09" y1="559.45" x2="2234.23" y2="559.45" xlink:href="#linear-gradient"/>
    <linearGradient id="linear-gradient-41" x1="40.95" y1="522.83" x2="2229.47" y2="522.83" xlink:href="#linear-gradient"/>
    <linearGradient id="linear-gradient-42" x1="43.79" y1="488.8" x2="2224.67" y2="488.8" xlink:href="#linear-gradient"/>
    <linearGradient id="linear-gradient-43" x1="46.58" y1="461.32" x2="2220.07" y2="461.32" xlink:href="#linear-gradient"/>
    <linearGradient id="linear-gradient-44" x1="49.33" y1="433.84" x2="2215.4" y2="433.84" xlink:href="#linear-gradient"/>
    <linearGradient id="linear-gradient-45" x1="52.23" y1="405.75" x2="2210.86" y2="405.75" xlink:href="#linear-gradient"/>
    <linearGradient id="linear-gradient-46" x1="54.93" y1="377.07" x2="2206.1" y2="377.07" xlink:href="#linear-gradient"/>
    <linearGradient id="linear-gradient-47" x1="57.81" y1="347.83" x2="2201.51" y2="347.83" xlink:href="#linear-gradient"/>
    <linearGradient id="linear-gradient-48" x1="60.68" y1="318.06" x2="2196.9" y2="318.06" xlink:href="#linear-gradient"/>
    <linearGradient id="linear-gradient-49" x1="63.35" y1="286.78" x2="2192.08" y2="286.78" xlink:href="#linear-gradient"/>
  </defs>
  <!-- <rect x="178.59" width="1920" height="1080" style="fill: #fff;"/> -->
  <g>
    <path d="m2.91,754.89c14.24-104.14,50.41-204.82,105.87-294.14,53.41-86.01,125.51-168.42,217.56-213.92,46.23-22.85,97.39-34.54,149-29.76,56.59,5.24,109.94,28.25,158.7,56.4,97.02,56.01,184.47,129.46,267.31,204.35,82.55,74.63,160.86,153.71,241.54,230.32,76.35,72.49,157.15,143.12,252.33,189.88,41.7,20.49,90.75,43.12,136.75,23.04,38.17-16.66,63.54-53.89,84.21-88.39,29-48.39,56.57-97.56,86.43-145.46,30.93-49.62,63.04-98.51,96.28-146.61,32.75-47.39,66.21-94.5,101.82-139.79,33.25-42.29,69.83-82.9,114.39-113.55,88.61-60.94,198.75-73.96,303.58-77.04,25.47-.75,50.94-.92,76.42-1.01,1.93,0,1.93-3.01,0-3-103.07.36-210.55,1.2-307.84,39.6-46.7,18.43-88.29,45.91-124.49,80.62-38.06,36.49-69.96,78.81-101.15,121.13-70.27,95.35-135.97,194.07-196.78,295.71-26.7,44.63-49.6,93.74-83,133.91-15.34,18.45-34.02,35.2-56.89,43.47-28.17,10.19-57.4,4.28-84.6-6.03-103.34-39.17-191.18-111.67-271.26-185.98-82.23-76.3-160.71-156.55-243.25-232.53-81.84-75.33-167.48-147.95-261.52-207.75-86.92-55.28-187.3-94.89-290.37-63.7-93.49,28.29-168.97,99.42-227.01,175.45-63.04,82.59-108.62,178.47-132.98,279.47-5.93,24.58-10.53,49.45-13.95,74.5-.26,1.89,2.63,2.7,2.89.8h0Z" style="fill: url(#linear-gradient);"/>
    <path d="m2391.18,232.71c-96.31-2.43-195.85-4.51-288.88,24.4-44.95,13.97-86.46,35.86-123.13,65.41-40.66,32.77-74.82,72.63-107.93,112.77-69.22,83.92-134.48,171.12-195.36,261.27-29.76,44.07-55.68,92.44-90.06,133.12-16.2,19.17-35.54,36.89-59.32,45.95-27.34,10.41-55.83,6.25-82.87-2.93-102.68-34.86-192.5-102.57-274.61-171.55-83.7-70.3-164.13-144.39-248.6-213.8-81.3-66.81-166.3-131.13-258.86-181.67-85.67-46.79-181.02-74.32-276.92-42.84-92.64,30.41-169.04,100.14-229.41,174.58-58.92,72.65-104.51,156.41-131.1,246.21-6.66,22.5-12.06,45.33-16.33,68.4-.35,1.89,2.54,2.7,2.89.8,17.43-94.25,55.41-183.76,109.25-262.95,55.68-81.9,128.75-159.21,218.01-204.35,46.17-23.35,97.18-36.52,149.11-33.63,51.6,2.87,101.23,20.25,147.24,42.98,95.2,47.03,182.12,112.17,264.42,178.67,84.78,68.5,165.33,141.93,248.13,212.76,77.56,66.34,159.2,130.2,252.97,172.09,40.94,18.29,87.08,37.25,131.26,18.61,41.09-17.34,68.29-57.39,91.53-93.54,59.69-92.86,122.43-183.45,190.27-270.58,32.68-41.98,65.86-83.87,101.43-123.46,34.55-38.46,72.82-74.31,118.27-99.57,86.86-48.29,189.43-55.44,286.81-55.28,23.92.04,47.84.57,71.76,1.17,1.93.05,1.93-2.95,0-3h0Z" style="fill: url(#linear-gradient-2);"/>
    <path d="m2387.24,259.22c-92.96-5.13-188.75-10.05-279.83,13.22-44.58,11.39-86.34,30.35-123.75,57.23-38.96,28-72.62,62.42-105.21,97.41-70.26,75.45-136.86,154.31-199.24,236.4-31.44,41.37-59.3,86.9-94.54,125.16-15.98,17.35-34.53,33.23-56.69,42-25.77,10.19-52.89,8.07-79.05.48-97.57-28.31-186.35-87.91-267.15-147.75-83.95-62.17-164.74-128.48-249.06-190.17-82.32-60.22-167.93-117.66-260.08-161.88-84.81-40.7-177.15-62.78-269.13-32.93s-165.25,92.8-227.77,161.28c-60.75,66.54-110.63,143.63-141.5,228.52-7.35,20.23-13.51,40.84-18.61,61.75-.46,1.88,2.43,2.68,2.89.8,21.83-89.47,65-172.3,121.72-244.57,58.56-74.62,131.67-144.3,217.64-186.08,45.37-22.05,94.99-34.94,145.65-33.2,51.02,1.75,100.46,16.98,146.87,37.47,91.27,40.3,175.99,96.14,256.86,154.09,83.58,59.89,163.51,124.57,245.36,186.75,78.46,59.61,160.45,116.18,252.26,153.31,40.67,16.45,84.92,32.03,127.63,13.49,39-16.93,66.12-53.1,90.24-86.61,60.99-84.75,125.11-166.93,193.95-245.47,33.35-38.06,67.21-75.99,103.24-111.54,35.58-35.11,74.72-67.19,120.12-88.76,85.6-40.66,183.79-43.66,276.8-40.66,23.48.76,46.93,1.98,70.39,3.27,1.93.11,1.92-2.89,0-3h0Z" style="fill: url(#linear-gradient-3);"/>
    <path d="m2383.31,285.72c-90.29-7.83-183.07-15.5-272.65,2.7-42.27,8.59-82.48,23.83-119.28,46.41-38.6,23.69-72.66,53.83-105.59,84.71-73.35,68.79-143.13,141.37-208.54,217.75-31.22,36.47-59.42,76.57-93.61,110.35-17.2,17-36.79,32.17-59.86,40.18-23.4,8.13-47.99,6.7-71.71.72-47.29-11.93-93.02-32.83-136.36-54.83-43.83-22.25-85.96-47.61-127.2-74.31-83.4-54.01-164.26-111.82-248.19-165.04-80.75-51.21-164.15-99.3-252.59-136.06-85.02-35.34-175.5-53.27-265.24-24.43-87.54,28.12-163.17,87.66-228.13,151.12-61.81,60.39-115.78,130.37-150.83,209.75-7.66,17.33-14.33,35.06-20.07,53.11-.59,1.84,2.31,2.63,2.89.8,26.44-83.05,74.11-157.42,132.12-221.95,61.67-68.6,135.4-132.73,219.51-172.04,45.1-21.08,93.79-33.72,143.78-32.98,47.59.71,94.15,12.49,138.55,29,89.78,33.38,174.36,81.41,255.5,131.82s164.07,108.67,246.11,163.04c77.79,51.55,158.51,99.97,246.49,132.12,39.87,14.57,81.95,27.46,123.19,10.4,38.71-16.02,66.82-50.17,92.46-81.9,62.22-76.97,128.02-150.8,198.04-220.77,66.41-66.37,136.13-140.3,225.22-175.36,84.96-33.43,179.4-32.42,269.09-26.56,22.33,1.46,44.63,3.32,66.92,5.25,1.92.17,1.91-2.83,0-3h0Z" style="fill: url(#linear-gradient-4);"/>
    <path d="m2379.37,312.23c-88-10.53-178.19-20.96-266.47-7.58-42.48,6.44-83.24,19.47-121.1,39.85-38.31,20.62-72.8,47.33-106.5,74.64-73.19,59.32-143.13,122.57-208.88,190.06-32.3,33.16-61.91,70.01-96.93,100.36-17.01,14.74-36.02,27.75-57.65,34.6-24.26,7.68-49.17,5.93-73.6-.02-90.84-22.14-177.11-67.3-258.23-112.61-83.45-46.61-165.27-96.06-249.75-140.85-79.97-42.39-162.31-81.5-248.36-110-84.08-27.84-171.21-38.29-256.54-9.36-83.13,28.18-156.16,82.27-221.84,139.24-62.05,53.83-119.49,115.39-159.43,187.68-8.51,15.41-16.1,31.27-22.84,47.52-.74,1.78,2.16,2.56,2.89.8,31.38-75.68,83.17-140.83,141.67-197.45,64.38-62.32,137.83-120.97,219.64-158.6,42.83-19.7,88.63-32.52,135.91-34.17,45.63-1.59,90.9,6.57,134.55,19.35,87.07,25.49,170.42,64.35,250.78,106.01s165.44,91.97,247.69,138.8c77.76,44.28,157.67,86,242.76,114.45,39.8,13.31,81.51,25.34,122.44,9.65,36.61-14.04,64.9-43.51,90.91-71.74,63.39-68.82,129.73-134.53,200.42-195.87,69.1-59.96,142-126.28,230.62-155.03,83.86-27.2,174.97-22.68,261.5-14.14,22.14,2.18,44.24,4.75,66.33,7.4,1.91.23,1.9-2.77,0-3h0Z" style="fill: url(#linear-gradient-5);"/>
    <path d="m2375.84,338.79c-85.38-13.17-172.7-26.38-259.23-18.07-39.6,3.8-78.18,12.9-114.8,28.56-39.15,16.75-75.07,39.7-110.19,63.57-74.44,50.59-145.87,105.42-213.17,165.2-32.74,29.08-63.18,61.32-97.48,88.57-17.46,13.87-36.61,26.16-58.01,32.94-23.46,7.43-47.52,6.76-71.42,1.84-44.33-9.14-87.82-25.23-129.91-41.62s-84.35-34.96-125.72-54.29c-81.14-37.92-161.45-77.53-243.84-112.73-80.08-34.22-161.97-64.91-246.43-86.52-82.69-21.15-167.15-27.68-249.26-.21s-154.58,77.99-222.56,130.02c-62.3,47.68-122.8,100.61-168.31,165.06-9.57,13.56-18.33,27.64-26.27,42.22-.92,1.7,1.67,3.21,2.59,1.51,36.13-66.39,90.22-121.12,147.61-169.44,67.09-56.48,140.45-110.74,220.39-147.6,42.15-19.44,86.89-33.04,133.3-36.68,43.72-3.43,87.53,1.43,130.3,10.58,83.97,17.97,165.69,47.54,244.97,80.14,83.33,34.27,164.52,73.32,245.86,112,77.86,37.02,156.88,72.6,239.49,97.79,38.29,11.68,78.5,23.3,118.2,11.37,36.49-10.97,66.19-37.06,93.39-62.65,66.55-62.61,135.23-122.16,208.92-176.3,68.98-50.68,141.86-105.73,225.67-128.51,83.1-22.59,171.93-15.02,256.21-3.91,23.01,3.03,45.97,6.49,68.91,10.03,1.89.29,2.7-2.6.8-2.89h0Z" style="fill: url(#linear-gradient-6);"/>
    <path d="m2371.9,365.3c-84.13-16.03-170.08-32.16-256.11-28.19-38.68,1.78-76.66,8.5-113.29,21.16-37.89,13.1-73.49,31.6-108.49,50.96-75.97,42.02-149.08,88.81-218.15,141.45-34.33,26.16-66.5,55.84-102.45,79.75-16.93,11.26-35.07,20.92-54.8,26.2-23.24,6.22-46.82,5.14-70.24.57-83.64-16.31-165.32-48.1-244.82-78.06-81.11-30.56-162.04-61.48-244.68-87.75-81.44-25.89-164.32-47.98-248.69-61.97-81.19-13.46-162.43-13.73-240.81,13.99-80.19,28.35-152.27,76.32-222.26,123.71-61.18,41.42-122.81,85.35-172.63,140.4-9.73,10.76-18.89,22-27.42,33.73-1.14,1.56,1.46,3.06,2.59,1.51,42.18-57.93,99.97-103.17,157.82-144.48,68.6-48.98,139.96-97.74,216.68-133.15,40.05-18.48,82.13-32.49,125.94-38.49,41.92-5.74,84.4-4.42,126.3.83,83.36,10.45,165.71,31.56,246.02,55.77s162.16,53.92,242.03,84.28c78.6,29.87,157.51,59.77,238.75,81.78,37.21,10.08,75.9,20.45,114.32,10.75s67.54-32.92,96.38-56.35c67.68-54.98,137.49-106.41,212.11-151.65,70.26-42.61,144.5-87.76,225.97-104.34,84.02-17.09,172.02-5.46,255.54,8.85,21.24,3.64,42.43,7.6,63.6,11.64,1.89.36,2.69-2.53.8-2.89h0Z" style="fill: url(#linear-gradient-7);"/>
    <path d="m2367.97,391.81c-80.32-18.38-161.95-36.71-244.68-38.54-38.63-.86-76.96,2.71-114.52,11.94s-75.95,24.34-112.61,40.04c-78.3,33.53-153.81,72.69-225.43,118.84-34.44,22.2-67.08,47.74-102.81,67.84-38.96,21.91-78.54,29.15-122.65,21.2-82.98-14.96-164.39-41.52-245.3-64.81-79.8-22.97-160.04-44.13-241.48-60.5s-159.55-27.97-240.29-34.2c-80.47-6.21-159.84-1.05-236.02,27.33-76.46,28.48-146.09,72.36-216.12,113.55-61.26,36.03-124.21,71.42-179.57,116.32-10.91,8.85-21.42,18.17-31.4,28.05-1.37,1.36.75,3.48,2.12,2.12,47.07-46.63,105.29-81.27,161.78-115.12,69.7-41.77,139.33-85.6,212.88-120.34,37.93-17.92,77.42-32.84,118.55-41.46s84.13-11.18,126.52-9.79c80.49,2.63,161.08,14.17,240.2,28.65,82,15,163.04,34.6,243.26,57.22,78.17,22.04,155.89,45.98,234.87,65.05,37.22,8.98,76.09,19.43,114.53,12.33,36.19-6.69,67.97-26.77,97.85-47.27,68.74-47.17,138.75-91.12,213.81-127.66,75.35-36.68,155.5-74.43,239.69-83.82,82.01-9.15,165.37,5.57,245.42,22.49,20.25,4.28,40.44,8.83,60.61,13.45,1.88.43,2.68-2.46.8-2.89h0Z" style="fill: url(#linear-gradient-8);"/>
    <path d="m2364.03,418.31c-77.89-20.96-156.77-41.77-237.4-48.6-78.66-6.66-153.1,8-228.07,30.89-77.99,23.81-153.58,53.81-225.8,91.73-36.41,19.12-71.13,41.74-108.26,59.43-17.96,8.56-36.73,15.53-56.41,18.83-23.78,3.99-47.61,1.72-71.21-2.39-80-13.92-158.94-33.96-238.62-49.62-77.18-15.17-154.96-26.44-233.36-32.96-79.69-6.63-159.7-9.06-239.64-7.65-77.43,1.37-153.36,11.08-226.06,38.91-75.05,28.73-144.24,70.25-215.79,106.37-62.17,31.39-126.58,58.92-187.29,93.14-11.21,6.32-22.21,12.98-32.91,20.14-1.6,1.07-.1,3.67,1.51,2.59,50.79-34,107.83-58.37,162.67-84.91,72.3-34.99,142.05-75.09,214.62-109.46,38.5-18.23,78.21-34.21,119.55-44.72,39.12-9.95,79.22-15.22,119.49-17.51,76.62-4.36,154.02-2.3,230.58,2.29,81.38,4.88,162.44,14.1,242.69,28.51,77.71,13.96,154.58,31.95,231.86,47.99,37.85,7.85,77.51,18.18,116.4,13.12,37.28-4.85,70.92-22.82,103.07-41.28,72.4-41.55,146.19-78.77,224.91-106.95,75.6-27.06,155.37-52.96,236.26-55.36,79.94-2.37,159.58,15.2,236.63,34.65,19.98,5.04,39.89,10.34,59.79,15.69,1.87.5,2.66-2.39.8-2.89h0Z" style="fill: url(#linear-gradient-9);"/>
    <path d="m2360.1,444.82c-76.64-23.88-154.12-47.62-233.77-59.06-73.77-10.6-146.31-4.51-219.32,8.66-80.18,14.47-158.4,35.95-233.75,67.13-37.2,15.39-72.94,34.18-110.31,49.09-37.26,14.87-74.4,20.66-114.36,15.82s-81.69-13.22-122.46-19.81c-38.45-6.22-77.06-11.58-115.78-15.88-78.58-8.72-157.51-11.21-236.5-8.19-78.43,3-156.59,10.45-234.55,19.35-76.34,8.71-151.29,22.47-223.03,50.83-74.28,29.36-143.81,69.17-217.29,100.32-62.7,26.58-127.56,46.32-191.93,68.22-11.98,4.08-23.9,8.34-35.67,13-1.77.7-1,3.6.8,2.89,55.83-22.1,114.11-37.61,170.41-58.52,72.78-27.03,141.18-62.72,211.37-95.55,74.55-34.87,150.74-59.4,232.25-71.4,76.19-11.22,153.37-18.28,230.2-23.18,79.22-5.05,158.71-6.14,237.91-.07,79.17,6.06,157.46,18.78,235.7,31.85,37.63,6.28,76.33,14.79,114.61,9.69,35.24-4.69,67.96-19.53,99.86-34.47,74.84-35.06,151.2-64.48,231.77-83.47,76.18-17.96,155.73-32.73,234.3-28.86,78.22,3.85,155.07,24.37,229.81,46.5,19.7,5.83,39.34,11.89,58.95,18,1.85.58,2.64-2.32.8-2.89h0Z" style="fill: url(#linear-gradient-10);"/>
    <path d="m2356.16,471.33c-74.93-26.72-150.5-53.18-228.49-69.54s-150.5-16.74-226.58-11.68-156.03,18.37-231.42,41.83c-37.32,11.61-73.47,26.5-110.68,38.38-39.02,12.46-77.22,16.23-117.92,11.64-79.48-8.97-158.11-20.32-238.27-21.47-75.63-1.08-150.91,6.09-225.47,18.5-76.48,12.73-152.08,30.06-227.79,46.63-74.44,16.3-147.92,34.75-218.52,63.89-73.97,30.53-144.66,69.06-220.58,94.8-62.91,21.33-127.72,33.11-193.33,42.34-12.66,1.78-25.32,3.56-37.94,5.58-1.9.3-1.09,3.2.8,2.89,58.71-9.39,117.54-16.13,175.23-31.15,74.99-19.52,144.34-52.2,214.52-84.32,72.87-33.35,146.82-60.07,224.84-78.57,73.01-17.31,146.54-33.23,220.17-47.64,76.83-15.03,154.4-26.72,232.73-29.42,77.05-2.65,153.85,3.35,230.26,12.91,39.39,4.93,79.79,13.19,119.61,9.73,36.64-3.18,71.34-16,105.6-28.61,76.12-28.02,153.67-49.4,234.35-59.08,76.79-9.22,156.18-13.42,233.12-3.87,78.35,9.73,154.53,33.93,228.95,59.46,18.72,6.42,37.37,13.02,56.01,19.66,1.82.65,2.61-2.25.8-2.89h0Z" style="fill: url(#linear-gradient-11);"/>
    <path d="m2352.23,497.84c-73.26-29.6-147-58.89-223.19-80.16-72.35-20.2-146.73-29.6-221.62-33.63-78.29-4.21-156.04-.06-232.93,15.69-38.92,7.97-76.87,19.34-115.38,28.95-38.91,9.71-76.92,13.24-116.9,9.81-78.44-6.74-155.96-13.58-234.74-7.71-74.91,5.58-148.4,21.35-220.33,42.63-74.2,21.95-146.81,48.81-220.21,73.22-71.64,23.83-143.51,46.56-213.05,76.17-73.82,31.43-145.93,69.05-223.75,89.93-66.3,17.79-134.2,21.9-202.53,19.2-13.41-.53-26.81-1.23-40.21-1.84-1.93-.09-1.93,2.91,0,3,59.72,2.71,119.06,4.85,178.44-3.94,75.93-11.25,146.06-40.11,215.7-71.19,74.07-33.07,148.52-63.14,225.59-88.54,72.11-23.77,143.76-48.89,215.87-72.68,72.57-23.95,146.28-45.04,222.03-56.1,77.06-11.25,154.86-11.41,232.36-5.09,39.15,3.19,78.83,9.84,118.18,7.12,36.26-2.51,71.31-12.74,106.21-22.25,78.31-21.35,157.78-34.68,239.09-35.1,77.65-.4,156.84,5.82,232.89,21.82,76.33,16.06,150.07,43.17,222.53,71.58,18.43,7.22,36.8,14.6,55.16,22.01,1.79.72,2.57-2.18.8-2.89h0Z" style="fill: url(#linear-gradient-12);"/>
    <path d="m2348.65,524.49c-71.74-32.6-143.85-64.85-218.22-91.07-72.81-25.66-148.25-43.62-224.36-56.25-78.73-13.07-157.76-16.79-237.16-7.67-37.55,4.32-74.53,11.62-111.72,18.21-39.51,7-78.04,9.48-118.09,6.94-76.88-4.87-152.95-6.52-229.25,6.04s-143.49,35.67-211.49,64.72c-71.97,30.74-141.47,66.86-212.59,99.46-69.18,31.72-139.9,59.92-209.36,91.02-72.72,32.56-145.78,69.02-224.3,85.39-71.23,14.85-143.16,10.43-214.03-3.96-14.2-2.88-28.35-6.07-42.48-9.26-1.88-.42-2.68,2.47-.8,2.89,61.63,13.92,123.56,25.5,187.07,22.34,75.8-3.77,146.48-28.93,215.5-58.88,72.94-31.65,145.48-64.12,218.57-95.44,69.58-29.81,137.46-63.06,205.83-95.5,70.05-33.24,141.44-64.28,216.53-84.3,74.44-19.85,151.12-27.56,228.04-25.37,38.97,1.11,78,6,116.99,5.24,36.91-.72,73.14-8.13,109.31-14.81,80.59-14.88,161.65-21.4,243.39-13.43,78.88,7.68,157.78,24.12,233.85,46.21,75.81,22.01,148.91,52.79,220.98,84.75,18.81,8.34,37.56,16.81,56.29,25.33,1.74.79,3.27-1.79,1.51-2.59h0Z" style="fill: url(#linear-gradient-13);"/>
    <path d="m2344.72,551c-141.37-71.81-284.33-138.66-437.57-181.31-76.12-21.19-153.54-33.08-232.67-31.8-40.5.66-80.67,4.77-120.91,9.03s-80.15,5.41-120.75,3.9c-77.71-2.9-154.52,1.47-229.86,21.89-72.01,19.52-139.7,51.62-204.28,88.58-68.2,39.03-133.26,83.23-200.92,123.15-67.08,39.58-136.7,74.5-206.97,108-73.26,34.93-149.69,70.59-231.16,80.18-72.71,8.56-144.36-6.21-212.72-30.39-14.59-5.16-29.06-10.67-43.5-16.24-1.8-.7-2.58,2.2-.8,2.89,61.86,23.85,124.98,45.13,191.72,48.72,76.43,4.1,148.91-17.27,218.68-46.64,73.23-30.83,144.99-66.44,215.04-103.89,68.48-36.61,133.73-78.45,199.57-119.52s133.53-80.6,206.19-108.87c72.25-28.11,148.38-43.51,225.88-45.61,40.71-1.1,81.3,2.31,121.98,1.84s78.26-6.03,117.33-9.72c82.05-7.76,164.1-5.15,244.85,11.97,155.63,32.98,303.11,98.18,444.76,168.91,18.23,9.1,36.41,18.3,54.57,27.52,1.72.87,3.24-1.71,1.51-2.59h0Z" style="fill: url(#linear-gradient-14);"/>
    <path d="m2340.78,577.51c-143.5-81.06-289.15-162.04-443.75-220.28-74.65-28.12-151.71-46.19-231.42-51.1-40.78-2.51-81.55-1.58-122.34-.01s-82.85,1.04-124.37,1.14c-78.66.19-155.77,12.39-229.12,41.39-70.85,28.02-135.69,68.9-196.97,113.77-64.61,47.3-125.82,99.05-190.64,146.07-63.74,46.23-131.05,87.35-201.41,122.72-72.29,36.35-150.89,69.55-232.98,71.37-74.75,1.66-145.64-23.17-211.87-55.75-14.9-7.33-29.63-15.02-44.31-22.77-1.71-.9-3.22,1.69-1.51,2.59,60.2,31.79,122.23,62.07,189.91,73.74,75.95,13.1,149.99-1.74,220.89-29.77s142.61-66.98,208.65-109.03c66.33-42.23,128.03-90.78,189.81-139.28,63.04-49.48,127.15-98.29,197.9-136.39,69.55-37.45,144.71-63.27,223.47-71.7,41.27-4.42,82.55-3.92,123.98-3.53,40.96.39,81.82-2.19,122.75-3,82.8-1.66,165.1,6.98,244.64,30.67,79.96,23.82,156.23,59.07,231.39,94.89,74.88,35.68,147.86,75.2,220.27,115.62,18.54,10.35,37.04,20.77,55.52,31.21,1.68.95,3.2-1.64,1.51-2.59h0Z" style="fill: url(#linear-gradient-15);"/>
    <path d="m2336.85,604.02c-73.51-45.99-147.17-91.77-221.73-136.04-71.84-42.65-144-85.78-219.38-121.95-73.71-35.36-150.84-60.5-231.89-72.1-40.62-5.81-81.59-8.49-122.59-9.47-42.38-1.02-85.01-1.93-127.37-.12-78.39,3.35-154.07,21.75-224.37,56.83-69.92,34.89-132.31,83.02-190.65,134.58-61.64,54.49-119.16,113.43-180.88,167.84-61.86,54.53-128.12,104.29-200.96,143.27-72.75,38.94-154.93,70.18-238.77,64.63-77.39-5.13-148.2-40.04-213.13-80.19-15.41-9.53-30.59-19.4-45.74-29.33-1.62-1.06-3.12,1.53-1.51,2.59,60.42,39.64,122.91,78.88,193.2,98.33,76.05,21.04,152.6,11.68,225.7-15.96,153.21-57.94,273.99-170.1,390.66-281.09,115.39-109.78,241.69-219.68,403.29-249.46,43.06-7.94,86.72-9.89,130.42-9.83,42.34.06,84.76.3,127.03,2.82,84.54,5.02,167.73,21.56,246.5,52.99,78.59,31.35,152.03,74.22,225.04,116.6,74.13,43.03,147.26,87.71,220.04,132.97,18.54,11.53,37.06,23.1,55.57,34.67,1.64,1.03,3.15-1.57,1.51-2.59h0Z" style="fill: url(#linear-gradient-16);"/>
    <path d="m2332.91,630.52c-78.07-53.9-156.15-107.79-234.22-161.69-73.8-50.95-146.86-103.85-225.53-147.16-76.94-42.36-159.12-71.68-245.6-87.22-85.65-15.39-175.44-21.6-261.66-7.3-157.34,26.08-279.94,133.2-384.93,246.41-106.35,114.67-203.67,243.76-340.38,324.62-74.05,43.8-161.72,74.61-248.68,61.93-80.97-11.81-152.34-56.62-217.11-104.16-16.05-11.78-31.85-23.89-47.61-36.05-1.53-1.18-3.02,1.43-1.51,2.59,62.51,48.22,127.12,97.35,202.13,124.39,37.7,13.59,77.51,20.65,117.62,18.85,42.38-1.9,83.99-12.81,123.22-28.57,144.4-58.02,250.9-178.01,351.72-291.79,102.91-116.13,213.59-239.74,363.53-293.81,85-30.66,176.5-33.47,265.64-24.8,91.13,8.86,181.23,30.09,264.61,68.41,80.24,36.88,153.46,86.86,225.93,136.86,77.9,53.75,155.77,107.53,233.66,161.3,19.22,13.27,38.44,26.53,57.65,39.8,1.59,1.1,3.09-1.5,1.51-2.59h0Z" style="fill: url(#linear-gradient-17);"/>
    <path d="m119.03,736.62c63.18,44.57,128.8,89.61,203.97,111.14,79.26,22.69,159.66,10.47,234.64-21.34,142.7-60.54,249.37-178.51,353.93-288.65,104.72-110.32,220.74-226.8,373.6-263.77,44.36-10.73,90.15-13.54,135.65-13.53,44.51,0,89.17,1.78,133.53,5.37,90.3,7.31,178.8,27.36,261.88,63.87,78.12,34.33,150.55,79.97,222.16,126.01,77.91,50.1,155.17,101.2,231.64,153.46,19.17,13.1,38.28,26.27,57.35,39.51,1.59,1.1,3.09-1.5,1.51-2.59-76.18-52.89-153.16-104.63-230.84-155.3-73.29-47.81-146.59-96.52-224.37-136.83-76.6-39.7-157.53-67.96-242.78-81.93-42.46-6.96-85.36-10.42-128.32-12.43-44.62-2.09-89.52-3.47-134.14-.62-77.98,4.96-151.18,28.19-218.3,68.04-65.22,38.73-122.59,89.32-176.32,142.49-110.14,108.98-208.62,233.8-342.5,315.47-70.83,43.2-154.04,76.34-238.32,71.81-82.41-4.43-156.91-44.6-224.21-89.43-16.27-10.84-32.29-22.05-48.27-33.32-1.58-1.12-3.08,1.48-1.51,2.59h0Z" style="fill: url(#linear-gradient-18);"/>
    <path d="m112.37,750.76c63.5,40.16,129.37,80.02,203.63,96.29,78.85,17.28,157.74.88,230.49-31.5,140.13-62.38,246.92-176.66,354.9-281.87,109.43-106.62,233.65-217.18,392.44-233.18,44.26-4.46,88.84-2.61,133.2-1.31,43.53,1.28,87.13,1.18,130.61,3.81,88.39,5.35,174.84,24.36,256.77,58.03,80.47,33.07,155.81,77.29,230.12,122.18,75.96,45.89,150.79,93.64,224.24,143.44,18.29,12.4,36.49,24.94,54.61,37.59,1.59,1.11,3.09-1.49,1.51-2.59-73.49-51.31-148.42-100.54-224.58-147.8-72.99-45.3-146.66-90.44-223.93-128.15-76.61-37.38-156.96-64.9-241.42-77.62-42.27-6.37-84.83-9-127.53-10.08s-87.82-2.47-131.73-3.15c-42.19-.65-84.61.63-126,9.48-35.57,7.6-69.98,20.01-102.67,35.89-66.58,32.34-125.49,78.43-180.29,127.71-114.1,102.62-214.27,222.84-345.81,304.51-70.48,43.76-152.6,78.95-236.81,79.1-80.71.15-155.33-33.97-223.38-74.43-15.79-9.39-31.35-19.15-46.87-28.96-1.64-1.03-3.14,1.56-1.51,2.59h0Z" style="fill: url(#linear-gradient-19);"/>
    <path d="m105.71,764.89c64.44,35.53,131.07,70.1,204.79,80.82,79,11.49,156.93-9.22,228.18-42.76,136.76-64.37,243.79-174.35,355.06-273.65,56.29-50.23,114.74-99.12,180.72-136.23,70.09-39.41,145.34-60.37,225.9-59.62,43.95.41,87.77,4.44,131.73,4.72s87.7-1.67,131.53.43c86.61,4.15,171.17,22.4,252.02,53.62,79.27,30.62,154.33,71.22,228.06,113.2s150.53,89.3,223.09,138.19c17.65,11.89,35.17,23.96,52.58,36.19,1.58,1.11,3.08-1.49,1.51-2.59-71.22-49.99-144.4-97.16-219.23-141.57-72.66-43.12-146.56-85.07-223.46-120.21-76.06-34.76-155.47-61.06-238.47-72.72-85.71-12.05-171.62-4.97-257.72-9-43.23-2.02-86.68-5.38-129.92-1.69-36.91,3.15-73.2,11.92-107.85,24.94-67.26,25.29-127.47,66.02-183.15,110.85-117.69,94.76-219.43,209.32-347.85,290.53-68.82,43.51-147.3,79.71-229.32,86.72-81.64,6.98-159.17-21.09-230.61-57.96-15.51-8-30.81-16.39-46.1-24.81-1.69-.93-3.21,1.66-1.51,2.59h0Z" style="fill: url(#linear-gradient-20);"/>
    <path d="m99.05,779.03c64.41,29.69,130.38,57.92,201.87,63.94,79.81,6.72,157.85-17.55,228.85-52.32,133.91-65.58,241.93-170.9,356.79-263.68,58.36-47.14,119.72-92.26,188.64-122.81,34.16-15.14,70.11-26.44,107.07-32.19,41.72-6.49,83.64-4.22,125.53-.86s84.88,6.22,127.67,4.61c43.57-1.64,86.99-4.75,130.62-3.26,85.27,2.92,168.65,20.03,248.86,48.83,79.6,28.57,155.61,66.58,229.91,106.73,74.71,40.36,147.61,84.11,218.17,131.36,17.59,11.78,35.03,23.8,52.33,36,1.58,1.12,3.08-1.48,1.51-2.59-69.59-49.1-141.58-94.72-215.57-136.88-72.69-41.42-147.13-80.67-224.19-113.4-73.74-31.32-150.52-55.53-230.09-66.26-43.09-5.81-86.62-8.04-130.08-7.05s-86.06,5.06-129.17,4.06c-42.56-.98-84.84-6.58-127.36-8.2-37.53-1.43-74.66,1.57-111.18,10.47-70.62,17.21-134.9,53.32-193.78,95.09-121.5,86.19-225.48,195.06-351.68,274.96-67.56,42.77-142.79,79.07-222.4,91.55-81.17,12.73-160.2-7.98-234.46-39.86-15.56-6.68-30.95-13.75-46.33-20.84-1.74-.8-3.27,1.78-1.51,2.59h0Z" style="fill: url(#linear-gradient-21);"/>
    <path d="m92.75,793.31c66.42,23.86,133.71,46.16,205.09,46.41,79.62.28,156.76-27.66,226.89-63.46,133.1-67.95,246.24-169.42,365.24-258.41,57.21-42.78,118.16-84.34,187.36-104.82,76.19-22.55,154.13-6.01,231.61-.64,42.19,2.92,83.99,2.67,126.13-.9,43.29-3.67,86.35-7.43,129.86-6.65,85.53,1.53,169.46,17.63,250.49,44.66,79.41,26.49,155.78,61.85,230.12,100.15,73.68,37.95,145.34,79.88,214.31,125.85,17.35,11.56,34.51,23.39,51.51,35.45,1.58,1.12,3.08-1.48,1.51-2.59-134.12-95.11-280.08-177.58-433-238.41-75.54-30.05-154.06-53.13-234.96-62.71-43.77-5.18-87.95-6.64-131.98-4.71s-84.73,7.85-127.27,9.02c-42.48,1.16-84.96-2.44-127.22-6.4-38.74-3.63-78.31-9.56-117.28-6.88-68.15,4.7-131.12,34.84-187.74,71.35-60.15,38.79-116.09,84.38-172.66,128.13-60.58,46.84-120.93,94.24-185.86,135.01-68.69,43.12-143.84,80.52-223.83,96.68-78.65,15.9-156.55,2.35-231.62-22.85-15.38-5.16-30.64-10.69-45.91-16.17-1.82-.65-2.6,2.24-.8,2.89h0Z" style="fill: url(#linear-gradient-22);"/>
    <path d="m86.09,807.45c68.79,16.81,137.39,32.87,208.79,27.47,77.15-5.83,151.36-35.23,219.55-70.39,132.31-68.23,247.83-164.52,371.88-245.95,60.19-39.51,125.97-76.42,198.56-85.41,39.11-4.84,77.27,1.41,115.96,6.9,39.67,5.63,79.44,11.12,119.52,12.63,41.36,1.55,81.92-3.23,122.85-8.47,41.67-5.33,83.46-8.56,125.49-8.19,84.24.76,167.28,15.73,247.64,40.61s154.83,57.08,228.68,93.47c72.8,35.87,143.41,76.24,211.04,121.1,17.3,11.47,34.38,23.26,51.29,35.31,1.58,1.12,3.07-1.48,1.51-2.59-131.98-94.05-277.1-172.61-429.2-228.88-75.38-27.89-153.58-49.07-233.65-57.59-42.08-4.48-84.51-5.52-126.77-3.38-42.16,2.13-83.69,8.91-125.63,13.19-82.69,8.44-163.04-7.7-244.81-17.26-69.13-8.08-135.95,13.28-196.42,45.43-64.06,34.05-122.81,78-182.15,119.49-61.59,43.06-122.2,87.63-186.34,126.88-68.04,41.64-140.84,78.45-218.47,98.29-77.48,19.81-155.18,13.69-232.3-4.26-15.45-3.6-30.82-7.5-46.23-11.26-1.88-.46-2.68,2.43-.8,2.89h0Z" style="fill: url(#linear-gradient-23);"/>
    <path d="m79.83,821.64c68.51,7.75,136.05,17.28,205.03,7.92,78.05-10.58,152.71-42.13,222.19-78.14,132.1-68.47,250.61-160.04,380.89-231.65,64.43-35.42,136.15-64.4,211.1-57.85,39.78,3.48,79.08,14.36,118.49,20.71,39.09,6.3,78.85,10.53,118.48,8.26s78.14-10.89,117.19-16.46c42.22-6.03,84.9-8.88,127.55-8.4,81.74.91,162.64,15.09,240.99,37.92,153.05,44.58,300.11,116.5,432.79,204.46,16.48,10.93,32.75,22.17,48.83,33.69,1.57,1.13,3.07-1.48,1.51-2.59-128.21-91.8-270.16-166.01-419.05-218.12-74.75-26.16-152.04-45.84-230.93-54.08-81.97-8.56-163.12-2.73-244.15,10.94-42.67,7.2-84.73,12.04-128.05,9.15-42.21-2.81-83.81-10.77-125.29-18.73-35.35-6.79-69.59-12.93-105.74-9.44-34.73,3.35-68.47,13.26-100.63,26.55-67.06,27.72-127.76,68.81-189.21,106.87-63.73,39.47-125.76,81.66-190.4,119.65-68.92,40.51-141.37,77.18-218.39,99.54-75.42,21.9-151.67,21.7-228.99,12.25-14.73-1.8-29.45-3.76-44.2-5.43-1.92-.22-1.9,2.79,0,3h0Z" style="fill: url(#linear-gradient-24);"/>
    <path d="m73.17,835.77c66.29-2.52,131.96.85,197.62-11.42,76.18-14.24,148.95-45.55,217.88-80.18,134.6-67.63,258.59-157.71,399.31-212.97,71.91-28.24,149.24-43.98,226.37-31.79,37.3,5.9,73.62,16.61,110.72,23.54s72.87,8.6,109.79,3.6c41.02-5.55,81.11-16.37,122.05-22.52,41.32-6.21,83.11-9.36,124.89-9.31,81.23.09,161.94,12.83,240.27,33.93,152.36,41.03,298.94,109.45,430.33,196.54,15.86,10.51,31.49,21.35,46.93,32.46,1.57,1.13,3.07-1.47,1.51-2.59-126.3-90.84-267.2-162.2-415.09-210.53-75.37-24.63-153.16-42.58-232.24-49.58-80-7.09-160.63-2.1-239.37,13.56-41.69,8.29-83.39,18.74-126.2,18.28-40.4-.43-79.78-10.12-118.91-19.2-35.37-8.21-70.71-15.21-107.16-15.48-36.5-.27-72.86,5.05-108.13,14.26-71.86,18.76-138.61,52.88-203.62,88.01-66,35.66-129.89,75.04-195.49,111.42-69.73,38.67-141.81,74.54-217.99,98.71-72.31,22.94-145.94,27.69-221.27,27.71-14.07,0-28.15.03-42.21.57-1.92.07-1.93,3.07,0,3h0Z" style="fill: url(#linear-gradient-25);"/>
    <path d="m66.91,849.85c29.69-6.35,60.02-9.2,90.09-13.16,36.28-4.78,72.42-10.73,107.91-19.75,75.22-19.12,147.16-51.25,216.63-85.37,68.07-33.43,134.35-70.37,202.21-104.2,68.04-33.92,138.2-66.66,211.9-86.25,37.77-10.04,76.64-16.25,115.77-16.37,39-.12,76.66,6.94,114.19,16.96,34.94,9.33,69.74,19.87,105.74,24.3,37.24,4.58,73.73.3,110.15-7.84,38.22-8.54,75.88-18.79,114.6-25.05,41.15-6.65,82.81-10.25,124.49-10.74,81.59-.95,162.94,10.39,242.02,30.1,150.92,37.61,296.29,102.59,425.96,188.35,15.81,10.46,31.38,21.27,46.75,32.37,1.57,1.13,3.07-1.47,1.51-2.59-125.23-90.46-266.01-159.68-413.82-204.53-153.24-46.5-314.13-61.49-471.58-27.59-39.33,8.47-78.01,20.67-118.13,25.04-39.89,4.35-79.05-1.77-117.71-11.53-35.63-8.99-70.76-20.49-107.17-26.06-36.68-5.61-74.02-5.36-110.76-.43-74.19,9.97-144.44,38.1-212.08,69.03-68.68,31.4-134.99,67.4-201.98,102.18-71.79,37.28-144.76,73.07-221.3,99.63-70.71,24.54-143.1,33.81-216.82,43.94-13.2,1.81-26.36,3.86-39.39,6.65-1.89.4-1.09,3.3.8,2.89h0Z" style="fill: url(#linear-gradient-26);"/>
    <path d="m60.25,863.99c26.23-11.05,54.09-17.76,81.67-24.5,36.39-8.88,72.85-17.53,108.68-28.53,75.7-23.25,148.46-56.04,220.04-89.61,70.09-32.86,139.36-67.66,210.95-97.2,71.38-29.46,145.46-56.59,222.37-66.81,40.41-5.37,81.56-5.71,121.85.86,35.53,5.79,69.56,17.61,103.88,28.09,33.4,10.2,67.61,19.21,102.71,20.17,38.09,1.04,75.16-8.47,111.51-18.78,78.53-22.28,157.81-37.1,239.65-38.64,80.74-1.52,161.42,8.39,240.03,26.56,149.49,34.56,293.61,96.63,421.61,181.19,15.61,10.31,30.97,20.99,46.11,31.98,1.56,1.14,3.06-1.47,1.51-2.59-122.43-88.82-260.73-155.38-406.02-197.25-153.53-44.24-315.27-57.42-472.13-22.84-39.23,8.65-77.3,21.78-116.53,30.33-39.99,8.71-79.14,8.83-119.13.07-35.76-7.83-70.16-20.55-105.35-30.47-35.62-10.05-72.02-15.67-109.07-15.75-76.83-.17-151.76,21.01-223.29,47.38-71.07,26.2-139.62,58.07-207.95,90.64-74.15,35.34-148.36,70.85-225.32,99.75-37.48,14.07-75.63,25.76-114.41,35.67-32.25,8.23-64.87,15.17-96.84,24.45-12.66,3.67-25.17,7.82-37.32,12.94-1.75.74-.98,3.64.8,2.89h0Z" style="fill: url(#linear-gradient-27);"/>
    <path d="m53.95,877.97c25.4-16.99,54.17-28.19,82.77-38.54,35.67-12.91,71.84-24.4,107.43-37.54,74.28-27.42,146.63-59.88,219.1-91.68s143.07-62.38,217.35-86.26c76.57-24.61,156.12-44.93,237.12-43.58,40.26.67,79.94,7.12,118.35,19.16,33.72,10.57,66.49,24.05,100.54,33.6,34.37,9.64,69.6,14.5,105.2,9.8,38.17-5.05,74.35-18.66,110.96-29.92,153.8-47.29,316.62-48.61,473.29-14.73,147.35,31.87,289.42,91.18,415.31,174.16,15.57,10.26,30.87,20.93,45.95,31.91,1.56,1.14,3.06-1.46,1.51-2.59-120.64-87.88-257.68-152.51-401.63-191.64-152.22-41.38-312.74-52.22-467.45-17.91-39.02,8.65-76.67,21.14-114.81,32.86-38.7,11.9-78.2,20.15-118.82,15.25-75.03-9.06-142.16-48.75-217.13-59.07-77.14-10.61-155.14,1.75-229.66,22.03-74.4,20.25-146.28,47.87-217.13,78.11-76.22,32.53-151.52,67.16-228.41,98.09-37.1,14.93-74.68,28.36-112.52,41.29-31.27,10.68-62.86,21.03-92.92,34.85-12.45,5.72-24.52,12.15-35.91,19.77-1.6,1.07-.1,3.67,1.51,2.59h0Z" style="fill: url(#linear-gradient-28);"/>
    <path d="m47.6,891.87c48.56-47.17,118.68-70.13,179.77-95.8,74.51-31.3,148.48-63.91,223.5-93.96,72.79-29.16,146.74-55.44,223.15-73.43s158.61-29.69,238.48-19.55c39.09,4.97,76.45,15.87,113.13,30.01,33.17,12.79,65.94,27.02,100.46,35.86s67.62,10.68,101.75,4.21c38.42-7.28,74.55-22.95,111.5-35.21,154.71-51.34,320.45-56.62,479.88-25.66,148.48,28.83,291.92,86.51,418.3,169.71,15.53,10.22,30.78,20.87,45.79,31.85,1.56,1.14,3.06-1.46,1.51-2.59-121.27-88.7-260.1-152.4-405.8-188.76-155.34-38.77-319.07-45.05-475.08-6.35-39.06,9.69-76.73,22.94-114.65,36.26-38.09,13.38-77.29,24.35-118.06,21.25-74.78-5.7-140.27-48.09-212.29-65.18-76.1-18.06-155.19-14.03-231.6-.11-78.48,14.3-154.71,37.91-229.24,66.07-75.96,28.71-150.49,61.16-225.17,93.02-36.3,15.48-72.87,30.34-109.04,46.13-30.36,13.25-60.85,27.26-88.36,45.87-10.69,7.23-20.79,15.24-30.05,24.24-1.39,1.35.74,3.47,2.12,2.12h0Z" style="fill: url(#linear-gradient-29);"/>
    <path d="m41.17,905.7c40.81-55.01,107.95-86.17,168.16-114.84,75.15-35.78,151.9-68.66,230.36-96.49,75.37-26.73,152.59-47.75,231.88-58.84,80.13-11.2,162.65-12.5,241.53,7.53,71.19,18.08,134.28,60.32,206.53,74.42,34.57,6.75,68.9,4.47,102.71-5.1,37.9-10.73,73.72-27.71,110.92-40.52,154.75-53.28,321.66-61.65,482.33-33.22,148.57,26.29,292.42,82.26,418.51,165.32,15.34,10.11,30.4,20.63,45.21,31.51,1.56,1.14,3.06-1.46,1.51-2.59-121.26-89.04-261.02-151.69-407.5-185.51-157.13-36.29-322.41-38.7-478.79,2.73-39.32,10.42-77.43,23.99-115.23,38.91-37.77,14.91-76.65,29.58-117.82,29.68-75.79.19-141.59-43.71-211.1-67.64-150.31-51.74-319.32-22.03-466.77,25.31-78.78,25.29-155.66,56.82-230.95,91.05-64.04,29.12-133.38,58.21-186.12,106.04-10.3,9.34-19.66,19.57-27.95,30.74-1.15,1.55,1.45,3.05,2.59,1.51h0Z" style="fill: url(#linear-gradient-30);"/>
    <path d="m34.51,919.84c33.32-60.99,94.94-100.52,154.45-132.76,73.05-39.58,150.56-71.77,229.88-96.43,151.64-47.14,323.18-66.97,476.32-15.13,69.17,23.41,131.37,68.18,204.01,81.2,77.65,13.92,144.2-26.58,214.29-52.8,155.21-58.07,324.48-71.74,487.92-47.06,151.6,22.89,298.85,77.55,427.21,161.65,15.88,10.4,31.43,21.28,46.7,32.54,1.56,1.15,3.05-1.46,1.51-2.59-123.04-90.68-265.98-152.81-415.5-183.88-160.6-33.37-329.14-30.61-486.89,15.85-38.35,11.3-75.64,25.39-112.33,41.21-38.81,16.73-78.75,34.15-121.68,35.38-76.07,2.17-142.32-42.8-209.82-71.23-146.82-61.86-316.6-51.23-467.64-10.98-79.34,21.15-156.79,50.71-230.6,86.64-63.32,30.82-130.3,66.4-176.18,121.35-9.23,11.05-17.34,22.91-24.24,35.54-.93,1.7,1.66,3.21,2.59,1.51h0Z" style="fill: url(#linear-gradient-31);"/>
    <path d="m28.01,933.62c27.09-66.91,84.21-115.31,144.4-152.14,69.7-42.64,147.01-73.57,225.88-94.48,154.92-41.05,326.59-41.38,476,21.07,68.29,28.54,130.88,76.39,205.38,88,79.04,12.32,146.84-33.53,217.14-61.56,154.77-61.71,324.9-80.16,489.88-59.48,155.36,19.47,306.9,73.23,438.04,159.1,15.84,10.37,31.34,21.23,46.56,32.49,1.55,1.15,3.05-1.45,1.51-2.59-124.89-92.39-271.13-153.99-423.71-182.31-164.01-30.43-335.58-22.5-494.63,28.85-38.37,12.39-75.68,27.45-112.22,44.46-39.11,18.2-79.27,37.76-123.1,40.19-79.7,4.41-148.75-45.33-217.46-78.13-143.63-68.55-311.87-75.74-465.74-42.24-79.48,17.3-157.47,45.23-229.25,83.6-60.97,32.58-121.56,74.13-159.97,132.9-8.57,13.11-15.72,26.99-21.6,41.5-.72,1.79,2.18,2.57,2.89.8h0Z" style="fill: url(#linear-gradient-32);"/>
    <path d="m21.35,947.75c46.18-155.32,219.57-236.57,366.27-266.29,165.27-33.49,341.89-8.38,489.96,72.78,68.83,37.73,141.41,90.47,224.21,81.67,40.8-4.34,78.05-23.12,114.23-41.22,35.85-17.94,72.32-34.3,110.04-47.94,146.01-52.82,304.23-69.59,458.35-52.18,154.49,17.45,305.49,69.6,435.81,154.74,16.02,10.47,31.69,21.45,47.06,32.86,1.55,1.15,3.05-1.45,1.51-2.59-125.43-93.17-273.28-153.93-427.14-179.95-152.76-25.83-311.52-17.86-460.29,25.85-36.79,10.81-72.93,23.82-108.15,38.97-40.21,17.3-78.16,39.96-119.17,55.34-42.73,16.02-86.25,17.92-129.96,4.49-42.19-12.96-80.46-35.93-118.52-57.73-72.72-41.65-149.28-72.82-231.78-88.87-81.07-15.77-164.69-17.86-246.44-6.12-80.18,11.51-159.61,36.23-230.61,75.54-63.94,35.41-123.51,84.79-158.11,150.27-8.37,15.83-15.05,32.42-20.15,49.58-.55,1.85,2.34,2.65,2.89.8h0Z" style="fill: url(#linear-gradient-33);"/>
    <path d="m24.16,898.63c23.05-64.74,74.24-113.9,131.66-149.35,65.51-40.45,140.36-65.42,215.44-81.01,163.74-34,340.8-24.67,492.77,48.97,63.96,30.99,125.37,74.95,197.59,83.88,78.51,9.71,147.73-36.58,218.08-63.54,155.05-59.41,321.81-77.95,486.85-66.57,157.85,10.89,312.08,53.45,448.17,135.39,16.29,9.81,32.23,20.15,47.88,30.94,1.59,1.1,3.1-1.5,1.51-2.59-128.22-88.41-277.25-141.7-431.54-160.51-166.17-20.25-337.29-9.97-497.32,40.74-37.43,11.86-74.1,25.94-109.92,42.03-38.59,17.34-77.58,36.83-120.2,41.52-79.17,8.71-149.84-37.27-216.86-72.38-147.25-77.13-316.01-94.14-478.86-67.96-77.43,12.45-154.83,34.57-224.5,71.07-56.92,29.81-111,70.92-144.22,126.92-7.84,13.22-14.27,27.16-19.42,41.64-.65,1.82,2.25,2.61,2.89.8h0Z" style="fill: url(#linear-gradient-34);"/>
    <path d="m26.83,849.86c25.8-59.81,79.16-101.74,135.57-131.22,67.47-35.25,142.7-55.37,217.31-68.73,160.93-28.81,333.62-30.27,485.21,37.9,63.75,28.67,124.72,69.41,195.38,78.76,76.63,10.15,145.12-30.39,215.06-54.76,154.74-53.92,317.1-68.85,480.06-63.08,81.23,2.88,162.02,10.9,240.95,30.97,74.33,18.9,146.34,47.03,213.48,84.15,16.34,9.03,32.35,18.62,48.09,28.66,1.63,1.04,3.14-1.55,1.51-2.59-130.76-83.39-280.4-128.81-434.56-140.46-164.05-12.39-330.58-4.92-489.45,40.23-38.25,10.87-75.83,23.89-112.69,38.81-37.66,15.23-75.64,31.96-116.5,36-77.88,7.69-148.05-34.7-215.24-67.65-70.82-34.74-146.22-56.34-224.72-64.32-80.27-8.16-161.75-3.72-241.53,7.27-76.61,10.55-153.68,27.8-225.09,58.04-58.12,24.61-115.79,59.42-153.29,111.44-8.8,12.21-16.17,25.27-22.12,39.08-.76,1.75,1.83,3.28,2.59,1.51h0Z" style="fill: url(#linear-gradient-35);"/>
    <path d="m29.64,800.74c30.48-57.31,90.43-92.39,148.72-116.05,70.8-28.74,147.27-43.77,222.62-54.74,158.23-23.04,323.78-32.78,473.81,32.12,62.45,27.01,123.26,63.58,192.18,70.95,75.41,8.06,145.48-29.63,215.74-50.82,75.61-22.8,153.44-38.1,231.94-46.6,79.87-8.65,160.17-9.19,240.41-8.56,78.64.62,156.87,3.82,234.13,19.63,74.31,15.21,146.69,39.95,214.5,73.97,16.83,8.44,33.33,17.49,49.56,27.02,1.67.98,3.18-1.61,1.51-2.59-131.45-77.16-279.31-114.76-431.04-119.81-161.65-5.38-324.36-1.22-482.07,37.69-37.96,9.37-75.47,20.54-112.33,33.58-37.76,13.36-75.33,28.58-115.41,33.32-76.42,9.04-146.5-28.49-213.54-59.54-69-31.96-140.99-52.26-216.91-58.5-80.8-6.65-162.35,0-242.62,9.8-78.22,9.56-157.23,23.05-232,48.54-58.5,19.94-119.11,48.61-159.82,96.65-8.48,10.01-15.83,20.83-21.98,32.41-.91,1.7,1.68,3.22,2.59,1.51h0Z" style="fill: url(#linear-gradient-36);"/>
    <path d="m32.46,751.62c35.17-52.29,99.42-79.14,157.42-97.04,73.02-22.53,149.79-33.35,225.41-42.88,77.82-9.81,156.45-19.69,234.99-20.08,78.79-.39,156.04,12.36,229.22,41.99,63.61,25.75,126.05,60.4,195.72,65.89,73.27,5.77,143.56-27.77,213.09-45.74,75.54-19.52,152.75-32.48,230.43-39.65,79.19-7.31,158.67-7.18,238.1-8.91,76.42-1.67,152.34-2.86,228.1,9.11,74.08,11.71,146.67,33.21,214.93,64.32,16.51,7.52,32.73,15.63,48.71,24.22,1.7.91,3.22-1.68,1.51-2.59-64.86-34.85-134.19-60.93-205.94-77.5-72.9-16.83-146.95-22.67-221.64-21.85-158.98,1.73-318.24,2.89-474.47,35.79-37.7,7.94-75.08,17.42-111.95,28.58-36.09,10.92-71.83,23.99-109.3,29.4-77.69,11.21-148.65-21.88-218.08-51.97-70.06-30.37-141.91-49.61-218.42-53.26-79.86-3.81-159.85,5.68-239.05,14.9-76.68,8.93-153.96,18.96-228.89,38.01-59.28,15.07-122.65,36.83-168.24,79.35-9.15,8.54-17.27,18.02-24.25,28.4-1.08,1.61,1.52,3.11,2.59,1.51h0Z" style="fill: url(#linear-gradient-37);"/>
    <path d="m35.04,702.8c39.88-45.14,105.42-63.31,162.06-75.93,74.68-16.64,151.49-23.85,227.4-32.51s154.42-20.99,232.08-24.24c77.32-3.23,153.05,6.8,225.71,33.93,65.05,24.3,129.05,57.38,199.56,61.69,35.18,2.15,69.93-4.2,103.89-12.82,35.44-9,70.59-18.88,106.34-26.68,76.73-16.74,154.7-27.69,233-33.65,77.01-5.86,154.27-5.26,231.36-9.4,73.81-3.96,146.97-9.55,220.76-1.73,73.2,7.76,145.36,25.49,213.69,52.9,17.98,7.21,35.64,15.14,53.04,23.64,1.73.84,3.25-1.74,1.51-2.59-65.57-32.04-135.31-55-207.1-68.14-71.92-13.16-144.24-15.09-217.08-10.95-78.12,4.44-156.2,6.23-234.36,9.59-77.15,3.32-154.12,11.29-230.2,24.58-38.14,6.66-76.05,14.67-113.58,24.16-36.2,9.15-72.01,20.6-109.09,25.77-76.19,10.61-145.88-17.26-215.15-45.24-34.84-14.07-69.9-27.09-106.6-35.49-36.08-8.26-72.95-12.4-109.94-13.16-78.72-1.61-156.97,10.77-234.94,19.87-76,8.87-152.36,16.2-227.82,29.09-61.41,10.5-128.49,24.99-180.27,61.67-9.66,6.84-18.54,14.61-26.38,23.48-1.27,1.44.84,3.57,2.12,2.12h0Z" style="fill: url(#linear-gradient-38);"/>
    <path d="m37.85,653.67c21.21-17.17,47.36-27.24,73.28-34.89,32.97-9.72,67.05-15.55,101.08-20.02,73.97-9.7,148.63-13.82,222.81-21.74,75.38-8.05,150.06-22.5,225.62-28.76,75.94-6.29,150.39.82,222.73,25.4,65.43,22.23,129.5,53.08,199.4,57.97,35.42,2.48,70.61-2.88,105.17-10.22,35.97-7.64,71.76-15.87,107.97-22.36,76.47-13.7,153.78-22.62,231.31-27.52,76.17-4.81,152.66-3.84,228.72-10.49,71.84-6.28,142.69-16.08,215.01-12.07,72.93,4.04,145.3,18.35,214.19,42.68,18.31,6.47,36.33,13.68,54.09,21.51,1.75.77,3.28-1.81,1.51-2.59-66.3-29.23-136.45-49.06-208.26-58.75-70.98-9.57-141.53-7.71-212.58-.26-37.96,3.98-75.87,7.94-114.01,9.86-38.82,1.95-77.68,2.63-116.52,4.05-76.99,2.8-153.84,9.33-230.11,20.33-37.85,5.46-75.54,12.01-112.98,19.79-37.08,7.7-73.89,17.67-111.62,21.79-76.1,8.31-145.8-18.16-215.84-44.17-69.89-25.96-140.07-42.06-215.01-40.31s-152.27,17.15-228.21,26.48c-76.09,9.35-152.59,14.43-228.82,22.36-61.43,6.39-127.8,14.03-183.67,42.26-9.73,4.92-18.92,10.68-27.4,17.54-1.5,1.21.63,3.33,2.12,2.12h0Z" style="fill: url(#linear-gradient-39);"/>
    <path d="m40.36,604.79c23.49-12.1,50.02-17.71,75.93-21.88,35.18-5.66,70.86-8.18,106.42-9.99,73.25-3.74,146.53-5.27,219.55-12.77,73.88-7.59,146.24-24.26,219.81-33.75,74.63-9.62,148.12-5.78,220.35,16.13,65.95,20,130.11,48.96,199.51,54.93,71.25,6.13,142.89-14.46,212.96-24.51,76.53-10.98,153.6-18.14,230.79-22.16,75.83-3.95,152.17-2.61,227.65-11.74,71.33-8.62,141.17-22.91,213.36-22.42,73.32.5,146.56,11.76,216.56,33.6,17.45,5.44,34.66,11.58,51.66,18.29,1.8.71,2.58-2.19.8-2.89-67.04-26.43-137.67-43.03-209.47-49.23-71.44-6.17-141.52-.03-212.14,10.92-38.09,5.91-76.14,11.13-114.62,13.6-38.65,2.48-77.39,3.19-116.09,4.44-77.21,2.51-154.34,7.98-231.06,17.07-35.8,4.24-71.51,9.26-107.08,15.16-37.1,6.15-74.05,14.19-111.62,16.96-74.99,5.52-144.01-19.3-213.84-43.03-69.16-23.5-138.38-37.21-211.71-32.62-73.52,4.6-145.36,22.48-218.17,32.53-75,10.36-150.71,13.84-226.3,16.74-64.53,2.48-132.6,3.31-194.94,22.19-10.27,3.11-20.29,6.92-29.84,11.84-1.72.88-.2,3.47,1.51,2.59h0Z" style="fill: url(#linear-gradient-40);"/>
    <path d="m42.82,555.81c25.56-6.28,52.23-7.62,78.44-8.36,34.01-.96,68.06-.27,102.06.53,72.32,1.68,144.57,2.93,216.71-3.76,71.87-6.67,141.34-24.54,212.1-37.77,75.91-14.19,150.74-15.63,225.9,4.01,66.96,17.5,131.6,45.1,200.91,52.58,72.34,7.81,145.72-8.83,217.45-16.48,75.51-8.05,151.31-13.4,227.19-16.53,73.72-3.04,148.15-1.49,221.33-12.13,36.23-5.27,71.87-13.68,107.8-20.6,35.59-6.86,71.53-11.42,107.76-13.06,72.99-3.29,146.47,4.47,217.1,23.22,17.77,4.72,35.32,10.17,52.68,16.22,1.83.64,2.61-2.26.8-2.89-67.8-23.61-138.89-37.07-210.64-39.77s-140.1,7.4-209.65,21.76c-37.58,7.75-75.18,14.33-113.47,17.41-37.76,3.04-75.66,3.81-113.52,4.83-77.09,2.08-154.12,6.2-230.93,13.04-37.41,3.33-74.77,7.28-112.04,11.96-35.97,4.51-71.9,10.31-108.17,11.7-74.86,2.87-144.13-21.22-214.64-42.87-69.51-21.34-139.04-31.97-211.72-23.72-71.02,8.06-139.9,28.48-210.47,39.31s-149.13,13.14-223.84,11.71c-65.92-1.26-132.98-6.1-198.69,1.4-10.51,1.2-20.96,2.85-31.24,5.38-1.87.46-1.08,3.35.8,2.89h0Z" style="fill: url(#linear-gradient-41);"/>
    <path d="m45.24,506.74c59.01.13,118.18,9.84,176.79,15.76,72.44,7.32,145.18,11.58,217.89,5.54,71.17-5.91,138.97-25.36,208.12-41.89,73.74-17.64,146.9-24.13,221.7-8.32,69.3,14.65,135.65,41.56,206.17,50.7,72.01,9.33,145.47-2.69,217.4-7.84,75.44-5.4,151.01-9.07,226.6-11.37s149.25-.23,222.47-13.25c35.28-6.27,69.72-16.23,104.43-24.97,35.69-8.99,71.82-15.7,108.48-19.23,72.48-6.98,146.06-2.66,217.17,13.01,17.89,3.94,35.59,8.65,53.12,13.96,1.85.56,2.64-2.33.8-2.89-68.47-20.77-139.88-31.05-211.44-30.27-71.2.78-138.94,14.77-207.55,32.55-36.36,9.42-72.82,17.27-110.25,21.01-37.55,3.75-75.31,4.62-113.02,5.45-76.8,1.68-153.57,4.47-230.26,9.04-37.38,2.23-74.73,4.85-112.04,7.93s-72.01,6.94-108.16,7.19c-74.77.51-144.4-22.48-215.63-42.12-69.36-19.13-138.63-27.17-210.12-15.86-70.4,11.14-138.06,35-208.35,46.79s-147.6,12.45-221.22,6.95c-66.36-4.96-132.28-14.8-198.66-19.47-11.46-.81-22.94-1.38-34.44-1.4-1.93,0-1.93,3,0,3h0Z" style="fill: url(#linear-gradient-42);"/>
    <path d="m47.65,457.57c129.18,29.86,258.27,63.89,392.17,54.26,70.58-5.08,136.85-25.94,204.35-45.63,33.98-9.91,68.36-18.81,103.57-23.01,38.98-4.65,78.53-3.2,117.23,3.22,70.83,11.76,138.55,37.56,209.71,47.8,70.56,10.16,142.58,3.1,213.46.53,76.01-2.76,152.06-4.74,228.1-6.19,73.68-1.4,148.99,1.08,221.54-13.88,34.75-7.17,68.34-18.65,102.14-29.24,33.33-10.44,67.1-19.01,101.6-24.6,74.42-12.06,150.94-11.64,225.21,1.36,18.22,3.19,36.27,7.18,54.17,11.82,1.87.48,2.67-2.41.8-2.89-69.95-18.13-142.5-25.19-214.63-20.63-34.85,2.2-69.56,7.05-103.66,14.59-34.38,7.6-67.68,18.71-101.25,29.19s-70.6,19.9-107.25,24.2-74.99,5.31-112.55,5.95c-76.54,1.3-153.07,2.81-229.59,5.16s-146.95,8.64-220.15,6.49-143.95-24.29-215.46-41.74c-69.44-16.95-138.81-22.21-209.22-7.61-68.51,14.21-133.78,40.82-202.62,53.74-141.43,26.54-284.2-3.9-421.63-37.35-11.74-2.86-23.47-5.72-35.24-8.44-1.88-.43-2.68,2.46-.8,2.89h0Z" style="fill: url(#linear-gradient-43);"/>
    <path d="m50.11,408.29c119.21,52.86,248.86,93.33,380.64,87.74,71.41-3.03,137.43-24.4,204.41-47.59,32.54-11.26,65.34-22.17,99.17-28.88,38.03-7.55,76.87-9.07,115.44-5.37,75.33,7.22,147.32,33.3,221.81,45.4,71.09,11.55,143.77,8.9,215.54,8.9,77.29,0,154.59-.23,231.88-.81,72.56-.54,147.21,2.08,218.23-15.26,34.48-8.42,67.42-21.71,100.6-34.09,33.54-12.51,67.66-23,102.72-30.31,71.72-14.95,146.03-18,218.71-8.71,19.13,2.45,38.12,5.77,56.97,9.84,1.88.41,2.69-2.48.8-2.89-69.77-15.06-141.67-18.99-212.65-11.32-34.04,3.68-67.79,9.95-100.86,18.83s-66.39,21.76-99.2,33.99c-34.22,12.75-68.85,23.61-105.06,28.99-37.35,5.55-75.19,6.79-112.9,7.31-76.82,1.07-153.66,1.21-230.49,1.36-73.9.14-148.45,2.65-222.24-2-75.36-4.74-146.82-26.75-220.3-42.11-70.66-14.77-140.76-16.16-210.81,2.63-67.22,18.04-130.95,47.59-199.53,60.8-139.87,26.94-284.93-9.97-414.19-63.13-12.47-5.13-24.85-10.47-37.17-15.93-1.75-.78-3.28,1.81-1.51,2.59h0Z" style="fill: url(#linear-gradient-44);"/>
    <path d="m52.92,359.17c111.86,71.68,243.15,123.94,377.82,120.42,71.7-1.88,136.93-24.7,202.86-50.91,31.65-12.58,63.47-25.09,96.52-33.57,36.9-9.47,74.9-13.06,112.94-11.3,75.29,3.48,147.9,26.89,221.64,40.41,72.95,13.38,147.44,15.36,221.39,18.05,77.09,2.8,154.23,4.35,231.37,4.66,72.78.29,148.33,3.28,219.05-16.82,32.8-9.32,63.84-23.58,95-37.22,33.52-14.67,67.64-27.39,103.04-36.74,70.94-18.74,145.09-25.3,218.23-19.35,19.7,1.6,39.3,4.18,58.77,7.56,1.89.33,2.7-2.56.8-2.89-69.25-12.01-140.09-12.92-209.6-2.45-35.44,5.34-70.43,13.59-104.5,24.72-32.33,10.57-63.17,24.49-94.32,38.01-33.95,14.74-68.39,27.42-104.97,33.8-37.73,6.58-76.15,7.94-114.37,8.3-77.29.74-154.63-.39-231.9-2.47-73.96-1.99-148.49-3.31-222.13-10.83s-148.9-29.8-223.96-42.51c-70.35-11.91-139.46-9.17-207.49,13.06s-128.05,53.98-196.43,67.64c-142.6,28.49-291.33-19.64-413.97-91.13-11.58-6.75-22.99-13.78-34.27-21.01-1.63-1.04-3.14,1.55-1.51,2.59h0Z" style="fill: url(#linear-gradient-45);"/>
    <path d="m55.44,309.81c103.92,85.71,231.24,152.27,368.74,153.28,35.51.26,70.9-4.18,105.08-13.87,32.1-9.1,62.84-22.23,93.25-35.83,31.43-14.05,62.68-28.69,95.33-39.73,36.17-12.23,73.71-18.91,111.9-19.69,77.92-1.58,153.89,19.98,229.69,34.99,73.75,14.6,148.69,21.42,223.59,26.9,78.23,5.72,156.62,9.13,235.05,10.3,72.99,1.1,149.44,4.25,219.64-19.17,33.09-11.04,63.93-27.51,95.05-43.05,33.07-16.52,67.05-30.79,102.4-41.69,70.26-21.66,144.24-31.05,217.68-27.63,18.22.85,36.38,2.55,54.46,4.93,1.91.25,1.89-2.75,0-3-70.27-9.26-141.78-6.9-211.28,7.13-34.61,6.99-68.64,16.83-101.61,29.47-31.74,12.17-61.82,27.68-92.22,42.8-33.81,16.82-68.28,31.36-105.49,38.64s-75.79,8.79-113.87,9c-77.78.42-155.64-2.05-233.29-6.43-76.01-4.28-152.37-9.57-227.74-20.51-74.44-10.8-147.02-31.91-221.63-41.49-71.9-9.23-141.13-1.66-208.61,24.97-63.41,25.02-123.49,59.45-190.95,72.93-144.11,28.8-291.1-31.28-405.46-115.92-12.8-9.47-25.29-19.34-37.57-29.47-1.48-1.22-3.61.89-2.12,2.12h0Z" style="fill: url(#linear-gradient-46);"/>
    <path d="m58.25,260.69c96.65,96.32,217.02,178.02,357.39,185.35,35.04,1.83,70.38-1.34,104.29-10.48s63.27-22.48,93.37-37.26c31.82-15.62,63.07-32.54,95.88-46.05,35.44-14.59,72.44-24.03,110.69-27.11,78.55-6.32,156.3,12.19,232.64,28.14,75.22,15.72,151.04,27.6,227.41,36.04,79.29,8.76,158.96,14.11,238.71,16.15,73.79,1.89,151.66,5.05,221.61-22.46,32.4-12.74,62.19-30.9,92.43-47.93,32.11-18.08,65.36-33.79,100.08-46.21,69.34-24.81,143.03-37.37,216.68-36.83,17.76.13,35.49,1.08,53.18,2.69,1.92.17,1.91-2.83,0-3-70.09-6.38-140.96-1.09-209.3,15.77-33.65,8.3-66.61,19.37-98.44,33.1-32.3,13.93-62.55,31.38-93.13,48.64-32.63,18.42-66.07,34.9-102.78,43.41-37.46,8.68-76.12,10.55-114.45,10.7-78.74.3-157.63-3.61-236.07-10.32s-156.45-16.42-233.78-30.53c-74.97-13.68-149.19-34.18-225.37-40.13-36.4-2.84-73.17-1.78-109.09,5.1-33.15,6.35-64.7,18.05-95.27,32.16-63.97,29.51-124.91,67.72-195.49,79.49-147.35,24.58-289.11-51.46-394.79-147.78-11.69-10.65-23.08-21.62-34.28-32.78-1.37-1.36-3.49.76-2.12,2.12h0Z" style="fill: url(#linear-gradient-47);"/>
    <path d="m61.06,211.57c90.62,104.9,203.36,202.41,346.97,216.81,34.93,3.5,70.48,1.58,104.56-7,32.41-8.16,62.95-22.17,92.39-37.74,63.79-33.75,123.97-72.9,196.47-85.09,82.04-13.8,165.3,2.02,245.54,19.28,78.02,16.78,155.81,34.06,234.84,45.56,78.13,11.37,156.86,18.5,235.75,21.4,72.69,2.67,149.97,5.9,218.32-23.21,33.69-14.35,63.94-35.22,94.79-54.66,31.43-19.81,64.21-37.18,98.6-51.27,67.95-27.84,140.85-43.61,214.25-46.21,18.13-.64,36.26-.43,54.38.49,1.93.1,1.92-2.9,0-3-70.67-3.59-141.68,4.76-209.55,24.79-33.53,9.9-66.24,22.6-97.65,37.98-31.83,15.58-61.38,34.68-91.28,53.59-31.71,20.06-64.38,38.32-100.93,47.89s-76.97,11.98-115.8,11.97c-79.1,0-158.39-5.33-236.95-14.41-79.48-9.19-158.01-23.48-236.18-40.35-76.71-16.55-153.99-36.33-232.87-37.98-36.77-.77-73.73,2.85-109.27,12.51-32.93,8.94-63.85,23.4-93.83,39.49-61.87,33.2-121.88,72.55-192.96,82.05-150.72,20.15-285.32-71.91-383.28-176.79-11.67-12.49-23.02-25.27-34.19-38.2-1.26-1.46-3.38.67-2.12,2.12h0Z" style="fill: url(#linear-gradient-48);"/>
    <path d="m63.65,162.14c85.24,111.52,189.65,224.71,335.43,247.66,33,5.19,66.85,5.24,99.66-1.29s64.47-20.36,94.06-36.65c63.76-35.11,121.72-80.44,193.51-98.51,77.9-19.62,159.46-10.64,237.18,5.14,79.04,16.06,156.46,39.08,235.65,54.51,80.71,15.73,162.51,25.9,244.62,30.4,73.52,4.03,153.38,8.95,222.61-20.86,34.31-14.78,64.39-37.27,94.7-58.73,30.25-21.42,61.63-40.83,95.02-56.99,69.27-33.52,144.89-54.04,221.62-59.99,18.49-1.43,37.02-1.97,55.56-1.76,1.93.02,1.93-2.98,0-3-73.13-.83-146.12,11.2-215.08,35.61-33.32,11.79-65.66,26.4-96.49,43.7-32.28,18.1-61.79,40.05-92.16,61.06-30.97,21.42-63.3,39.98-100.03,49.47s-77.65,11.41-116.75,10.92c-82.85-1.02-165.77-8.43-247.6-21.26-79.51-12.46-157.08-32.25-235.2-51.16-74.25-17.98-150.54-34.17-227.38-30.86-36.16,1.56-72.18,7.69-106.37,19.72-32.31,11.38-62.29,28.14-91.48,45.86-61.02,37.05-121.3,78.02-194.47,84.42-152.5,13.33-277.84-93.2-368.24-203.54-12.21-14.9-24.07-30.08-35.77-45.39-1.16-1.51-3.76-.02-2.59,1.51h0Z" style="fill: url(#linear-gradient-49);"/>
  </g>
</svg>