<?xml version="1.0" encoding="UTF-8"?>
<svg id="Layer_1" data-name="Layer 1" xmlns="http://www.w3.org/2000/svg" xmlns:xlink="http://www.w3.org/1999/xlink" viewBox="0 0 2149.66 714.83">
  <defs>
    <linearGradient id="linear-gradient" x1="0" y1="528.68" x2="2147.01" y2="528.68" gradientUnits="userSpaceOnUse">
      <stop offset="0" stop-color="#3476b6"/>
      <stop offset="1" stop-color="#bfe2f2"/>
    </linearGradient>
    <linearGradient id="linear-gradient-2" x1="3.94" y1="518.83" x2="2143.74" y2="518.83" xlink:href="#linear-gradient"/>
    <linearGradient id="linear-gradient-3" x1="7.89" y1="502.5" x2="2140.47" y2="502.5" xlink:href="#linear-gradient"/>
    <linearGradient id="linear-gradient-4" x1="11.84" y1="486.46" x2="2137.21" y2="486.46" xlink:href="#linear-gradient"/>
    <linearGradient id="linear-gradient-5" x1="15.78" y1="470.4" x2="2133.94" y2="470.4" xlink:href="#linear-gradient"/>
    <linearGradient id="linear-gradient-6" x1="19.73" y1="454.72" x2="2130.68" y2="454.72" xlink:href="#linear-gradient"/>
    <linearGradient id="linear-gradient-7" x1="23.69" y1="440.19" x2="2127.42" y2="440.19" xlink:href="#linear-gradient"/>
    <linearGradient id="linear-gradient-8" x1="27.64" y1="426.89" x2="2124.16" y2="426.89" xlink:href="#linear-gradient"/>
    <linearGradient id="linear-gradient-9" x1="31.39" y1="413.84" x2="2120.7" y2="413.84" xlink:href="#linear-gradient"/>
    <linearGradient id="linear-gradient-10" x1="35.34" y1="400.69" x2="2117.44" y2="400.69" xlink:href="#linear-gradient"/>
    <linearGradient id="linear-gradient-11" x1="39.29" y1="388.44" x2="2114.19" y2="388.44" xlink:href="#linear-gradient"/>
    <linearGradient id="linear-gradient-12" x1="43.25" y1="376.42" x2="2110.94" y2="376.42" xlink:href="#linear-gradient"/>
    <linearGradient id="linear-gradient-13" x1="41.63" y1="365.1" x2="2113.58" y2="365.1" xlink:href="#linear-gradient"/>
    <linearGradient id="linear-gradient-14" x1="40.01" y1="353.75" x2="2116.22" y2="353.75" xlink:href="#linear-gradient"/>
    <linearGradient id="linear-gradient-15" x1="38.4" y1="342.47" x2="2118.87" y2="342.47" xlink:href="#linear-gradient"/>
    <linearGradient id="linear-gradient-16" x1="36.78" y1="331.26" x2="2121.51" y2="331.26" xlink:href="#linear-gradient"/>
    <linearGradient id="linear-gradient-17" x1="35.17" y1="320.17" x2="2124.16" y2="320.17" xlink:href="#linear-gradient"/>
    <linearGradient id="linear-gradient-18" x1="33.55" y1="309.13" x2="2126.81" y2="309.13" xlink:href="#linear-gradient"/>
    <linearGradient id="linear-gradient-19" x1="31.93" y1="298.21" x2="2129.45" y2="298.21" xlink:href="#linear-gradient"/>
    <linearGradient id="linear-gradient-20" x1="30.32" y1="287.39" x2="2132.1" y2="287.39" xlink:href="#linear-gradient"/>
    <linearGradient id="linear-gradient-21" x1="28.7" y1="270.65" x2="2134.74" y2="270.65" xlink:href="#linear-gradient"/>
    <linearGradient id="linear-gradient-22" x1="27.08" y1="252.54" x2="2137.39" y2="252.54" xlink:href="#linear-gradient"/>
    <linearGradient id="linear-gradient-23" x1="25.47" y1="234.47" x2="2140.04" y2="234.47" xlink:href="#linear-gradient"/>
    <linearGradient id="linear-gradient-24" x1="30.98" y1="224.42" x2="2137.01" y2="224.42" xlink:href="#linear-gradient"/>
    <linearGradient id="linear-gradient-25" x1="36.29" y1="214.44" x2="2133.76" y2="214.44" xlink:href="#linear-gradient"/>
    <linearGradient id="linear-gradient-26" x1="41.6" y1="205.19" x2="2130.53" y2="205.19" xlink:href="#linear-gradient"/>
    <linearGradient id="linear-gradient-27" x1="46.92" y1="196.28" x2="2127.3" y2="196.28" xlink:href="#linear-gradient"/>
    <linearGradient id="linear-gradient-28" x1="52.25" y1="188.01" x2="2124.08" y2="188.01" xlink:href="#linear-gradient"/>
    <linearGradient id="linear-gradient-29" x1="57.73" y1="181.72" x2="2121.01" y2="181.72" xlink:href="#linear-gradient"/>
    <linearGradient id="linear-gradient-30" x1="63.06" y1="182.87" x2="2117.78" y2="182.87" xlink:href="#linear-gradient"/>
    <linearGradient id="linear-gradient-31" x1="68.39" y1="185.63" x2="2114.57" y2="185.63" xlink:href="#linear-gradient"/>
    <linearGradient id="linear-gradient-32" x1="73.73" y1="189.31" x2="2111.36" y2="189.31" xlink:href="#linear-gradient"/>
    <linearGradient id="linear-gradient-33" x1="79.07" y1="193.47" x2="2108.16" y2="193.47" xlink:href="#linear-gradient"/>
    <linearGradient id="linear-gradient-34" x1="84.42" y1="198.07" x2="2105" y2="198.07" xlink:href="#linear-gradient"/>
  </defs>
  <path d="m2148.57,389.4c-82.5-12.56-167.24-21.11-249.92-5.17-72.96,14.07-140.69,46.6-203.91,84.76-132.03,79.69-251.5,188.18-403.63,228.75-76.44,20.39-154.81,17.81-229.62-7.97-72.56-25-137.95-67.17-199.49-112.27-118.53-86.85-233.06-194.99-381.28-226.76-31.97-6.85-70.3-14.16-101.39-.49-33.3,14.65-52.24,48.76-87.85,60.16-36.73,11.76-79.58,8.69-117.31,3.89-39.89-5.07-79.11-15.34-116.33-30.58-19.15-7.84-37.67-17.05-55.59-27.37-1.68-.96-3.19,1.63-1.51,2.59,66.46,38.25,141.96,59.85,218.67,61.76,35.25.88,73.02-.95,102.61-22.37,12.9-9.34,23.75-21.1,36.12-31.07,17-13.72,35.61-20.74,57.55-21.25,37.66-.87,76.71,8.88,112.14,20.93,36.59,12.45,71.47,29.49,104.81,48.96,65.65,38.34,125.1,85.9,185.25,132.12,116.86,89.8,250.7,180.03,405.31,165.19,154-14.79,281-114.6,404.92-197.87,63.88-42.92,130.24-83.99,203.22-109.61,80.52-28.27,164.67-31.28,248.91-22.37,22.59,2.39,45.1,5.52,67.55,8.94,1.89.29,2.7-2.6.8-2.89h0Z" style="fill: url(#linear-gradient);"/>
  <path d="m2145.29,383.17c-77.62-10.89-156.68-18.63-234.68-6.88-73.39,11.05-142.33,40.17-206.94,75.82-136.68,75.41-259.08,181.37-412.24,223.26-74.94,20.5-154.95,24.53-230.74,6.12-71.68-17.41-137.8-52.19-199.61-91.67-125.61-80.23-241.24-189.23-388.16-229.31-31.89-8.7-71.25-18.7-103.75-7.74-31.47,10.61-51.12,40.61-83.48,50.01-37.55,10.91-81.6,5.3-119.47-1.32-38.12-6.67-75.43-18.1-110.74-33.93-16.94-7.59-33.35-16.24-49.29-25.73-1.66-.99-3.17,1.6-1.51,2.59,63.22,37.64,134.77,60.65,208.24,65.77,33.65,2.34,70.07,2.57,99.5-16.24,13.67-8.73,25.31-20.24,38.94-29.01,17.21-11.07,36.19-14.46,56.43-13.22,76.9,4.7,150.98,41.15,215.83,80.25,67.34,40.6,129.71,88.53,194.49,132.96,58.51,40.12,119.74,77.55,186.46,102.41,69.44,25.88,142.59,34.4,216.16,25.2,157.11-19.66,285.3-115.77,415.79-197.18,64.31-40.12,131.29-77.62,204.1-99.94,77.57-23.78,158.16-25.39,238.35-17.38,21.9,2.19,43.73,5,65.53,8.06,1.89.27,2.7-2.63.8-2.89h0Z" style="fill: url(#linear-gradient-2);"/>
  <path d="m2141.61,376.88c-78.18-10.08-157.64-17.33-236.07-5.62-72.52,10.83-141.03,38.29-205.72,72.07-135.45,70.74-258.18,170.31-407.64,211.31-75.11,20.6-157.01,26.56-234.14,14.61-70.95-11-138.02-38.78-200.79-72.88-65.4-35.53-126.6-78.14-189.13-118.36-63.36-40.76-128.58-81.57-200.32-105.94-31.35-10.65-68.39-22.35-101.89-17.71s-54.86,33.41-86.75,41.29c-35.98,8.9-77.19,1.74-112.83-5.71-37.07-7.75-73.21-19.92-107.44-36.12-16.77-7.93-33.01-16.86-48.79-26.6-1.65-1.02-3.16,1.58-1.51,2.59,61.19,37.76,130.26,62.3,201.81,70.16,32.97,3.62,67.25,4.68,96.68-12.82,14.22-8.46,27.09-19.47,42.64-25.54,18.98-7.4,39.8-5.52,59.4-1.93,76.68,14.08,146.27,52,212.04,92.3,65.05,39.87,127.39,84.03,192.9,123.16,60.54,36.16,124.46,68.13,192.86,86.36,70.07,18.67,144.32,20.5,215.95,10.49,154.94-21.66,283.09-113.45,414.79-190.61,64.48-37.78,131.53-72.67,203.72-93.17,78.46-22.28,159.59-23.08,240.24-15.26,20.04,1.94,40.02,4.35,59.98,6.92,1.91.25,1.89-2.76,0-3h0Z" style="fill: url(#linear-gradient-3);"/>
  <path d="m2138.33,370.65c-76.8-9.08-154.67-15.85-231.69-5.31-71.76,9.82-139.95,35.04-204.75,66.74-136.06,66.58-259.6,161.4-407.04,202.97-74.38,20.97-151.93,24.25-228.73,19.8-73.22-4.24-144.11-25.46-210.87-55.07-65.86-29.2-127.74-66.27-189.37-103.36-64.53-38.83-128.74-80.35-198.41-109.52-31.84-13.33-67.08-26.42-101.86-28.47-15.31-.9-29.52,2.12-43.34,8.68-14.79,7.02-28.37,16.43-44.42,20.55-35.62,9.15-76.64-.32-111.52-8.98-36.58-9.08-72.12-22.35-105.76-39.36-15.98-8.08-31.46-17.03-46.53-26.69-1.63-1.04-3.14,1.55-1.51,2.59,60.06,38.48,127.85,64.92,198.52,75.35,32.4,4.78,63.07,5.29,92.62-10.27,16.28-8.57,31.79-17.78,50.64-18.94s38.03,3.72,56.13,8.73c75,20.77,142.42,62.06,208.65,101.69,63.57,38.04,126.45,77.6,192.76,110.78,62.55,31.29,128.56,56.99,197.75,68.8s147.62,11.84,219.02,1.04c151.32-22.89,279.29-111.65,410.4-184.04,64.77-35.77,132.01-68.4,203.84-87.29,77.03-20.25,156.36-20.85,235.24-13.83,20.11,1.79,40.18,4.02,60.23,6.39,1.91.23,1.9-2.78,0-3h0Z" style="fill: url(#linear-gradient-4);"/>
  <path d="m2135.05,364.41c-76.57-8.26-154.1-14.63-230.82-4.49-69.76,9.22-136.43,32.23-200.15,61.54-136.1,62.61-259.98,152.69-405.05,194.96-73.33,21.37-148.27,24.7-224.17,21.65-37.78-1.52-75.34-3.67-112.63-10.28-35.25-6.25-69.93-15.49-103.84-26.93-67.98-22.94-132.52-54.65-195.54-88.69-67.26-36.33-132.07-77.84-200.99-110.98-31.06-14.93-63.86-28.77-97.74-35.8-15.1-3.13-30.31-4.02-45.32.01s-28.85,11.89-44.08,15.49c-35.55,8.42-76.17-3.53-110.3-13.66-34.8-10.34-68.5-24.31-100.48-41.48-15.77-8.47-31.07-17.75-45.96-27.68-1.61-1.07-3.11,1.52-1.51,2.59,58.53,39.02,124.42,67.39,193.56,80.9,16.18,3.16,32.86,5.66,49.39,4.57,15.22-1,28.84-6.22,42.87-11.81,18.18-7.25,35.6-10.45,55.14-7.17,18.04,3.02,35.75,8.96,52.89,15.25,72.24,26.54,137.69,69.25,204.53,106.73,62.89,35.26,126.69,69.4,193.64,96.4,64.84,26.15,132.75,45.34,202.52,51.88,72.85,6.83,148.95,8.93,221.37-2.73,148.56-23.93,276.56-109.73,407.41-178.12,65.16-34.06,132.7-64.85,204.37-82.35,76.72-18.73,155.39-18.95,233.67-12.4,19.1,1.6,38.17,3.55,57.23,5.61,1.92.21,1.9-2.79,0-3h0Z" style="fill: url(#linear-gradient-5);"/>
  <path d="m2131.77,358.18c-75.69-7.43-152.23-13.36-228.03-3.94-69.63,8.66-136.43,30.47-200.52,58.49-135.52,59.25-259.53,144.69-402.33,186.93-72.06,21.32-144.76,25.99-219.5,22.31-73.77-3.63-147.03-7.9-219.13-25.01-68.52-16.26-134.78-40.95-198.74-70.24-68.48-31.36-132.95-69.44-198.96-105.49-31.51-17.21-63.82-33.26-97.8-45.03-15.33-5.32-31.47-10.14-47.86-9.96-14.94.16-29.02,5.06-43.49,8.13-36.12,7.65-74.47-5.2-108.45-16.85s-67.37-26.83-98.83-44.76c-15.85-9.04-31.23-18.84-46.21-29.25-1.59-1.1-3.09,1.49-1.51,2.59,57.57,40.02,122.47,71.1,190.78,87.62,15.86,3.84,32.47,6.93,48.86,5.88,15.33-.97,29.7-6.44,44.74-8.99,37.89-6.43,78.78,13.77,112.13,29.55,68.49,32.42,132.27,74.03,200.16,107.73,61.8,30.68,125.58,57.78,191.69,77.75,68.02,20.55,136.93,31.41,207.74,35.57,73.11,4.29,146.38,9.93,219-2.9,145.62-25.72,272.59-106.92,402.91-171.8,65.16-32.44,132.55-61.62,203.66-78.23,76.35-17.83,154.42-18.14,232.22-12.22,19.18,1.46,38.33,3.25,57.47,5.13,1.92.19,1.91-2.81,0-3h0Z" style="fill: url(#linear-gradient-6);"/>
  <path d="m2128.49,351.94c-75.22-6.68-151.18-12.19-226.46-3.23-70.14,8.35-137.68,29.57-202.61,56.88-134.07,56.38-257.7,137.06-397.88,178.76-70.85,21.08-142.23,27.92-215.87,23.21-37.12-2.37-74.12-6.39-111.25-8.65-37.34-2.27-74.46-5.5-111.45-11.19-69-10.62-136.9-28.11-202.5-51.95-70.38-25.58-136.05-59.47-200.68-97-31.67-18.39-63.48-36.72-97.03-51.5-15.03-6.62-30.46-13.11-46.63-16.33-14.99-2.98-29.74-1.5-44.82-.23-36.53,3.08-71.36-9.81-104.74-23.29-33.57-13.56-65.97-30.05-96.8-49.02-15.02-9.24-29.63-19.1-43.89-29.47-1.56-1.14-3.06,1.47-1.51,2.59,56.22,40.85,119.38,74.73,186.12,94.77,15.76,4.73,32.03,8.4,48.58,8.12,15.92-.27,31.67-3.56,47.62-1.92,20.23,2.07,39.75,10.7,58.1,18.94,16.57,7.44,32.74,15.74,48.67,24.45,64.9,35.47,127.18,74.14,195.56,102.93,63.85,26.88,130.27,47.7,198.09,61.84,34.34,7.16,69.03,12.61,103.91,16.34,36.69,3.93,73.59,5.36,110.36,8.46,72.14,6.08,143.44,11.29,215.13-2.13,144.2-26.99,271.15-104.88,401.93-166.99,65.87-31.29,133.89-59.19,205.35-74.77,74.76-16.3,151.03-16.52,227.04-11.27,19.25,1.33,38.48,2.97,57.7,4.67,1.92.17,1.91-2.83,0-3h0Z" style="fill: url(#linear-gradient-7);"/>
  <path d="m2125.21,345.71c-74.26-5.93-149.16-11.02-223.45-2.69-70.67,7.92-138.94,28.45-204.69,55.05-134.79,54.51-259.79,132.59-400.07,173.45-70.01,20.39-141.19,28.8-213.94,23.01-36.27-2.89-72.32-7.98-108.52-11.58-36.61-3.64-73.4-4.92-110.05-8.15-71.78-6.32-143.4-16.9-213.08-35.54-71.48-19.12-138.59-47.81-202.14-85.64-30.67-18.27-60.78-37.54-92.3-54.35-29-15.47-56.89-27.51-89.92-30.2-36.84-3-69.34-16.05-102.44-31.91-31.7-15.18-62.32-32.6-91.62-52-14.75-9.76-29.12-20.05-43.19-30.77-1.54-1.17-3.03,1.43-1.51,2.59,55.18,42.03,116.69,79.12,181.99,103.13,14.42,5.3,29.09,9.25,44.39,10.89,18.05,1.93,35.77,2.68,53.09,8.72,33.94,11.83,65.6,31.57,96.24,50.04s63.07,38.89,96.1,55.68c31.43,15.99,64.09,29.5,97.5,40.76,66.2,22.33,135.04,36.08,204.25,44.91,72.56,9.25,145.69,11.47,218.33,19.91,36.54,4.24,73.17,8.47,110,8.71,34.52.23,68.95-3.22,102.86-9.63,143.65-27.18,271.26-102.28,402.72-162.25,66.36-30.27,134.77-57.21,206.36-72.19s150.51-15.83,226.24-11.08c18.97,1.19,37.92,2.65,56.87,4.16,1.92.15,1.91-2.85,0-3h0Z" style="fill: url(#linear-gradient-8);"/>
  <path d="m2121.93,339.47c-74.57-5.32-149.74-10.04-224.28-1.73-69.86,7.79-137.54,27.53-202.88,52.98-134.99,52.59-260.74,127.94-400.53,168.23-69.41,20.01-141.08,30.2-213.29,24.1-37.55-3.18-74.7-9.67-111.99-14.91s-71.2-7.49-107.11-9.34c-144.32-7.44-293.18-14.01-421.05-88.95-29.86-17.5-58.35-37.18-87.62-55.63-27.35-17.25-55.22-34.35-86.5-43.37-15.57-4.49-31.23-8.21-46.27-14.37-17.81-7.3-34.86-16.44-51.67-25.79-30.82-17.14-60.67-36-89.42-56.43-15.44-10.97-30.52-22.41-45.3-34.25-1.49-1.2-3.63.91-2.12,2.12,54.62,43.74,114.54,84.55,178.56,113.3,31.06,13.94,64.97,18.54,95.28,34.41,30.11,15.77,58.36,34.92,86.82,53.41,30,19.49,60.39,38.52,92.95,53.51,30.75,14.16,62.9,25.08,95.71,33.35,68.73,17.31,139.71,23.61,210.27,27.89,37.65,2.28,75.36,3.64,112.99,6.11s75.47,8.7,113.06,14.2c35.33,5.17,70.84,9.59,106.6,9.7,34.36.11,68.67-3.52,102.43-9.8,143.73-26.77,272.44-99.53,404.8-157.84,66.61-29.34,135.12-55.44,206.59-70.14,74.79-15.39,150.91-15.77,226.86-11.51,19.04,1.07,38.07,2.39,57.1,3.74,1.93.14,1.92-2.86,0-3h0Z" style="fill: url(#linear-gradient-9);"/>
  <path d="m2118.65,333.24c-74.87-4.73-150.29-9.1-225.08-.79-69.72,7.75-137.39,27.05-202.86,51.79-135.39,51.16-262.12,124.21-401.95,163.67-69.91,19.73-142.69,30.65-215.37,24.39-72.26-6.23-142.38-27.02-214.98-30.71-142.59-7.24-296.99,15.31-427.37-56.44-60.02-33.03-110.52-81.48-172.1-111.75-31.03-15.25-60.85-30.76-89.79-49.81-30.73-20.22-60.64-41.69-89.63-64.34-14.08-11-27.91-22.29-41.56-33.81-1.47-1.24-3.6.87-2.12,2.12,53.86,45.51,111.28,89.16,172.71,124.02,29.84,16.93,61.56,29.41,90.34,48.35,28.7,18.89,56.04,39.74,84.44,59.07,27.88,18.97,56.9,36.11,88.3,48.61s67.22,21.28,102.09,26.29c70.72,10.15,142.44,8.14,213.67,8.79,37.63.34,75.44.88,112.83,5.46,37.12,4.55,73.73,12.32,110.57,18.64,70.1,12.04,139.29,13.21,209.4.29,143.91-26.52,273.64-97.11,406.92-153.94,67.02-28.58,135.83-54.01,207.43-68.44,74.79-15.08,150.88-15.57,226.8-11.8,19.12.95,38.22,2.13,57.32,3.34,1.93.12,1.92-2.88,0-3h0Z" style="fill: url(#linear-gradient-10);"/>
  <path d="m2115.37,327.01c-73.9-4.09-148.25-8.01-222.06-.28-70.28,7.36-138.62,26.24-204.84,50.47-136.08,49.8-263.91,120.99-404.01,159.94-70.44,19.58-143.8,30.92-217,25.34-72.26-5.51-141.44-29.46-213.33-37.42-142.2-15.75-296.08,39.59-431.27-24.59-62.44-29.64-111.81-80.36-167.58-120.11-58.99-42.05-116.22-85.4-171.27-132.57-14.17-12.15-28.2-24.46-42.11-36.91-1.43-1.28-3.56.83-2.12,2.12,53.66,48.03,109.01,94.94,167.36,137.21,29.96,21.7,60.46,42.3,89.46,65.34,25.86,20.54,51.15,41.92,78.47,60.54,28.23,19.24,58.59,34.56,91.49,44.02,32.77,9.42,66.82,13.23,100.83,14.22,72.73,2.12,145.08-8.38,217.75-9.17,38.09-.41,75.58,2.65,113.05,9.59s71.22,15.55,107.06,22.24c70.15,13.1,140.62,12.27,210.73-.76,145.14-26.98,276.61-96.6,411.93-152.19,66.65-27.38,134.97-51.62,205.85-65.38,74.24-14.41,149.77-14.84,225.06-11.55,18.86.83,37.71,1.86,56.56,2.9,1.93.11,1.92-2.89,0-3h0Z" style="fill: url(#linear-gradient-11);"/>
  <path d="m2112.09,320.77c-76.88-3.68-154.24-7.38-230.92,1.51-70.43,8.16-138.93,27.59-205.42,51.78-137.3,49.96-267.25,119.75-409.27,156.5-71.39,18.47-145.59,28.43-219.31,21.53-73.54-6.89-143.05-33.87-215.94-44.33-66.46-9.53-132.43.69-198.2,10.53-66.72,9.99-136.85,20.18-202.92.88-70.15-20.49-122.1-75.84-174.05-124.19-56.66-52.74-112.84-106-168.92-159.36-13.77-13.11-27.54-26.22-41.31-39.33-1.4-1.33-3.52.79-2.12,2.12,57.04,54.32,114.08,108.64,171.53,162.52,27.79,26.06,55.61,52.11,83.72,77.83,24.52,22.43,49.85,44.48,78.73,61.18,120.73,69.79,262.5,8.36,391.09,6.71,74.87-.96,145.24,23.83,217.65,39.02,69.9,14.66,140.94,14.46,211.27,2.71,146.7-24.5,280.38-92.35,416.99-147.57,67.01-27.09,135.5-51.45,206.47-65.9,76.51-15.58,154.37-16.63,232.12-13.75,19.61.73,39.21,1.66,58.81,2.6,1.93.09,1.93-2.91,0-3h0Z" style="fill: url(#linear-gradient-12);"/>
  <path d="m2114.73,299.3c-73.61-4.6-147.77-7.23-221.18,1.59-69.15,8.31-136.27,27.62-201.45,51.74-135.61,50.18-263.94,119.15-403.85,157.68-69.49,19.14-141.7,31-213.95,27.7-74.59-3.41-144.7-28.08-217.4-42.32-71.86-14.07-143.51-8-215.88-2.04-71.86,5.92-146.2,10.16-215.34-14.37-66.62-23.64-121.64-73.75-176.33-116.85-56.27-44.34-112.16-89.23-165.63-136.95-13.34-11.9-26.5-23.99-39.51-36.25-1.4-1.32-3.53.79-2.12,2.12,52.89,49.84,108.71,96.4,165.48,141.75,28.27,22.58,56.73,44.92,85.27,67.16,25.78,20.08,51.56,40.43,79.72,57.11,60.72,35.98,129.36,45.68,198.98,43.63,73.23-2.16,146.11-14.8,219.51-10.78,75.13,4.11,146.07,31.02,219.74,43.8,69.66,12.08,140.69,8.47,209.91-4.77,143.96-27.55,275.45-93.96,409.93-149.29,66.87-27.51,135.25-52.33,206.23-66.85,72.91-14.92,147.38-16.78,221.53-13.8,18.79.76,37.57,1.81,56.34,2.99,1.93.12,1.92-2.88,0-3h0Z" style="fill: url(#linear-gradient-13);"/>
  <path d="m2117.37,277.82c-72.37-5.61-145.4-7.29-217.52,2.3s-137.42,29.97-203.01,55.29c-134.62,51.97-262.64,120.5-402.38,158.82-68.98,18.91-140.66,30.95-212.38,28.36-74.83-2.7-145.1-26.53-217.66-42.19-141.42-30.51-290.31,11.06-429.02-36.25-66.66-22.74-125.54-66.37-183.9-104.71s-116.15-77.57-169.63-122.49c-13.39-11.25-26.47-22.85-39.26-34.78-1.41-1.32-3.54.8-2.12,2.12,50.36,46.98,105.72,88.02,162.68,126.59,29.75,20.15,59.87,39.75,90.04,59.27,28.63,18.52,57.1,37.48,87.31,53.36,61.95,32.56,130.21,44.93,199.62,47.37,73,2.56,146.18-4.45,219.05,2.33s145.27,33.83,218.99,45.94c69.25,11.37,139.72,7.24,208.41-5.93,142.76-27.38,273.56-92.02,406.28-148.49,66.77-28.41,134.9-54.63,205.84-70.62,73.76-16.62,149.42-19.96,224.76-16.63,17.98.8,35.95,1.97,53.89,3.36,1.93.15,1.92-2.85,0-3h0Z" style="fill: url(#linear-gradient-14);"/>
  <path d="m2120.01,256.35c-71.15-6.6-143.05-7.35-213.9,2.94-71.19,10.34-139.77,32.82-206.29,59.66-132.32,53.4-258.92,120.56-397.09,158.63-69.97,19.28-142.82,31.91-215.6,29.62-74.11-2.33-143.57-25.23-215.01-42.37-141.2-33.89-289.77-10.81-429.06-56.3-67.76-22.13-130.95-59.45-193.49-93.1-58.88-31.69-117.05-65.27-169.57-106.9-13.43-10.64-26.42-21.81-39.01-33.43-1.42-1.31-3.54.81-2.12,2.12,49.4,45.63,105.57,82.75,163.92,115.88,59.8,33.95,120.91,67.54,183.46,96.17,64.35,29.46,133.17,44.03,203.37,50.8,74.3,7.17,149.29,5.63,223.27,16.34,71.74,10.38,139.94,36.54,211.52,47.8,70.2,11.04,141.49,6.09,210.97-7.56,141.33-27.77,271.26-90.71,402.22-148.12,66.25-29.04,133.68-56.35,204.1-73.59s148.76-22.91,223.95-19.43c18.15.84,36.27,2.18,54.37,3.86,1.92.18,1.91-2.82,0-3h0Z" style="fill: url(#linear-gradient-15);"/>
  <path d="m2122.65,234.87c-71.24-7.71-143.42-7.47-214.23,4.17-69.82,11.48-136.88,34.79-201.97,62.05-132.63,55.53-260.02,122.92-399.41,160.95-70.14,19.14-143.29,32.04-216.23,29.88-73.61-2.17-142.21-24.69-212.67-43.49-69.43-18.52-140.82-25.41-211.98-33.75-74.53-8.73-149.43-20.85-221.21-43.26-67.03-20.92-132.18-50.04-196.61-77.78-58.74-25.3-116.6-53.68-168.15-91.9-14.2-10.52-27.79-21.79-40.82-33.72-1.42-1.3-3.55.81-2.12,2.12,47.99,43.92,104.02,77.23,162.62,104.97,60.81,28.79,123.67,54.2,186.34,78.64,68.87,26.86,140.53,43.78,213.51,55.06,72.91,11.26,146.76,15.71,219.32,29.29,70.85,13.26,138.38,39.95,209.7,51.01,70.13,10.88,141.23,5.51,210.6-8.06,142-27.79,272.87-90,403.85-149.06,66.08-29.79,133.17-58.28,203.44-76.69,72.41-18.97,147.4-25.41,222.09-21.74,18.02.89,36,2.38,53.93,4.32,1.92.21,1.9-2.79,0-3h0Z" style="fill: url(#linear-gradient-16);"/>
  <path d="m2125.3,213.4c-70.66-8.76-142.45-7.58-212.57,5.1-68.64,12.41-134.37,36.46-198.21,64.09-132.88,57.52-260.89,125.14-401.33,163.42-69.58,18.96-142.19,32.29-214.55,30.91-37.46-.71-74.67-6.06-111.07-14.85s-69.68-20.51-104.49-30.86c-70.72-21.02-143.64-32.35-216.04-45.8-71.51-13.29-142.95-29.13-213.11-48.37-68.03-18.66-135.75-40.11-202.7-62.3-60.57-20.08-120.39-44.46-172.9-81.29-14.21-9.97-27.72-20.84-40.58-32.49-1.43-1.29-3.56.82-2.12,2.12,98.02,88.87,231.59,120.23,354.63,158.32,70.84,21.93,142.87,39.44,215.39,54.83,72.28,15.34,145.57,25.65,217.56,42.34,71.22,16.51,139.37,45,211.89,55.92,70,10.54,140.92,4.35,210.06-9.33,141.62-28.03,272.63-88.91,402.76-149.24,66.2-30.69,133.22-60.54,203.65-80.23,71.56-20,146.04-27.91,220.22-24.05,17.89.93,35.72,2.57,53.49,4.78,1.91.24,1.89-2.77,0-3h0Z" style="fill: url(#linear-gradient-17);"/>
  <path d="m2128.34,191.97c-68.92-9.65-139.06-7.85-207.42,5.22-69.37,13.27-135.52,38.67-199.77,67.49-66.02,29.62-130.54,62.45-196.89,91.37-67.21,29.31-136.03,55.28-206.86,74.45-70.91,19.19-145.16,33.23-218.89,31.37-36.44-.92-72.68-6.21-107.95-15.38-34.98-9.09-68.78-22.03-103.06-33.39-71.43-23.67-144.95-39.87-217.8-58.36-70.87-17.99-141.44-36.64-212.68-53.16-69.42-16.1-139.54-29.53-208.71-46.61-60.39-14.91-120.3-35.36-172.36-70.12-14.01-9.36-27.26-19.73-39.79-30.99-1.43-1.29-3.56.83-2.12,2.12,98.61,88.63,233.7,105.55,357.98,133.7,71.73,16.25,143.35,32.9,214.46,51.67s145.07,35.45,216.98,55.49c70.31,19.59,138.08,50.01,210.36,61.89,69.74,11.47,140.37,5.35,209.4-7.92,142.73-27.45,275.43-87.07,405.86-149.22,66.35-31.62,133.21-63.04,203.69-84.42,70.58-21.41,144.45-31.27,218.17-27.7,18.95.92,37.82,2.76,56.6,5.39,1.89.26,2.7-2.63.8-2.89h0Z" style="fill: url(#linear-gradient-18);"/>
  <path d="m2130.98,170.5c-70.2-10.97-141.89-7.83-211.25,7.25-69.31,15.07-135.1,42.33-199.1,72.38-65.69,30.84-130.18,64.13-196.81,92.97-67.37,29.16-136.49,54.57-207.51,73.34-69.96,18.5-143.2,32.58-215.84,30.63-38.12-1.03-75.98-7.04-112.51-17.99-35.26-10.58-69.19-25.05-103.73-37.65-70.21-25.62-141.99-46.52-213.16-69.24-70.07-22.37-139.88-42.44-212.4-55.31-69.32-12.31-139.52-17.86-208.92-29.43-61.29-10.22-122.75-27.09-175.66-60.67-14.01-8.89-27.18-18.93-39.57-29.97-1.44-1.28-3.57.83-2.12,2.12,99.05,88.26,235.08,92.77,359.66,110.38,72.86,10.29,144.82,24.6,215.28,45.97,71.49,21.68,142.93,44.12,213.88,67.53,35.49,11.71,70.53,24.5,105.42,37.86,34.45,13.2,69.16,25.49,105.54,32.24,70.58,13.1,142.32,6.48,212.32-6.96,142.28-27.3,275.49-84.89,405-148.15,66.21-32.34,132.55-65.22,202.68-88.37,70.45-23.26,144.63-35.37,218.9-32.03,19.81.89,39.52,2.94,59.1,6,1.89.3,2.7-2.6.8-2.89h0Z" style="fill: url(#linear-gradient-19);"/>
  <path d="m2133.62,149.02c-70.28-12.15-142.29-7.83-211.51,8.67-68.55,16.34-133.38,44.73-196.54,75.48-65.42,31.85-129.8,65.64-196.61,94.56-68.26,29.54-138.44,54.91-210.42,73.78-71.87,18.84-147.4,34.01-222.03,30.71-38.63-1.71-76.51-9.11-112.94-22.03s-68.09-27.93-102.13-41.82c-68.63-28-138.24-53.6-207.55-79.83-67.56-25.56-135.14-45.69-207.05-54.42-130.36-15.83-275.95,5.77-393.66-64.82-14.32-8.59-27.74-18.51-40.25-29.57-1.44-1.27-3.57.84-2.12,2.12,99.33,87.78,236.58,81.84,360.45,88.78,74.84,4.19,148.48,14.85,219.79,38.49,70.35,23.32,139.52,51.25,208.64,77.98,36.67,14.18,73.06,28.98,109.22,44.4,32.54,13.88,65.35,27.31,100,34.97,71.96,15.9,145.8,8.47,217.43-5.4,142.95-27.67,277.57-83.92,407.27-148.74,66.09-33.03,131.98-67.16,201.81-91.74,70.08-24.67,144.35-38.57,218.81-35.14,19.66.91,39.22,3.12,58.61,6.47,1.89.33,2.7-2.56.8-2.89h0Z" style="fill: url(#linear-gradient-20);"/>
  <path d="m2136.26,127.55c-143.76-27.29-281.3,25.85-407.59,89.65-66.24,33.46-131.68,68.24-199.97,97.48-68.71,29.42-139.46,54.29-211.87,72.95-72.47,18.68-148.87,34.68-224.08,29.75-38.48-2.52-75.5-11.63-111.07-26.39s-69.26-31.95-103.89-47.8c-67.72-31-135.73-61.69-204.23-90.92-32.12-13.7-64.78-26.37-98.61-35.19s-70.26-13.62-105.93-15.6c-131.36-7.27-276.87,28.93-397.68-40.16-14.31-8.18-27.65-17.8-40.04-28.66-1.45-1.27-3.58.85-2.12,2.12,99.96,87.63,239.34,72.06,362.11,68.93,76.77-1.96,152.57,3.76,225.46,29.37,70.09,24.62,137.6,57.9,205.36,88.21,34.99,15.65,69.88,31.51,104.53,47.89,32.3,15.27,64.66,30.96,99.28,40.32,70.98,19.19,145.07,11.62,216.3-2.03,145.27-27.84,283.03-82.95,414.36-149.97,132.1-67.41,267.58-141.29,420.76-134.01,19.53.93,38.92,3.29,58.12,6.94,1.89.36,2.7-2.53.8-2.89h0Z" style="fill: url(#linear-gradient-21);"/>
  <path d="m2138.9,106.07c-143.8-29.78-282.11,29.83-406.93,95.18-67.03,35.1-133.53,70.75-203.29,100.24s-138.87,53.11-210.82,71.58c-72.57,18.63-149.35,35.89-224.69,29.68-78.62-6.47-145.69-49.07-214.24-84.34-68.11-35.05-135.85-71.69-205.4-103.81-31.48-14.54-63.98-27.28-97.88-34.89-35.83-8.04-72.73-10.39-109.38-9.56-130.41,2.96-274.83,50.15-397.23-17.02-14.1-7.74-27.2-17-39.33-27.55-1.45-1.26-3.58.85-2.12,2.12,99.84,86.85,240.7,63.46,360.88,50.9,77.15-8.06,154.65-9.51,228.86,16.22,35.56,12.33,69.4,28.99,102.92,45.97s68.74,34.98,103.09,52.52c34.88,17.8,69.72,35.67,104.44,53.77,32.32,16.85,64.5,34.72,99.34,45.89,70.37,22.56,145.46,14.05,216.61.01,145.94-28.79,285.39-82.28,417.08-150.84,131.07-68.24,266.38-148.22,419.68-140.6,19.39.96,38.62,3.48,57.63,7.41,1.88.39,2.69-2.5.8-2.89h0Z" style="fill: url(#linear-gradient-22);"/>
  <path d="m2141.55,84.6c-144.59-32.5-284.3,34.69-408.16,101.86-67.29,36.5-134.46,72.56-205.21,102.03-68.59,28.57-139.24,52.19-211.22,70.61-72.01,18.43-148.91,37.17-223.7,28.97-77.61-8.5-143.95-56.19-209.99-94.15-67.02-38.52-133.15-80.08-202.42-114.47-31.52-15.65-64.49-28.78-99.14-35.48s-73-7.18-109.46-3.99c-73.56,6.45-145.12,26.7-218.66,33.1-62.66,5.45-129.66,2.04-186.37-27.78-14.06-7.4-27.11-16.4-39.13-26.78-1.45-1.26-3.59.86-2.12,2.12,101.31,87.45,245.98,54.62,364.74,33.77,77.56-13.62,156.85-22.1,232.86,3.93,35.5,12.16,68.82,29.74,101.41,48.14,34.72,19.6,69.18,39.68,103.74,59.55,34.75,19.97,69.49,39.94,104.24,59.91,31.29,17.99,62.38,37.22,96.24,50.08,68.78,26.11,143.87,17.33,214.25,3.04,146.02-29.66,286.95-81.04,418.62-150.63,131-69.24,266.3-156.34,420.7-148.87,19.54.95,38.9,3.63,57.99,7.92,1.88.42,2.68-2.47.8-2.89h0Z" style="fill: url(#linear-gradient-23);"/>
  <path d="m2138.39,76.91c-141.37-29.1-277.98,33.36-400.39,97.14-65.86,34.31-131.51,68.47-200.17,96.94-67.16,27.84-136.09,51.42-206.23,70.55-71.19,19.42-146.77,39.61-221.18,33.84-39.66-3.08-75.23-16.49-110.87-33.41-33.38-15.85-66.91-31.35-100.46-46.83-35.04-16.16-70.07-32.38-104.82-49.17-32.14-15.53-63.83-32.01-96.41-46.63-31.48-14.12-63.9-26.48-97.65-33.94-34.91-7.72-70.75-10.24-106.44-9.92-138.26,1.24-289.07,44.61-419.93-19.99-14.37-7.1-27.94-15.57-40.71-25.25-1.54-1.17-3.03,1.44-1.51,2.59,111.36,84.51,263.13,59.31,392.19,49.12,75.03-5.92,149.73-5.43,221.61,19.52,70.41,24.44,136.18,62.3,203.59,93.77,34.65,16.18,69.45,32.06,104.13,48.18,31.39,14.6,62.33,31.27,95.15,42.47,69.26,23.63,144.06,11.96,213.66-3.84,140.83-31.97,277.03-82.18,405.57-147.89,129.37-66.13,262.83-147.42,413.63-141.31,18.99.77,37.83,3.14,56.44,6.97,1.88.39,2.69-2.5.8-2.89h0Z" style="fill: url(#linear-gradient-24);"/>
  <path d="m2135.23,69.23c-139.41-25.94-273.93,33.05-395.84,94-65.68,32.83-131.18,65.52-199.23,93.26-67.06,27.34-135.63,50.98-205.3,70.75-70.25,19.93-144.82,41.31-218.55,35.11-37.23-3.13-70.67-16.77-105.26-29.79s-68.41-24.56-102.62-36.8-70.51-25.57-105.25-39.7c-33.18-13.5-65.83-28.26-99.19-41.33s-66.47-24.15-101.1-31.29-70.45-10.52-106-11.98c-138.21-5.66-287.87,14.16-417.37-46.2-14.26-6.65-27.94-14.37-41.03-23.09-1.61-1.07-3.11,1.52-1.51,2.59,113.07,75.36,261.07,68.42,390.94,68.57,74.34.09,148.55,2.93,220.15,24.83,69.3,21.2,134.56,53.99,202.28,79.53,34.65,13.06,69.59,25.33,104.48,37.73s66.54,25.4,100.19,36.86c68.69,23.39,140.72,13.02,209.73-3.5,139.7-33.44,275.47-83.69,404.32-147.02,129.02-63.42,261.76-140.55,410.47-135.65,18.44.61,36.76,2.65,54.9,6.02,1.89.35,2.7-2.54.8-2.89h0Z" style="fill: url(#linear-gradient-25);"/>
  <path d="m2132.07,61.54c-138.25-22.89-271.41,33.3-393.46,91.72-66.01,31.6-131.92,62.98-199.91,90.18-66.98,26.8-135.19,50.51-204.37,70.97-68.67,20.32-141.86,42.62-214.28,35.53-35.95-3.52-70.29-16.79-105.07-25.82s-67.59-17.06-101.27-26.06c-69.4-18.55-135.93-43.76-203.74-67.15s-136.53-37.17-207.86-44.11c-73.56-7.16-147.3-11.72-220.5-22.28-66.3-9.56-133.06-22.05-194.89-48.71-14.73-6.35-29.03-13.61-42.88-21.7-1.67-.97-3.18,1.62-1.51,2.59,55.97,32.65,119.16,50.06,182.49,61.7,69.82,12.83,140.57,19.72,211.26,25.67,73.12,6.16,146.3,12.09,217.23,32.05,68.54,19.29,133.95,47.97,202.08,68.56,67.57,20.42,136.72,34.97,204.36,55.09,33.87,10.08,66.97,15.75,102.43,13.98,35.3-1.76,70.17-8.81,104.38-17.42,138.4-34.84,273.54-85.65,402.55-146.44s260.93-133.75,407.74-130.55c18.26.4,36.41,2.12,54.43,5.1,1.89.31,2.7-2.58.8-2.89h0Z" style="fill: url(#linear-gradient-26);"/>
  <path d="m2128.91,53.86c-137.8-19.84-270.26,33.92-393.05,90.07-131.97,60.35-265.24,115.63-403.93,158.83-68.44,21.32-142.68,45.36-215.21,34.89-33.63-4.85-66.9-12.59-100.5-17.86-34.61-5.43-69.23-10.87-103.62-17.59-69.92-13.66-136.83-36.28-204.86-56.92-69.43-21.07-139.9-34.36-211.5-45.52-69.39-10.81-138.29-23.66-206.88-38.73-65.02-14.28-130.3-28.94-192.38-53.47-16.26-6.43-32.2-13.58-47.78-21.51-1.72-.87-3.24,1.71-1.51,2.59,58.4,29.69,121.75,47.85,185.29,62.82,67.88,15.99,136.29,30.2,205.02,41.98,70.53,12.08,141.67,20.7,211.12,38.42,69.39,17.7,136.42,43.53,205.93,60.76,68.85,17.07,139.12,25.05,208.74,37.9,33.07,6.1,64.65,13.63,98.56,12.23,34.32-1.41,68.23-8.35,101.4-16.98,69.37-18.04,137.66-41.53,204.93-66.17,66.49-24.34,132.11-51.07,196.67-80.13,129.68-58.36,261.93-128.15,407.96-126.91,18.35.16,36.64,1.56,54.8,4.18,1.89.27,2.7-2.62.8-2.89h0Z" style="fill: url(#linear-gradient-27);"/>
  <path d="m2125.35,46.12c-136.89-16.61-268.6,34.28-391.75,87.9-131.55,57.28-264.06,111.14-400.21,156.62-68.15,22.77-138.47,45.12-211.17,37.52-68.52-7.16-137.52-8.58-205.86-17.85-71.29-9.67-139.96-30.14-209.14-49.18-68.52-18.86-137.97-32.93-207.28-48.41-69.01-15.41-136.42-36.21-204.26-55.95-64.07-18.65-128.71-35.6-191.38-58.72-16.78-6.19-33.38-12.85-49.75-20.06-1.75-.77-3.28,1.81-1.51,2.59,60.69,26.73,124.39,45.59,188.06,63.75,67.7,19.3,134.92,40.55,203.09,58.18,68.79,17.78,138.88,29.98,207.83,47.15,68.82,17.14,136.39,39.65,205.92,53.86,68.4,13.99,138.15,18.28,207.69,22.58,33.58,2.08,67.29,8.37,100.98,6.74,34.6-1.68,68.71-9.4,101.96-18.75,68.9-19.39,136.57-44.32,203.59-69.35,66.77-24.94,132.9-51.57,198.31-79.88,128.48-55.61,259.94-119.53,403.16-119.01,17.31.06,34.56,1.18,51.74,3.27,1.91.23,1.9-2.77,0-3h0Z" style="fill: url(#linear-gradient-28);"/>
  <path d="m2122.19,38.43c-138.99-13.57-272.49,36.18-398.6,88.52-131.53,54.58-263.61,107.84-397.79,155.62-33.14,11.8-66.62,23.07-100.97,30.82-17.27,3.9-34.82,6.97-52.51,8.08s-35.02.25-52.53.35c-68.62.38-136.63,4.84-205.18-1.71-71.33-6.82-140.91-25.22-210.1-43.08-68.38-17.65-137.4-33.3-205.1-53.5-67.15-20.03-131.4-47.86-197.27-71.5-64.83-23.27-130.93-42.78-195.98-65.37-15.61-5.42-31.15-11.03-46.61-16.88-1.81-.68-2.59,2.22-.8,2.89,64.49,24.4,130.54,44.32,195.91,66.17,66.79,22.32,131.58,49.91,198.11,72.88,65.46,22.6,133.03,38.3,200.12,55.19,68.81,17.32,137.28,36.92,207.29,48.97,68.23,11.75,137.63,12.52,206.66,10.55,33.79-.97,67.8-.14,101.54-1.75,32.92-1.57,65.42-9.49,96.89-18.88,68.05-20.3,134.52-46.78,200.82-72.12,67.58-25.83,134.81-52.57,201.65-80.25,128.74-53.32,260.36-112.86,402.33-114.31,17.42-.18,34.8.62,52.13,2.31,1.92.19,1.91-2.81,0-3h0Z" style="fill: url(#linear-gradient-29);"/>
  <path d="m2119.03,30.74c-140.56-10.23-275.73,37.23-404.45,88.03-132.84,52.43-264.86,107.19-398.34,157.96-32.63,12.41-65.69,24.28-99.77,32.08-34.31,7.86-70.07,9.62-104.95,14.09-68.43,8.77-137.63,14.03-206.56,8.48-72.14-5.8-143.2-22.78-213.15-40.65-66.14-16.9-132.33-34.68-196.11-59.25-65.04-25.05-126.05-59.08-190.25-86.05-62.57-26.28-127.17-47.37-191.74-68.09-16.27-5.22-32.54-10.41-48.81-15.64-1.84-.59-2.63,2.3-.8,2.89,65.22,20.97,130.71,41.28,194.81,65.54,66.15,25.03,128.51,57.82,193.07,86.42,61.13,27.08,125.01,46.76,189.48,64.11,69.15,18.61,138.88,36.49,209.73,47.29,68.8,10.48,137.96,10.48,207.16,3.93,33.39-3.16,66.53-8.47,99.9-11.68,33.86-3.26,66.25-9.22,98.77-19.43,67.96-21.34,133.74-50.17,199.9-76.44,66.95-26.59,133.9-53.17,200.84-79.79,131.18-52.17,265.44-108.68,408.73-112.13,17.53-.42,35.05.04,52.55,1.31,1.93.14,1.92-2.86,0-3h0Z" style="fill: url(#linear-gradient-30);"/>
  <path d="m2115.87,23.06c-141.6-6.61-278.32,37.34-409.22,86.5-67.65,25.41-134.9,51.89-201.74,79.33s-133.11,57.19-200.05,84.89c-32.41,13.41-65.29,26.12-99.54,34.01-33.69,7.76-67.51,15.56-101.46,22.1-69.97,13.49-141.46,20.02-212.64,14.24s-141.08-20.69-209.79-39.18-132.28-39.64-194.11-70.13-118.89-68.69-181.03-98.01c-60.37-28.48-123.59-50.66-187.55-69.54-16.11-4.75-32.28-9.28-48.49-13.64-1.87-.5-2.66,2.39-.8,2.89,65.49,17.64,130.38,38.04,193.04,64.13s124.32,63.45,185.82,97.13c58.67,32.14,120.39,56.86,184.35,76.33,67.33,20.5,136.3,37.27,206.04,47.11,69.58,9.82,139.16,10.18,208.83.91,32.9-4.38,65.54-10.57,97.89-17.97,34.13-7.81,68.72-14.06,101.95-25.25,67.97-22.89,133.01-54.68,199.04-82.49,66.7-28.09,133.83-55.15,201.35-81.23,133.37-51.52,270.6-103.98,415.13-109.42,17.66-.66,35.33-.55,52.99.27,1.93.09,1.93-2.91,0-3h0Z" style="fill: url(#linear-gradient-31);"/>
  <path d="m2112.71,15.37c-142.49-2.74-280.96,36.65-413.9,84.36-66.32,23.8-131.91,49.66-196.64,77.5-65.98,28.39-130.4,59.91-195.32,90.59-64.13,30.31-131.93,54.34-200.88,71.2-69.4,16.96-140.77,24.55-212.15,20.49-73.07-4.15-145.48-18.33-215.64-38.9-65.8-19.29-129.97-44.97-189.07-79.93s-115.1-78.37-176.83-110.81c-59.7-31.37-123.39-55.03-188.46-72.52-15.98-4.3-32.06-8.19-48.22-11.76-1.88-.42-2.68,2.48-.8,2.89,67.37,14.89,133.54,35.85,196.34,64.55,63.64,29.08,120.21,68.72,178.66,106.67,115.59,75.04,248.87,119.87,385.36,137.35,69.48,8.9,139.34,8.68,208.56-2.37,69.34-11.07,138.06-31.82,203.43-57.29,65.17-25.4,127.02-59.35,190.61-88.35,66.79-30.47,134.6-58.71,203.23-84.77,134.04-50.88,273-97.5,417.28-105.03,18.13-.95,36.28-1.21,54.43-.86,1.93.04,1.93-2.96,0-3h0Z" style="fill: url(#linear-gradient-32);"/>
  <path d="m2109.56,7.69c-145.76,1.42-288.68,36.21-425.63,84.16-67.16,23.52-133.17,50.36-197.66,80.45-65.66,30.63-128.64,65.92-192.26,100.49-62.09,33.74-127.37,62.69-195.83,80.73-68.88,18.16-140.09,25.44-211.22,21.92-141.36-7.01-283.58-51.6-399.82-133.06-57.86-40.55-111.19-87.33-172.91-122.22-57.58-32.56-119.91-56.67-184.14-72.36-16.26-3.97-32.65-7.35-49.13-10.26-1.89-.33-2.7,2.56-.8,2.89,67.84,11.96,134.1,32.87,196.04,63.11,63.36,30.93,118.16,73.55,174.23,115.73,54.54,41.04,111.94,76.01,175.38,101.58,64.32,25.93,132.23,43.42,201.01,52.23,70.03,8.98,141.08,8.45,210.75-3.37s132.39-33.89,194.81-62.65c65.66-30.26,127.32-68.38,191.73-101.13,65.43-33.27,132.62-63.07,201.15-89.36,137.58-52.78,281.76-94.3,429.41-103.86,18.28-1.18,36.58-1.83,54.9-2.01,1.93-.02,1.93-3.02,0-3h0Z" style="fill: url(#linear-gradient-33);"/>
  <path d="m2106.4,0c-148.24,5.95-295.35,33.99-435.45,82.82-69.51,24.23-137.26,53.53-202.5,87.64-68.35,35.74-131.26,79.18-196.55,119.94-115.2,71.93-247.96,107.3-383.78,102.26-131.24-4.87-261.67-46.75-368.23-124.14-62.48-45.38-116.31-101.69-180.83-144.41-60.53-40.09-128.45-69.04-199.26-85.07-17.68-4-35.53-7.15-53.49-9.57-1.89-.25-2.7,2.64-.8,2.89,74.12,9.98,146.1,33.57,211.56,69.8,69.17,38.27,125.62,92.58,186.53,142.08,101.47,82.46,223.44,133.33,353.48,147.67s260.33-6.96,375.81-64.61c68.3-34.1,129.12-81.28,194.88-119.8,65.34-38.27,133.62-71.53,204-99.45,140.34-55.67,289.04-90.35,439.6-101.88,18.32-1.4,36.66-2.44,55.02-3.18,1.92-.08,1.93-3.08,0-3h0Z" style="fill: url(#linear-gradient-34);"/>
</svg>