<?xml version="1.0" encoding="UTF-8"?>
<svg id="Layer_1" data-name="Layer 1" xmlns="http://www.w3.org/2000/svg" xmlns:xlink="http://www.w3.org/1999/xlink" viewBox="0 0 2487.5 1233">
  <defs>
    <linearGradient id="linear-gradient" x1="724.15" y1="1170.5" x2="1179.15" y2="1170.5" gradientUnits="userSpaceOnUse">
      <stop offset="0" stop-color="#3476b6"/>
      <stop offset="1" stop-color="#bfe2f2"/>
    </linearGradient>
    <linearGradient id="linear-gradient-2" x1="74.76" y1="556.76" x2="2261.35" y2="556.76" xlink:href="#linear-gradient"/>
    <linearGradient id="linear-gradient-3" x1="75.49" y1="563.09" x2="2264.78" y2="563.09" xlink:href="#linear-gradient"/>
    <linearGradient id="linear-gradient-4" x1="76.22" y1="569.34" x2="2268.22" y2="569.34" xlink:href="#linear-gradient"/>
    <linearGradient id="linear-gradient-5" x1="76.95" y1="575.52" x2="2271.65" y2="575.52" xlink:href="#linear-gradient"/>
    <linearGradient id="linear-gradient-6" x1="77.68" y1="581.49" x2="2275.08" y2="581.49" xlink:href="#linear-gradient"/>
    <linearGradient id="linear-gradient-7" x1="78.61" y1="583.06" x2="2278.7" y2="583.06" xlink:href="#linear-gradient"/>
    <linearGradient id="linear-gradient-8" x1="79.34" y1="576.87" x2="2282.12" y2="576.87" xlink:href="#linear-gradient"/>
    <linearGradient id="linear-gradient-9" x1="80.06" y1="568.99" x2="2285.54" y2="568.99" xlink:href="#linear-gradient"/>
    <linearGradient id="linear-gradient-10" x1="80.79" y1="559.79" x2="2288.96" y2="559.79" xlink:href="#linear-gradient"/>
    <linearGradient id="linear-gradient-11" x1="81.52" y1="549.48" x2="2292.45" y2="549.48" xlink:href="#linear-gradient"/>
    <linearGradient id="linear-gradient-12" x1="82.26" y1="539.1" x2="2295.94" y2="539.1" xlink:href="#linear-gradient"/>
    <linearGradient id="linear-gradient-13" x1="83" y1="530.45" x2="2299.43" y2="530.45" xlink:href="#linear-gradient"/>
    <linearGradient id="linear-gradient-14" x1="83.89" y1="524.3" x2="2303.07" y2="524.3" xlink:href="#linear-gradient"/>
    <linearGradient id="linear-gradient-15" x1="84.62" y1="520.15" x2="2306.55" y2="520.15" xlink:href="#linear-gradient"/>
    <linearGradient id="linear-gradient-16" x1="85.35" y1="517.77" x2="2310.04" y2="517.77" xlink:href="#linear-gradient"/>
    <linearGradient id="linear-gradient-17" x1="86.09" y1="516.72" x2="2313.52" y2="516.72" xlink:href="#linear-gradient"/>
    <linearGradient id="linear-gradient-18" x1="86.83" y1="517" x2="2317.01" y2="517" xlink:href="#linear-gradient"/>
    <linearGradient id="linear-gradient-19" x1="81.4" y1="492.63" x2="2307.6" y2="492.63" xlink:href="#linear-gradient"/>
    <linearGradient id="linear-gradient-20" x1="75.98" y1="469.43" x2="2298.18" y2="469.43" xlink:href="#linear-gradient"/>
    <linearGradient id="linear-gradient-21" x1="70.55" y1="450.05" x2="2288.77" y2="450.05" xlink:href="#linear-gradient"/>
    <linearGradient id="linear-gradient-22" x1="65.12" y1="431.26" x2="2279.35" y2="431.26" xlink:href="#linear-gradient"/>
    <linearGradient id="linear-gradient-23" x1="59.7" y1="412.7" x2="2269.93" y2="412.7" xlink:href="#linear-gradient"/>
    <linearGradient id="linear-gradient-24" x1="54.27" y1="394.27" x2="2260.52" y2="394.27" xlink:href="#linear-gradient"/>
    <linearGradient id="linear-gradient-25" x1="48.84" y1="376.11" x2="2251.1" y2="376.11" xlink:href="#linear-gradient"/>
    <linearGradient id="linear-gradient-26" x1="43.41" y1="358.52" x2="2241.68" y2="358.52" xlink:href="#linear-gradient"/>
    <linearGradient id="linear-gradient-27" x1="37.99" y1="341.87" x2="2232.26" y2="341.87" xlink:href="#linear-gradient"/>
    <linearGradient id="linear-gradient-28" x1="32.56" y1="327.54" x2="2222.84" y2="327.54" xlink:href="#linear-gradient"/>
    <linearGradient id="linear-gradient-29" x1="27.13" y1="314.78" x2="2213.42" y2="314.78" xlink:href="#linear-gradient"/>
    <linearGradient id="linear-gradient-30" x1="21.71" y1="301.74" x2="2204" y2="301.74" xlink:href="#linear-gradient"/>
    <linearGradient id="linear-gradient-31" x1="16.28" y1="288.34" x2="2194.57" y2="288.34" xlink:href="#linear-gradient"/>
    <linearGradient id="linear-gradient-32" x1="10.85" y1="274.47" x2="2185.19" y2="274.47" xlink:href="#linear-gradient"/>
    <linearGradient id="linear-gradient-33" x1="5.43" y1="260.08" x2="2175.82" y2="260.08" xlink:href="#linear-gradient"/>
    <linearGradient id="linear-gradient-34" x1="0" y1="244.94" x2="2166.44" y2="244.94" xlink:href="#linear-gradient"/>
    <linearGradient id="linear-gradient-35" x1="7.53" y1="236.46" x2="2186.35" y2="236.46" xlink:href="#linear-gradient"/>
    <linearGradient id="linear-gradient-36" x1="15.07" y1="231.4" x2="2206.26" y2="231.4" xlink:href="#linear-gradient"/>
    <linearGradient id="linear-gradient-37" x1="22.61" y1="237.59" x2="2226.18" y2="237.59" xlink:href="#linear-gradient"/>
    <linearGradient id="linear-gradient-38" x1="30.15" y1="246.91" x2="2246.11" y2="246.91" xlink:href="#linear-gradient"/>
    <linearGradient id="linear-gradient-39" x1="37.7" y1="257.18" x2="2266.04" y2="257.18" xlink:href="#linear-gradient"/>
    <linearGradient id="linear-gradient-40" x1="45.08" y1="267.14" x2="2285.8" y2="267.14" xlink:href="#linear-gradient"/>
    <linearGradient id="linear-gradient-41" x1="52.63" y1="276.66" x2="2305.73" y2="276.66" xlink:href="#linear-gradient"/>
    <linearGradient id="linear-gradient-42" x1="60.19" y1="286.56" x2="2325.69" y2="286.56" xlink:href="#linear-gradient"/>
    <linearGradient id="linear-gradient-43" x1="67.75" y1="303.77" x2="2345.66" y2="303.77" xlink:href="#linear-gradient"/>
    <linearGradient id="linear-gradient-44" x1="75.32" y1="321.47" x2="2365.64" y2="321.47" xlink:href="#linear-gradient"/>
    <linearGradient id="linear-gradient-45" x1="82.68" y1="341.57" x2="2385.41" y2="341.57" xlink:href="#linear-gradient"/>
    <linearGradient id="linear-gradient-46" x1="90.25" y1="364.91" x2="2405.39" y2="364.91" xlink:href="#linear-gradient"/>
    <linearGradient id="linear-gradient-47" x1="97.83" y1="386.06" x2="2425.39" y2="386.06" xlink:href="#linear-gradient"/>
    <linearGradient id="linear-gradient-48" x1="105.22" y1="407.01" x2="2445.19" y2="407.01" xlink:href="#linear-gradient"/>
    <linearGradient id="linear-gradient-49" x1="112.79" y1="426.53" x2="2465.17" y2="426.53" xlink:href="#linear-gradient"/>
    <linearGradient id="linear-gradient-50" x1="120.36" y1="442.08" x2="2487.5" y2="442.08" xlink:href="#linear-gradient"/>
  </defs>
  <rect x="724.15" y="1108" width="455" height="125" style="fill: url(#linear-gradient);"/>
  <rect x="198.15" width="1920" height="1080" style="fill: #fff;"/>
  <g>
    <path d="m2263.03,362.46c-86.49-41.98-176.61-85.43-274.21-90.97-85.58-4.86-168.71,22.79-241.66,66.07-156.97,93.15-259.3,247.44-390.02,370.46-33.66,31.68-69.38,61.3-108.02,86.75-40.02,26.35-84.51,49.34-133.89,44.38-90.09-9.05-153.11-90.41-191.27-165.09-39.9-78.06-68.61-164.24-133.37-226.35-56.53-54.21-131.56-86.18-208.51-97.38-171.69-24.99-334.73,56.78-459.89,168.53-16.16,14.43-31.78,29.43-46.99,44.85-1.36,1.38.76,3.5,2.12,2.12,121.46-123.14,283.23-225.64,462.49-216.63,80.88,4.07,162.12,30.09,225.97,80.82,71.06,56.46,104.57,139.27,142.5,218.9,34.71,72.88,81.06,147.51,158.56,180.53,36.05,15.36,75.29,17.5,112.53,5,41.48-13.92,78.95-40.64,113.29-67.15,142.52-110.01,240.68-266.1,382.61-376.77,69.33-54.06,149.33-98.39,237.11-112.21,99.12-15.6,194.79,15.38,284.13,55.91,21.84,9.91,43.43,20.35,65,30.82,1.73.84,3.25-1.75,1.51-2.59h0Z" style="fill: url(#linear-gradient-2);"/>
    <path d="m78.07,548.2c128.01-121.85,301.66-210.19,482.48-181.67,82.21,12.97,162.62,47.86,223.79,105.02,66.42,62.07,98.3,147.18,146.48,222.18,38.55,60,95.54,117.56,167.89,132.52,81.77,16.9,159.22-37.13,221.04-84.1,140.34-106.62,245.16-253.36,392.9-351.1,68.52-45.32,145.71-80.49,228.1-89.25,90-9.58,177.45,16.25,260.15,49.38,21.5,8.61,42.8,17.71,64.09,26.82,1.76.75,3.29-1.83,1.51-2.59-80.7-34.53-163.46-69.79-251.88-77.31-80.96-6.88-160.63,13.26-232.83,49.31-158.25,79.01-267.57,220.07-396.49,336.23-34.32,30.92-70.28,60.15-108.88,85.59-38.36,25.28-80.95,51.21-127.48,56.5-82.45,9.37-155.84-49.54-201.37-112.6-51.8-71.73-81.09-157.51-141.24-223.59-53.09-58.31-125.37-97.36-201.29-116.87-87.52-22.49-178.86-18.07-264.64,9.67-79.04,25.57-151.8,68.42-215.97,120.83-16.72,13.66-32.85,28.01-48.48,42.89-1.4,1.33.72,3.45,2.12,2.12h0Z" style="fill: url(#linear-gradient-3);"/>
    <path d="m78.82,530.57c131.52-117.35,309.78-186.86,486.07-146.58,79.58,18.18,156.49,55.37,217.08,110.51,64.48,58.68,101.31,137.43,154.08,205.38,42.68,54.97,103.54,105.25,174.54,115.05,38.48,5.31,75.69-4.07,110.66-19.83,38.65-17.42,75.24-39.73,109.93-64.01,139.13-97.35,248.45-231.48,394.08-320.37,68.79-41.99,145.09-74.42,225.79-83.11,88.36-9.52,174.9,12.78,257.69,41.69,20.12,7.03,40.11,14.42,60.1,21.81,1.81.67,2.6-2.23.8-2.89-81.7-30.21-165.05-60.85-252.89-65.41-78.64-4.08-155.87,15.73-226.6,49.27-154.87,73.43-268.05,203.21-398.9,309.68-34.19,27.82-69.83,53.98-107.61,76.73-37.02,22.3-77.07,44.54-120.03,52.37-81.7,14.89-157.93-35.39-209.72-94.09-57.26-64.89-92.19-146-153.07-208.24-54.12-55.33-124.05-94.53-197.69-117.34-84.77-26.26-174.33-29.03-260.46-7.59-79.96,19.91-154.9,57.84-220.52,107.4-15.68,11.84-30.8,24.39-45.46,37.47-1.44,1.29.68,3.4,2.12,2.12h0Z" style="fill: url(#linear-gradient-4);"/>
    <path d="m79.58,512.94c131.76-110.01,308.46-159.79,476.18-114.07,79.33,21.62,155.71,60.18,218.56,113.42,32.53,27.56,61.04,59.42,87.42,92.81,25.64,32.45,49.81,66.21,78.13,96.44,46.98,50.14,109.46,94.43,179.66,101.1,39.19,3.73,76.96-6.89,112.72-22.11s73.4-35.44,107.82-57.18c139.15-87.89,252.83-210.48,396.64-291.75,69.93-39.52,146.36-69.88,226.7-78.5,85.04-9.13,169.15,9.09,250.32,33.02,19.6,5.78,39.11,11.86,58.62,17.93,1.85.57,2.64-2.32.8-2.89-79.71-24.77-160.52-49.94-244.56-53.19-78.39-3.03-155.16,15.66-226.54,47.28-153.08,67.82-270.52,187.72-404.05,285-33.61,24.49-68.46,47.39-104.96,67.34-36.85,20.14-76.16,39.82-117.49,48.61-81.85,17.42-159.58-25.18-217.21-80.27-61.12-58.42-103.25-133.33-165.38-191.08-57.02-53.01-126.89-92.41-200.32-117.72-81.45-28.08-167.57-36.52-252.55-21.2-76.95,13.87-150.56,44.83-215.09,88.83-16.45,11.21-32.25,23.3-47.53,36.06-1.48,1.24.65,3.35,2.12,2.12h0Z" style="fill: url(#linear-gradient-5);"/>
    <path d="m80.33,495.32c62.5-48.73,135.59-82.46,213.39-97.82,83.6-16.5,168.63-10.56,249.77,14.97,78.61,24.74,153.91,64.12,219.16,114.46,64.23,49.55,114.22,112.92,173.53,167.6,49.16,45.32,109.86,85.17,177.42,94.11,37.83,5.01,74.93-2.17,110.66-14.58,37.56-13.05,73.97-29.69,108.99-48.46,144.11-77.24,263.74-192.19,408.15-269.13,70.67-37.66,146.93-67.19,226.8-77.09,84.12-10.42,167.95,3.73,249.67,23.26,19.36,4.63,38.65,9.51,57.95,14.36,1.87.47,2.67-2.42.8-2.89-80.02-20.08-160.82-40.69-243.84-41.38-78.54-.66-155.21,18.63-227.1,49.45-151.51,64.96-273.02,176.93-411.06,264.07-35.34,22.31-71.9,42.76-109.93,60.13-38.8,17.72-80.16,34.98-122.9,39.78-77.45,8.7-150.64-31.39-207.91-79.95-61.07-51.79-109.97-116.06-171.66-167.4-59.91-49.86-129.31-89.02-202.08-116.72-78.78-29.99-162.41-43.72-246.49-33.85-73.59,8.63-145.02,32.98-208.12,71.9-16.41,10.12-32.14,21.23-47.34,33.08-1.52,1.19.62,3.3,2.12,2.12h0Z" style="fill: url(#linear-gradient-6);"/>
    <path d="m80.78,477.92c62.91-45.7,136.59-74.02,213.81-82.86,81.74-9.36,162.98,3.29,239.9,31.59,76.56,28.16,149.46,68.2,216.09,115.12,64.18,45.19,121.01,99.27,182.97,147.22,52.66,40.75,113.47,77.33,180.57,86.41,37.56,5.08,74.64-.71,110.77-11.23,37.96-11.05,75.02-25.32,110.96-41.76,146.12-66.84,270.51-171.96,414.35-243.19,69.89-34.61,144.23-62.31,221.73-73.37,83.27-11.88,166.82-1.87,249,13.08,19.49,3.54,38.94,7.31,58.4,11.02,1.89.36,2.69-2.53.8-2.89-79.07-15.05-158.62-30.85-239.5-29.57-78.01,1.23-154.08,20.15-226.12,49.42-148.6,60.36-273.41,161.81-412.84,238.86-37.34,20.64-75.89,39.1-115.71,54.46-38.41,14.81-78.74,28.95-119.93,33.07-76.82,7.7-149.36-27.92-210.26-71.46-61.24-43.79-115.74-96.46-175.63-142.08-64.1-48.83-134.64-89.99-208.75-121.62-74.93-31.97-154.49-51.74-236.37-49.03-71.58,2.37-142.47,20.18-205.55,54.4-17.45,9.47-34.15,20.17-50.2,31.83-1.55,1.12-.05,3.73,1.51,2.59h0Z" style="fill: url(#linear-gradient-7);"/>
    <path d="m81.53,460.29c63.54-42.9,137.83-65.58,214.33-67.79,80.55-2.34,158.69,17.43,232.26,49.11,142.54,61.36,266.38,155.55,396.61,238.28,57.68,36.64,119.43,71.9,188.06,82,36.16,5.32,72.23,1.65,107.7-6.31,38.37-8.62,76.17-20.22,112.99-34,148.16-55.42,277-150.39,419.94-216.85,71.71-33.34,147.03-60.54,225.4-72.85,81.95-12.87,164.79-6.56,246.65,3.63,19.26,2.4,38.49,4.96,57.74,7.44,1.91.25,1.89-2.76,0-3-80.49-10.37-161.29-21.83-242.67-17.49-78.05,4.16-154.01,24.19-226.48,52.87-147.97,58.55-277.3,153.03-421.72,218.65-37.2,16.9-75.47,31.43-114.59,43.26-38.33,11.59-78.08,22.4-118.27,24.1-75.67,3.21-146.53-30.8-209.59-69.27-130.9-79.85-252.15-174.29-391.4-240.03-70.85-33.44-145.97-58.16-224.7-62.11-69.93-3.51-140.47,8.41-203.79,38.88-17.38,8.36-34.01,18.1-50,28.89-1.59,1.07-.09,3.67,1.51,2.59h0Z" style="fill: url(#linear-gradient-8);"/>
    <path d="m82.28,442.66c63.47-39.71,137.29-56.83,211.81-52.97,80.06,4.15,155.84,31.16,227.07,66.54,70.12,34.83,137.36,75.46,204.4,115.79,32.59,19.61,65.04,39.23,98.92,56.57,31.82,16.29,64.4,31,96.5,46.72,62.34,30.52,124.87,63.59,194.48,73.64,36.59,5.29,73.26,2.37,109.52-3.92,38.21-6.63,76.07-15.57,113.21-26.73,149.14-44.81,281.78-129.59,424.17-190.7,72.44-31.09,147.7-57.08,225.64-70.11,79.87-13.35,160.89-10.84,241.36-5.5,19.12,1.27,38.23,2.65,57.34,3.92,1.93.13,1.92-2.87,0-3-78.78-5.24-157.73-11.96-236.68-5.9-78.17,6-154.2,25.83-227.48,53.19-147.14,54.93-280.31,140.77-427.32,195.74-37.45,14-75.78,25.54-114.7,34.67-39.52,9.27-80.17,17.74-120.9,18.26-76,.96-146.51-31.1-213.15-64.24-65.58-32.62-132.03-62.53-194.86-100.4-66.04-39.8-132.07-79.75-200.23-115.83-69.26-36.66-142.19-67.7-220.41-78.19-67.84-9.1-137.67-2.83-201.01,24.07-17.09,7.26-33.45,15.97-49.18,25.81-1.63,1.02-.13,3.62,1.51,2.59h0Z" style="fill: url(#linear-gradient-9);"/>
    <path d="m83.03,425.03c65.42-37.79,141.11-48.99,215.39-37.87s147.87,45.04,214.93,83.08c66.83,37.91,131.72,79.14,198.67,116.86,31.81,17.92,63.9,35.26,97.96,48.57,32.3,12.62,65.78,21.61,98.61,32.65,67.26,22.63,131.16,54.84,201.79,66.51,73.93,12.22,152.44-1.49,224.87-17.37,152.88-33.51,291.26-109.65,435.83-166.71,71.99-28.41,145.91-52.98,222.16-67.05,79.57-14.68,160.49-15.84,241.15-15.25,18.6.14,37.2.32,55.8.39,1.93,0,1.93-2.99,0-3-78.9-.26-157.96-2.48-236.55,6.07-77.53,8.44-153,28.49-226.38,54.54-147.1,52.21-284.61,129.95-434.85,173.42-37.79,10.94-76.28,19.25-115.12,25.49-40.28,6.47-81.42,12.22-122.31,10.9-74.83-2.42-143.76-32.38-212.54-58.87-32.15-12.38-65.19-21.75-97.88-32.52-36.9-12.17-71.86-27.92-105.96-46.47-67.14-36.53-132-77.06-197.87-115.79-66.78-39.27-136.25-75.9-212.44-92.87-66-14.69-135.79-13.76-199.56,10.19-16.37,6.15-32.08,13.77-47.22,22.51-1.67.97-.16,3.56,1.51,2.59h0Z" style="fill: url(#linear-gradient-10);"/>
    <path d="m83.79,407.4c66.79-35.5,143.49-40.79,216.32-22.88,73.34,18.03,139.11,56.8,202.06,97.28,64.6,41.54,128.32,84.47,196.17,120.67,32.01,17.07,64.81,33.09,99.79,43.12,33.05,9.47,67.14,13.07,100.85,19.32,70.33,13.03,136.22,43.06,206.73,55.79,73.78,13.32,151.58,5.89,225.35-4.31,154.94-21.43,297.78-87.29,443.5-140.36,73.15-26.64,147.53-50.64,223.93-66.05,79.01-15.94,159.47-20.86,239.8-25.09,18.47-.97,36.94-1.95,55.41-3.07,1.92-.12,1.93-3.12,0-3-76.37,4.64-152.96,6.92-228.88,17.1s-156.95,31.28-232.88,56.8c-148.3,49.84-290.96,119.72-444.99,151.15-39.67,8.09-79.88,13.19-120.21,16.52s-77.64,5.81-116.35,3.01c-74.72-5.4-143.56-34.38-215.19-53.45-33.13-8.82-67.14-12.36-100.73-18.84-38.35-7.39-74.14-20.73-109.07-38.05-68.54-34-132.9-75.89-196.85-117.7-116.86-76.39-254.02-156.63-398.33-110.89-16.61,5.26-32.56,12.19-47.94,20.36-1.71.91-.19,3.5,1.51,2.59h0Z" style="fill: url(#linear-gradient-11);"/>
    <path d="m84.54,389.78c68.34-33.26,145.83-32.37,216.86-8.03,71.94,24.65,134.25,70.29,195.06,114.71,60.87,44.46,122.43,88.28,189.81,122.5,32.23,16.36,65.89,31.1,101.54,38.01,33.58,6.51,67.54,5.3,101.54,6.58,72.35,2.73,140.95,29.44,211.56,42.9,75,14.3,153.64,12.81,229.57,8.02,154.53-9.75,299.91-64.15,445.45-112.66,74.96-24.98,150.52-48.68,227.77-65.58,78.33-17.13,158.03-25.82,237.6-34.85,18.64-2.11,37.26-4.28,55.87-6.62,1.89-.24,1.91-3.24,0-3-76.25,9.6-152.87,16.33-228.71,29s-155.84,34.05-231.94,58.14c-149.87,47.45-297.67,108.95-454.84,127.92-38.33,4.63-76.93,6.43-115.52,6.98-40.1.57-80.44.72-120.36-3.58-73.85-7.96-143.44-35.58-216.66-46.22-33.82-4.92-67.9-2.93-101.9-5.12-39.98-2.57-77.18-13.56-113.55-30.04-69.05-31.3-132.43-74.24-193.51-118.75-111.73-81.41-240.51-179.19-387.78-141.3-17.09,4.4-33.53,10.68-49.38,18.4-1.74.84-.22,3.43,1.51,2.59h0Z" style="fill: url(#linear-gradient-12);"/>
    <path d="m85.29,372.15c71.26-31.6,151.04-23.53,220.75,8.25,69.6,31.74,127.56,83.61,186.03,131.8,57.65,47.52,117.88,92.7,185.57,125.07,30.89,14.77,63.52,27.3,97.69,31.55,35.81,4.45,70.92-1.42,106.5-4.93,73.64-7.27,144.61,14.89,216.21,28.66,75.42,14.51,153.49,18.96,230.2,19.92,156.49,1.96,306.46-42.26,454.88-86.93,76.19-22.93,152.44-45.92,229.96-64.01,76.85-17.94,154.83-30.15,232.52-43.75,18.52-3.24,37.01-6.59,55.48-10.13,1.89-.36,1.09-3.26-.8-2.89-76.8,14.74-154.22,26.04-230.89,41.5-78.51,15.83-155.65,37.2-232.39,60-150.78,44.8-302.56,96.44-461.12,102.65-39.57,1.55-79.19.1-118.7-2.14-40.59-2.31-81.28-4.79-121.52-10.76-70.97-10.54-141.17-35.37-213.27-36.97-35.31-.78-69.95,6.77-105.12,8.3-39.07,1.7-76.17-6.52-112.23-21.17-71.87-29.21-136.26-75.27-196.08-123.98-106.27-86.53-225.53-198.87-375.06-168.84-17.31,3.48-33.99,9.07-50.11,16.22-1.76.78-.24,3.37,1.51,2.59h0Z" style="fill: url(#linear-gradient-13);"/>
    <path d="m85.69,354.67c71.54-28.75,149.83-15.54,216.32,20.24,66.69,35.9,119.95,91.79,174.66,143.06s112.06,98.61,179.32,131.5c30.86,15.09,63.98,27.58,98.31,31.4s67.95-2.82,101.35-10.93,69.22-14.47,105.4-12.26c38.58,2.35,76.7,9.95,114.58,17.24,77.28,14.87,155.27,25.9,233.59,33.7,78.15,7.78,156.04,5.71,233.8-5.15,79.47-11.09,157.52-30.13,234.97-50.8,78.77-21.02,157.07-43.84,236.11-63.85,78.09-19.77,157.01-35.95,235.37-54.56,18.4-4.37,36.77-8.9,55.08-13.64,1.87-.48,1.08-3.38-.8-2.89-76.65,19.84-154.22,35.76-231.29,53.83-79.68,18.67-158.45,40.78-237.33,62.49-154.97,42.65-313.55,84.19-475.73,75.52-40.11-2.14-80.01-7.04-119.85-12.04-40.93-5.13-81.85-10.39-122.44-17.78-68.98-12.56-141.39-33.22-212-23.19-34.92,4.96-68.43,17.03-103.5,21.08-38.97,4.5-76.88-2.95-113.17-17.1-72.02-28.09-134.88-76.07-191.47-127.82-99.96-91.4-208.66-215.65-359.27-195.12-18.18,2.48-35.79,7.37-52.8,14.21-1.77.71-1,3.61.8,2.89h0Z" style="fill: url(#linear-gradient-14);"/>
    <path d="m86.44,337.04c71.38-25.83,147.82-7.85,210.89,30.93,65.44,40.24,114.98,101.1,166.89,156.55,51.07,54.55,106.47,105.31,173.84,139.03,30.18,15.1,62.74,27.05,96.47,30.62,36.21,3.84,70.84-4.4,104.81-16.27,33.83-11.81,66.96-24.51,103.03-27.25,39.3-2.99,78.92,2.05,117.64,8.45,80.28,13.27,159.9,30.47,240.03,44.55,79.97,14.04,160.2,18.75,241.23,12.75,79.78-5.91,158.58-20.52,236.44-38.51,79.84-18.44,158.81-40.38,237.9-61.77,78.67-21.28,157.69-41.4,235.77-64.83,18.96-5.69,37.85-11.59,56.66-17.74,1.83-.6,1.04-3.5-.8-2.89-76.37,24.96-154.05,45.59-231.66,66.28-80.17,21.37-160.06,43.87-240.54,64.04-160.75,40.29-326.22,70.09-492.03,46.55-80.73-11.46-160.85-28.85-240.97-43.94-71.07-13.38-144.95-26.62-215.73-5.05-32.87,10.01-64.39,24.53-98.38,30.63-40.14,7.2-80.11.09-117.76-14.56-72.37-28.17-133.29-78.85-186.66-134.12-93.96-97.3-194.95-233.5-347.98-217.91-17.1,1.74-33.74,5.73-49.89,11.57-1.8.65-1.02,3.55.8,2.89h0Z" style="fill: url(#linear-gradient-15);"/>
    <path d="m87.19,319.41c71.97-23.25,147.32-.14,207.53,41.87,63.68,44.44,109.27,109.37,157.86,168.73,47.78,58.37,100.52,112.85,168.18,148.02,30.33,15.76,63.43,27.63,97.65,30.67,35.88,3.19,69.99-5.54,102.78-19.52,32.65-13.92,63.91-31.48,98.48-40.42,38.45-9.94,78.97-9.35,118.21-5.21,82.91,8.75,164.18,31.5,244.81,51.8,80.92,20.37,162.05,33.25,245.67,33.41,82.02.16,163.7-9.79,244.18-25.13,82.42-15.71,163.68-36.93,244.32-59.98,80.19-22.92,160.05-47.24,238.43-75.78,18.85-6.86,37.6-13.99,56.25-21.37,1.77-.7,1-3.6-.8-2.89-76.66,30.34-155.08,55.94-234.08,79.47-81.32,24.22-163.15,47.12-246.02,65.49-165.67,36.72-335.61,52.38-502.59,14.63-81.64-18.45-161.94-42.29-244.59-56.28-37.43-6.33-75.59-10.73-113.6-8.63-34,1.88-65.88,10.48-97.01,24.09-32.88,14.38-64.68,32.03-100.01,39.82-39.88,8.79-80.5,2.44-118.21-12.11-74.14-28.6-133.59-83.56-184.21-143.3-49.33-58.24-93.01-123.14-152.59-171.78-50.9-41.55-115.87-71.95-182.86-67.87-16.58,1.01-32.8,4.26-48.59,9.36-1.83.59-1.05,3.49.8,2.89h0Z" style="fill: url(#linear-gradient-16);"/>
    <path d="m87.94,301.78c74.37-21.23,150.37,8.67,208.48,55.38,63.28,50.87,105.41,122.33,152.5,187.22,44.07,60.73,94.58,117.45,162.34,152.14,30.49,15.61,64.03,26.49,98.45,27.76,35.98,1.33,69.78-9.49,101.55-25.6,32.92-16.7,63.67-37.73,98.2-51.19,37.5-14.62,78.18-18.5,118.15-16.66,85.5,3.92,168.02,31.52,248.86,57.42,80.92,25.93,162.21,45.47,247.21,51.35,83.18,5.75,166.76.55,249.12-11.89,166.62-25.18,331-76.67,485.69-142.94,19.1-8.18,38.06-16.68,56.9-25.46,1.75-.81.23-3.4-1.51-2.59-154.58,72.01-319.81,127.13-487.47,158.83-83.58,15.8-168.63,24.88-253.77,23.21-87.17-1.71-172.7-15.74-256.07-41.06-80.66-24.5-160.24-53.99-244.15-65.63-37.12-5.15-75.06-6.78-112.21-1.08-36.14,5.54-68.6,19.72-100.33,37.39-32.04,17.84-63.6,37.8-99.4,47.27-39.3,10.4-80.2,5.57-117.93-8.52-75.24-28.1-132.92-86.44-180.13-149.47-47.35-63.22-87.6-133.69-146.3-187.51-48.62-44.58-112.32-79.45-179.82-78.63-16.68.2-33.11,2.8-49.14,7.37-1.85.53-1.07,3.42.8,2.89h0Z" style="fill: url(#linear-gradient-17);"/>
    <path d="m88.7,284.15c80.08-19.94,159.56,20.76,216.25,75.28,60.92,58.59,98.71,136.2,144.5,206.13,42.17,64.4,93.94,124.5,166,155.91,32.11,13.99,67.41,21.34,102.45,17.49,36.28-3.99,68.85-20.32,99.34-39.55,33.17-20.92,64.72-45.08,101.13-60.27,40.57-16.93,85.06-21.98,128.71-19.43,90.42,5.29,174.03,42.31,257.6,73.9,78.23,29.57,158.47,50.44,241.75,59.21,82,8.64,164.93,6.6,246.66-3.86,164.12-21.01,323.11-75.13,471.01-148.4,18.42-9.13,36.67-18.59,54.77-28.31,1.7-.91.19-3.5-1.51-2.59-148.56,79.79-308.7,140.74-475.35,169.01-164.34,27.88-334.79,21.92-493.29-32.28-84.43-28.87-165.79-69.16-254.4-84.2-39.37-6.69-79.84-8.56-119.37-2.12-39.45,6.42-74.73,22.28-108.32,43.5-32.82,20.74-64.12,44.82-100.26,59.69-36.97,15.21-76.92,17.43-115.55,7.38-80.2-20.88-141.27-82.57-186.87-148.82-46.37-67.37-82.29-142.65-137.1-203.99-47.62-53.28-114.16-98.54-187.57-101.89-17.35-.79-34.55,1.13-51.38,5.32-1.87.47-1.08,3.36.8,2.89h0Z" style="fill: url(#linear-gradient-18);"/>
    <path d="m2307.96,543.55c-149.3,74.5-308.89,130.55-473.89,157.26-168.85,27.34-341.89,21.8-505.61-29.99-82.1-25.97-162.68-57.79-249.18-65.61-40.56-3.66-81.96-2.5-121.64,7.33-36.35,9.01-68.82,26.62-100.96,45.33-32.98,19.19-66.44,39.15-104.13,47.42-37.42,8.21-76.26,3.34-111.91-9.94-75.97-28.29-132.85-88.22-179.26-152.53-46.26-64.09-85.55-134.82-142.79-190.2-49.42-47.81-114.83-86.01-185.11-87.68-17.24-.41-34.28,1.63-51,5.76-1.87.46-1.08,3.36.8,2.89,77.57-19.14,155.73,14.51,214.53,64.26,62.18,52.61,103.54,124.46,149.63,190.46,42.98,61.56,92.14,119.69,159.62,155.21,30.14,15.87,63.3,26.79,97.48,28.61,35.6,1.89,69.6-7.53,101.45-22.91,33.76-16.3,64.74-37.73,98.48-54.06,39.44-19.09,82.09-27.88,125.79-28.78,89.21-1.83,173.74,26.25,257.26,54.18,82.18,27.48,165.04,48.01,251.55,55.65,81.88,7.22,164.49,4.72,246.01-5.39,162.34-20.14,320.44-69.78,468.8-138,18.68-8.59,37.2-17.5,55.6-26.68,1.73-.86.21-3.45-1.51-2.59h0Z" style="fill: url(#linear-gradient-19);"/>
    <path d="m2298.56,517.43c-149.12,68.67-307.15,119.6-469.53,145.02-166.92,26.13-337.63,23.95-501.37-19.95-80.51-21.59-159.59-46.21-243.37-51.05-40.39-2.34-81.4-.8-120.89,8.59-36.2,8.61-69.2,25.23-102.24,41.85-35.26,17.74-71.47,34.93-111.2,39.15-37.97,4.03-76.35-4.38-111.13-19.46-71.43-30.98-126.21-87.15-173.35-147.57-47.78-61.24-90.19-128.39-149.1-179.93-51.97-45.46-118.72-80.01-189.08-80.12-16.99-.03-33.78,2.16-50.26,6.19-1.87.46-1.08,3.35.8,2.89,76.07-18.6,153.41,9.58,214.32,55.23,64.59,48.41,109.69,116.95,157.87,180.49,45.12,59.51,94.87,116.13,161.16,152.55,29.45,16.18,61.62,28.16,95.11,32.21,35.84,4.33,70.85-1.86,104.3-14.97,34-13.33,65.51-32.05,98.87-46.79,39.84-17.61,81.82-26.34,125.3-27.95,86.67-3.21,170.16,17.5,252.9,40.75,81.64,22.94,163.4,40.08,248.19,45.62,81.25,5.31,163,2.06,243.78-7.83,160.41-19.63,317.33-65.02,465.88-128.15,18.31-7.78,36.48-15.86,54.55-24.18,1.75-.81.23-3.39-1.51-2.59h0Z" style="fill: url(#linear-gradient-20);"/>
    <path d="m2289.52,491.17c-148.38,62.55-304.23,108.38-463.52,132.63-163.85,24.94-331.5,26.74-494.03-8.1-41.05-8.8-81.85-18.88-123.24-26.05-38.82-6.73-78.04-10.47-117.41-11.67-40.2-1.22-80.87.36-120.28,8.93-38.1,8.28-73.37,24.69-109.15,39.66-34.98,14.64-71.28,27.43-109.6,28.31-37.82.87-75.15-9.16-109.28-24.96-69.99-32.39-124.86-86.83-173.92-145.06-49.55-58.81-95.24-122.67-156.33-170.4-53.79-42.03-120.56-72.25-189.86-71.44-17.33.2-34.46,2.52-51.29,6.6-1.88.45-1.08,3.35.8,2.89,75.72-18.36,153.34,5.73,216.54,48.33s112.56,106.73,161.58,166.37c47.4,57.66,97.85,113.32,163.23,150.92,60.94,35.04,129.13,49.98,197.68,30.09,36.43-10.57,70.39-27.83,105.66-41.5,38.67-15,78.54-23.06,119.96-25.28,84.86-4.54,168.16,9.05,250.65,27.53,81.06,18.16,161.76,31.88,244.92,35.3,79.94,3.28,160.14-.64,239.56-10.14,158.42-18.96,314.16-59.89,462.79-117.62,18.56-7.21,37-14.7,55.34-22.44,1.75-.74.98-3.64-.8-2.89h0Z" style="fill: url(#linear-gradient-21);"/>
    <path d="m2280.12,465.05c-147.87,56.49-301.94,97.31-458.59,120.31-162.09,23.79-327.32,28.68-489.43,2.75-39.25-6.28-78.39-13.41-117.92-17.79-40.41-4.48-81.11-5.73-121.75-5.71-38.27.02-76.79,1.74-114.43,9.09-37.67,7.35-73.31,21.71-109.52,33.99-36.26,12.3-73.79,21.99-112.4,20.27s-73.7-12.91-107.18-29.03c-69.73-33.58-125.56-87.19-177.07-143.83-50.02-55.01-97.75-113.68-158.69-157.22-56.77-40.55-125.87-68.07-196.46-65.78-17.06.55-33.91,2.98-50.5,6.96-1.88.45-1.08,3.34.8,2.89,75.45-18.14,153.36,2.06,218.72,41.46,65.65,39.58,116.23,98.22,166.82,154.72,49.47,55.25,100.74,109.36,165.11,147.42,60.57,35.81,128.65,54.61,198.63,40.08,36.86-7.66,71.76-22.14,107.37-33.99,38.96-12.97,78.46-20.35,119.46-22.73,81.98-4.76,163.76,1.71,244.65,14.95,80.35,13.15,160.09,23.38,241.63,24.63,79.55,1.22,159.2-3.54,238.19-12.95,156.44-18.63,310.83-55.36,459.38-107.74,18.08-6.38,36.07-13.01,53.98-19.85,1.79-.68,1.01-3.58-.8-2.89h0Z" style="fill: url(#linear-gradient-22);"/>
    <path d="m2270.72,438.94c-148.1,50.66-301.25,86.65-456.25,108.36-159.1,22.28-320.54,30.04-480.57,13.75-39.75-4.05-79.47-8.63-119.41-10.15-39.04-1.49-78.17-.23-117.21.66-38.69.89-77.6,2.46-115.77,9.29-36.84,6.59-72.38,18.62-108.56,27.96-36.93,9.54-75.04,15.84-113.23,11.62-37.97-4.2-74.53-17.05-108.44-34.34-68.03-34.69-123.85-86.56-176.95-140.55s-102.22-107.62-164.91-147.21c-58.45-36.91-127.43-60.37-197.13-57.21-17.41.79-34.6,3.35-51.54,7.39-1.88.45-1.08,3.34.8,2.89,75.27-17.94,153.47-1.44,220.85,34.65,66.48,35.6,119.68,89.84,171.84,143.25,97.06,99.38,217,213.16,368.05,192.89,36.03-4.84,70.74-15.91,105.67-25.56,39.28-10.86,78.62-17.69,119.33-20.16,77.98-4.73,156.87-5.27,234.66,2.26,81.47,7.88,162.14,15.11,244.11,14.12,78.18-.94,156.31-6.46,233.95-15.55,154.75-18.13,308.06-50.61,456.68-97.44,18.34-5.78,36.61-11.8,54.81-18.03,1.82-.62,1.04-3.52-.8-2.89h0Z" style="fill: url(#linear-gradient-23);"/>
    <path d="m2261.33,412.82c-150.11,45.26-304.31,76.68-459.69,97.15-156.45,20.6-314.1,30.4-471.84,23.94-38.85-1.59-77.71-3.04-116.59-1.5-38.9,1.55-77.71,4.91-116.62,6.48-37.35,1.51-74.87,2.86-111.85,8.69-37.48,5.9-74.17,15.8-111.55,22.23-38.53,6.62-77.74,8.79-116.33,1.34-35.58-6.87-69.64-20.37-101.59-37.26-67.16-35.5-123.62-86.06-178.65-137.7-52.83-49.58-105.77-100.67-169.43-136.35-60.87-34.11-131.04-54.17-201.16-49.61-17.11,1.11-34.01,3.78-50.69,7.72-1.88.44-1.08,3.34.8,2.89,75.16-17.77,153.68-4.81,222.95,27.88,67.85,32.02,123.87,82.47,178.1,133.32,100.47,94.21,217.28,203.47,365.38,196.57,36.36-1.69,71.94-9.63,107.4-17.29,38.9-8.4,77.59-14.68,117.35-17.11,39.27-2.4,78.59-3.37,117.84-6.01,38.26-2.58,76.39-4.08,114.74-3.1,79.66,2.04,158.79,5.6,238.51,2.44,78.2-3.09,156.3-9.48,234.03-18.5,153.82-17.85,306.7-46.28,455.94-87.76,17.97-4.99,35.88-10.2,53.73-15.58,1.84-.56,1.06-3.45-.8-2.89h0Z" style="fill: url(#linear-gradient-24);"/>
    <path d="m2251.93,386.71c-149.35,38.9-301.76,65.4-454.79,84.78-154.44,19.56-309.55,32.26-465.18,36.11-38.74.96-77.41,2.57-115.92,7.08-38.28,4.48-76.24,9.6-114.77,11.56-38.43,1.96-76.93,2.87-115.13,7.77-37.7,4.84-75.11,12.06-113,15.29-37.88,3.23-75.91,1.91-112.93-7.22-36.65-9.04-71.59-24.22-104.56-42.46-66.13-36.57-123.08-86-179.99-135.16s-109.21-93.34-173.87-124.63-131.73-46.02-200.81-40.53c-17.21,1.37-34.24,4.16-51.04,8.1-1.88.44-1.08,3.33.8,2.89,73.09-17.14,149.42-8.53,218.95,18.74,69.87,27.4,129.26,73.68,185.81,122.03,105.93,90.55,221.1,198.06,368.82,202.74,36.62,1.16,72.97-3.67,109.09-9.11,39.25-5.92,78.23-11.09,117.91-13.11s77.53-3.19,116.13-7.81c38.17-4.57,76.09-9.63,114.53-11.48,78.74-3.79,157.43-4.43,236.1-10.09,76.72-5.52,153.33-12.82,229.73-21.71,151.42-17.63,302.35-41.78,450.65-77.3,18.14-4.35,36.23-8.88,54.28-13.58,1.87-.49,1.08-3.38-.8-2.89h0Z" style="fill: url(#linear-gradient-25);"/>
    <path d="m2242.53,360.59c-149.82,32.79-301.85,54.49-454.02,72.92-153.51,18.59-307.3,33.71-461.19,48.62-36.53,3.54-72.77,8.39-108.79,15.49-37.78,7.45-75.12,13.99-113.64,16.11-38,2.1-76.04,2.39-113.98,5.58s-74.59,7.45-112.07,7.92-76.21-3.4-112.98-14.03-70.27-25.96-102.94-44.13c-65.76-36.56-123.76-84.29-182.46-130.91-55.82-44.33-113.36-87.72-179.34-115.89-64.15-27.39-134.85-40.4-204.5-33.98-17.56,1.62-34.94,4.55-52.11,8.55-1.88.44-1.08,3.33.8,2.89,73.82-17.18,150.99-11.36,222.55,12.98,71.09,24.18,132.99,66.87,191.69,112.74,110.24,86.13,224.31,188.91,369.99,202.87,75.23,7.21,150.94-7,226.11-9.62,37.01-1.29,74.1-2.35,110.73-8.19,37.04-5.91,73.51-14.73,110.72-19.72,77.41-10.38,155.7-15.03,233.38-23.21,76.22-8.02,152.42-16.34,228.55-25.21,150.47-17.54,300.88-37.57,449.47-67.39,18.32-3.68,36.6-7.52,54.85-11.52,1.89-.41,1.09-3.31-.8-2.89h0Z" style="fill: url(#linear-gradient-26);"/>
    <path d="m2233.13,334.48c-150.87,26.66-303.24,43.56-455.35,61.26-150.61,17.52-301.61,35.51-451.06,61.45-36.18,6.28-71.67,14.6-107.02,24.48s-72.92,17.58-111.03,19.57c-37.66,1.97-75.42,1.44-113.1,2.76s-75.48,2.8-113.17.49c-76.92-4.71-147.35-29.53-214.23-67.08-65.01-36.5-123.71-82.35-183.8-126.18-57.39-41.87-117-81.8-183.97-106.71-66.36-24.69-138.39-34.72-208.88-27.15-17.67,1.9-35.16,4.95-52.47,8.94-1.88.43-1.08,3.33.8,2.89,74.26-17.15,151.88-14.24,225.06,6.78,70.19,20.17,132.96,57.48,192.22,99.34,117.8,83.21,233.46,185.82,381.36,207.65,73.3,10.82,147.9,3.55,221.62,2.61,36.44-.47,73.14-1.25,109.03-8.23,35.68-6.94,70.17-18.88,105.61-26.88,72.76-16.43,147.45-25.39,221.24-35.96s154.64-20.81,232.12-29.95c150.3-17.73,300.91-33.69,450.37-57.81,18.5-2.99,36.99-6.11,55.44-9.37,1.9-.34,1.09-3.23-.8-2.89h0Z" style="fill: url(#linear-gradient-27);"/>
    <path d="m2224.13,308.31c-150.32,20.14-301.57,32.14-452.26,49.06s-299.37,38.08-445.12,75.4c-35.27,9.03-69.37,20.72-103.56,33.13-35.94,13.04-71.71,21.11-110.01,22.79-37.43,1.65-75.05.01-112.49-.67-38.04-.69-76.14-2.08-113.9-7.01-76.27-9.96-146.45-37.54-213.18-75.19-64.72-36.53-124.42-80.76-186.12-122-58.14-38.86-118.8-74.82-185.64-96.55-68.89-22.4-142.73-29.6-214.64-20.96-18.03,2.17-35.88,5.37-53.58,9.43-1.88.43-1.08,3.32.8,2.89,75.18-17.22,153.7-17.09,228.76.87,70.68,16.92,135.2,50.37,196.05,89.38,121.67,78,237.06,176.76,382.11,207.43,71.81,15.18,145.47,14.47,218.49,15.73,36.13.62,72.75.65,108.31-6.59s68.56-22.17,102.76-33.42c70.61-23.23,144.53-37.14,217.5-50.73,76.19-14.19,152.88-25.37,229.81-34.69,150.51-18.24,301.71-30.09,452.2-48.45,17.92-2.19,35.82-4.47,53.71-6.87,1.89-.25,1.91-3.26,0-3h0Z" style="fill: url(#linear-gradient-28);"/>
    <path d="m2214.73,282.19c-149.93,13.59-300.42,20.65-450.11,36.95-149.03,16.23-299.44,41.47-441.35,91.11-33.17,11.6-64.66,26.3-96.7,40.61-35.9,16.04-72.1,24.37-111.47,25.28-37.71.87-75.69-2.14-113.27-5.02-38.29-2.94-76.49-7.33-114.15-14.97-149.87-30.39-270.49-122.29-398.27-200.25-59.53-36.32-121.92-68.81-189.53-87.14-70.71-19.17-145.19-23.11-217.72-13.39-18.13,2.43-36.11,5.78-53.94,9.83-1.88.43-1.09,3.32.8,2.89,75.8-17.24,154.8-19.96,231.29-5.38,71.51,13.63,137.9,43.36,200.59,79.69,125.43,72.68,241.21,168.05,383.53,206.59,71.23,19.29,144.77,25.06,218.2,28.97,35.55,1.89,71.75,2.77,106.81-4.45,34.96-7.21,66.36-24.12,98.73-38.43,68.4-30.24,141.7-49.7,214.36-66.67,74.85-17.48,150.68-30.22,226.92-39.82,149.33-18.81,299.73-26.45,449.67-38.64,18.55-1.51,37.1-3.09,55.64-4.78,1.91-.17,1.93-3.17,0-3h0Z" style="fill: url(#linear-gradient-29);"/>
    <path d="m2205.33,256.08c-150.04,7.01-300.47,9.02-449.94,25.02-146.1,15.64-293.23,45.22-428.26,104.77-33.85,14.93-65.19,33.83-97.87,51.01-34.8,18.29-70.74,26.43-110,26.44-38.58,0-77.49-4.87-115.65-10.17s-73.34-12.01-109.28-21.45c-148.28-38.95-270.5-129.84-402.57-203.19-61.13-33.95-125.32-63.14-193.88-78.27-71.14-15.7-145.06-16.67-217.04-6.37-19.5,2.79-38.85,6.45-58.06,10.79-1.88.42-1.09,3.32.8,2.89,76.51-17.27,155.98-22.82,233.82-11.63,72.4,10.42,140.64,36.56,205.23,70.28,130.1,67.93,247.88,160.87,389.08,206.2,70.07,22.49,142.75,34.25,215.88,41.09,35.57,3.33,72.09,5.17,107.25-2.54,34.32-7.53,63.93-26.02,94.24-42.91,65.15-36.33,136.24-61.53,207.79-81.98,73.97-21.14,149.63-35.7,225.87-45.71,148.21-19.45,297.85-22.85,447.03-28.87,18.53-.75,37.05-1.54,55.57-2.41,1.92-.09,1.93-3.09,0-3h0Z" style="fill: url(#linear-gradient-30);"/>
    <path d="m2195.94,229.96c-149.26.33-299-2.79-447.68,12.85-146.64,15.42-293.99,50.6-423.9,122.34-32.51,17.95-61.81,40.58-93.72,59.41-33.77,19.92-70.09,27.03-109.02,25.64-38.02-1.36-76.14-8.1-113.39-15.54s-71.22-16.23-106.01-27.33c-146.35-46.7-270.57-136.43-406.43-205.13-62.68-31.69-128.46-57.87-197.88-70.12-73.37-12.95-148.71-10.81-222.1.77-19.61,3.09-39.09,6.92-58.45,11.26-1.88.42-1.09,3.31.8,2.89,76.83-17.21,156.1-25.51,234.71-18.01,74.53,7.11,145.69,30.21,213.19,62,133.8,63.01,253.73,153.12,393.13,204.68,69.48,25.7,141.73,43.1,215.1,53.1,33.77,4.6,68.65,7.47,102.32.58,34.68-7.1,63.34-26.55,92.07-46.2,124.28-85.01,273.99-129.24,421.84-150.22,148.93-21.13,299.85-20.12,449.92-19.94,18.5.02,37,.03,55.5-.01,1.93,0,1.93-3,0-3h0Z" style="fill: url(#linear-gradient-31);"/>
    <path d="m2186.54,203.85c-150.25-6.45-301.4-14.98-451.34,1.3s-290.3,57.73-412.67,140.24c-30.35,20.46-57.07,45.88-87.6,65.95-32.4,21.3-68.47,28.09-106.82,25.57-37.8-2.48-75.52-11.26-112.12-20.68s-71.89-20.74-106.91-33.87c-144.7-54.26-271.54-143.56-411.55-207.49-63.58-29.03-130.26-51.86-199.76-61.17-75.76-10.15-152.75-4.77-227.82,8.27-19.43,3.38-38.76,7.31-58.02,11.59-1.88.42-1.09,3.31.8,2.89,77.32-17.19,156.58-28.22,235.94-24.24,74,3.71,145.58,22.5,213.88,50.68,140.04,57.79,264.27,147.48,404.1,205.87,69.15,28.87,141.05,51.57,214.84,65.01,33.09,6.03,67.55,9.97,100.85,3.24s59.58-25.74,85.18-46.42c59.63-48.17,124.39-86.89,195.32-116.13,69.02-28.45,141.57-47.29,215.25-58.79,149.75-23.37,302.19-17.77,453.02-11.23,18.48.8,36.95,1.62,55.43,2.41,1.93.08,1.93-2.92,0-3h0Z" style="fill: url(#linear-gradient-32);"/>
    <path d="m2177.14,177.73c-148.74-13.19-299.02-27.19-448.12-10.99s-286.27,64.09-401.76,155.19c-28.5,22.48-53.01,49.49-81.52,71.84-31.48,24.68-67.6,33.39-107.19,30.02-38.29-3.26-76.27-14.29-112.82-25.7s-73.61-25.45-109.39-40.79c-141.41-60.67-269.62-147.99-411.63-207.24-66.07-27.56-135.28-48.09-206.75-54.85-77.93-7.38-156.44,1.33-233.06,15.76-19.54,3.68-38.99,7.76-58.4,12.04-1.88.42-1.09,3.31.8,2.89,78.96-17.43,159.37-31.32,240.5-30.33,75.48.92,149.21,16.91,219.84,43.07,144.91,53.66,273.52,142.18,413.59,206.32,67.88,31.08,138.32,58,211.31,74.34,32.32,7.24,66.6,12.04,99.34,4.64s58.54-28.77,82.54-51.42c54.69-51.63,114.63-94.98,182.44-127.89s140.02-54.45,214.06-66.9c149.09-25.06,301.47-14.75,451.22-1.84,18.34,1.58,36.67,3.21,55.01,4.84,1.92.17,1.91-2.83,0-3h0Z" style="fill: url(#linear-gradient-33);"/>
    <path d="m2168.14,151.67c-158.26-21.38-320.04-42.69-479.31-18.96-149.49,22.27-288.83,90.11-392.59,200.99-25.97,27.75-50.82,60.15-88.47,72.24-39.57,12.7-82.35,2.53-120.9-9-68.27-20.43-133.57-49.58-197.06-81.68-124.92-63.16-244.06-138.93-375.17-189.22-63.78-24.46-130.32-42.27-198.52-48.23-84.16-7.36-168.44,4.56-250.84,21.05-21.45,4.29-42.84,8.91-64.2,13.59-1.89.41-1.09,3.31.8,2.89,85.71-18.78,172.52-36.65,260.65-36.78,72.81-.11,144.55,13.68,213.45,36.76,133.71,44.78,254.35,119.98,378.58,185.14,61.37,32.19,124.02,62.39,189.41,85.58s142.29,48.98,202.22,2.34c27.96-21.76,49.47-51.08,74.88-75.61,27.08-26.13,56.46-49.87,87.67-70.88,63.99-43.07,135.29-74.04,210.16-92.44,159.08-39.09,325.47-23.77,486.03-3.16,20.81,2.67,41.61,5.46,62.41,8.27,1.89.26,2.7-2.64.8-2.89h0Z" style="fill: url(#linear-gradient-34);"/>
    <path d="m9.4,119.12c82.78-20.75,166.93-39.97,252.67-41.06,71.17-.91,141.18,12.67,208.31,35.79,130.44,44.93,247.27,120.47,369.85,182.28,59.76,30.13,121.28,57.44,185.65,76.19,72.08,21,146.08,34.3,220.51,18.88,35.55-7.37,66.16-20.78,96.26-40.87,30.7-20.49,60.79-41.88,91.67-62.1,31.11-20.37,63.08-39.59,96.8-55.36,36.21-16.93,74.43-28.95,113.28-38.14,158.38-37.48,323.49-23.78,483.49-5.51,19.93,2.27,39.84,4.64,59.76,7.02,1.91.23,1.9-2.77,0-3-158.75-18.97-320.72-38.14-479.99-13.8-75.69,11.57-149.11,33.1-216.21,70.41-32.98,18.34-64.4,39.29-95.53,60.56-29.56,20.2-58.79,43.75-91.28,59.06-74.66,35.19-158.18,29.2-236.25,10.83-68.62-16.15-134.07-41.86-197.49-72.39-122.37-58.92-237.06-133.79-363.76-183.67-61.53-24.22-125.88-41.94-191.94-47.38-82.52-6.8-165.04,6.36-245.32,24.6-20.48,4.66-40.89,9.66-61.26,14.77-1.87.47-1.08,3.36.8,2.89h0Z" style="fill: url(#linear-gradient-35);"/>
    <path d="m16.92,122.9c81.14-23.14,164.08-44,248.91-45.44,69.11-1.18,137.02,12.55,201.98,35.55,128.16,45.39,242.39,121.32,364.74,179.31,60.05,28.46,121.98,52.06,186.94,66.55,77.84,17.36,156.06,30.99,236.07,29.4,18.26-.36,36.51-1.34,54.72-2.81,9.14-.73,18.26-1.59,27.38-2.53,7.38-.76,17.21-.12,24.15-2.67,6.15-2.26,12.17-9.31,17.57-13.26,7.81-5.72,15.76-11.25,23.83-16.59,14.81-9.8,30.04-18.97,45.58-27.56,67.57-37.32,141.55-64.93,216.73-82.29,157.68-36.41,321.75-24.58,481.27-8.85,20.25,2,40.49,4.08,60.73,6.16,1.92.2,1.9-2.8,0-3-159.56-16.42-322.01-33.57-481.67-8.91-75.78,11.7-149.87,34.04-219.92,65.2-33.95,15.1-66.9,32.51-98.13,52.67-14.31,9.23-27.55,19.88-41.63,29.38-8.18,5.52-17.07,5.53-26.69,6.54-9.11.95-18.24,1.82-27.37,2.57-80.67,6.63-159.33.41-238.65-15.13-72.07-14.12-141.09-33.49-208.37-63.22-123.02-54.36-235.79-129.65-360.59-180.2-60.29-24.42-123.46-42.5-188.49-47.75-80.79-6.53-161.5,7.62-239.54,27.55-20.21,5.16-40.3,10.73-60.36,16.45-1.85.53-1.07,3.42.8,2.89h0Z" style="fill: url(#linear-gradient-36);"/>
    <path d="m24.44,126.68c78.22-25.28,158.7-47.51,241.38-49.83,68.34-1.92,135.45,11.95,199.51,35.12,126.43,45.74,238.78,122,361.77,175.39,29.73,12.91,60.06,24.52,91.11,33.88,34.83,10.51,70.58,17.26,106.19,24.54,79.31,16.21,158.79,30.59,239.04,41.39,36.02,4.85,72.13,9.11,108.36,12.12,6.67.55,16.9,3.4,23.31,1.68,7.15-1.92,15.39-9.78,21.87-13.65,15.31-9.15,31.03-17.61,47.04-25.47,69.37-34.06,144.54-58.48,219.85-75.44,158.71-35.73,323.52-25.23,484.24-11.94,19.78,1.64,39.55,3.33,59.32,5.02,1.92.16,1.91-2.84,0-3-159.47-13.6-321.38-28.72-480.65-4.84-77.41,11.6-154.03,33.33-226.75,62.22-33.22,13.2-65.72,28.36-96.7,46.24-7.36,4.25-14.63,8.65-21.8,13.21-9.43,6-19.1,3.85-29.74,2.97-19.05-1.58-38.08-3.5-57.07-5.68-80.47-9.23-160.4-22.14-239.87-37.75-71.82-14.11-143.5-27.34-211.95-53.96-125.56-48.83-237.99-125.28-362.45-176.52-59.68-24.57-122.33-42.86-186.94-47.52-79.01-5.7-157.73,9.76-233.34,31.52-18.95,5.46-37.77,11.34-56.54,17.4-1.83.59-1.05,3.49.8,2.89h0Z" style="fill: url(#linear-gradient-37);"/>
    <path d="m31.97,130.46c75.67-27.69,154.04-54.26,235.49-55.12,68.32-.72,136.03,16.67,199.49,40.83,125.3,47.72,238.26,122.76,364.48,168.36,70.32,25.41,144.39,36.51,217.32,51.89,77.52,16.35,154.83,33.64,231.84,52.22,37.35,9.01,74.69,18.09,112.28,26.04,8.97,1.9,17.96,3.74,26.97,5.49,7.85,1.53,8.33,1.59,15.31-2.02,16.76-8.67,33.96-16.51,51.42-23.66,70.92-29.06,146.25-48.56,221.17-64.17,157.5-32.81,320.23-23.73,479.6-13.22,20,1.32,40,2.68,59.99,4,1.93.13,1.92-2.87,0-3-158.82-10.56-319.55-23.73-477.99-1.49-77.14,10.83-154.32,30.09-228.22,54.61-33.37,11.07-66.23,23.87-97.76,39.44-4.08,2.01-8.61,5.19-12.93,6.58-4.6,1.48-9.12.18-13.66-.72-10.28-2.03-20.53-4.16-30.77-6.37-17.96-3.87-35.86-7.99-53.74-12.21-77.71-18.34-155.31-36.96-233.35-53.87-39.98-8.66-80.01-17.07-120.11-25.16-35.88-7.24-71.83-13.64-106.94-24.16-131.06-39.27-246.44-115.51-371.77-168.47-59.2-25.01-121.04-44.72-185.18-51.52-78.11-8.28-154.37,8.63-228.16,33.19-18.64,6.2-37.12,12.85-55.57,19.6-1.8.66-1.02,3.56.8,2.89h0Z" style="fill: url(#linear-gradient-38);"/>
    <path d="m39.49,134.23c73.03-30.17,149.5-58.97,229.57-59.74,68.94-.66,137.26,18.28,200.96,43.29,125.64,49.33,240.33,125.26,371.32,161.13,35.81,9.8,72.58,15.44,108.95,22.72,39.67,7.95,79.21,16.52,118.58,25.83,76.72,18.13,152.37,39.71,227.41,63.82,36.36,11.69,72.63,23.66,109.15,34.87,8.87,2.72,17.76,5.4,26.67,8.02,4.46,1.31,8.93,2.61,13.4,3.89s10.92,4.63,15.39,4.33c5.37-.36,12.44-4.7,17.55-6.64,7.98-3.03,16.03-5.9,24.12-8.62,72.25-24.36,147.66-38.26,222.43-52.35,159.51-30.05,322.4-22.67,483.61-14.85,19.55.95,39.09,1.9,58.64,2.81,1.93.09,1.93-2.91,0-3-160.83-7.46-323.25-19.23-483.52,2.4-75.75,10.22-152.1,25.75-225.98,45.38-17.63,4.68-35.16,9.8-52.47,15.54-8.13,2.69-16.21,5.52-24.23,8.52-9.26,3.46-17.05,7.96-27.06,5.77-37.33-8.16-74.22-22.24-110.55-33.98-75.19-24.28-150.4-48.02-227.04-67.38-78.29-19.79-157.35-34.79-236.42-50.91-135.14-27.55-252.79-103.55-378.01-157.36-58.84-25.29-120.16-45.89-184.02-53.35-77.55-9.06-152.29,8.44-224.69,35.37-18.33,6.82-36.46,14.14-54.53,21.61-1.76.73-.99,3.63.8,2.89h0Z" style="fill: url(#linear-gradient-39);"/>
    <path d="m47.37,137.86c71.39-33.26,147.51-64.81,227.65-64.22,68,.5,134.94,20.27,197.59,45.34,125.25,50.12,241.81,124.75,376.38,148.66,79.86,14.19,159.23,30.91,237.55,52.11,76.53,20.72,151.22,46.64,225.22,74.99,35.48,13.59,70.83,27.52,106.38,40.93,18.25,6.89,36.56,13.63,54.96,20.13,6.26,2.21,14.87,7.3,21.44,7.35,6.98.05,16.36-4.66,23.1-6.43,73.12-19.19,148.62-27.99,223.29-38.8,80.47-11.65,160.57-18.52,241.91-19.58,81.63-1.06,163.24,1.87,244.82,4.35,19.81.6,39.62,1.18,59.43,1.67,1.93.05,1.93-2.95,0-3-162.43-4.05-326.12-14.67-487.95,5.31-76.53,9.45-153.77,20.04-229.41,35.09-17.14,3.41-34.21,7.2-51.13,11.6-8.51,2.21-18.71,7.12-27.51,5.53-9.47-1.71-19.56-6.8-28.62-10.05-36.17-12.99-72.01-26.88-107.84-40.76-74.26-28.76-148.7-56.95-225.18-79.36-77.46-22.7-156.21-40.92-235.5-55.95-36.45-6.91-72.88-12.71-108.52-23.25-33.57-9.93-66.3-22.51-98.44-36.34-62.51-26.9-122.9-58.45-185.4-85.36-60-25.83-122.44-47.39-187.66-54.66-77.01-8.58-150.23,11.16-220.75,40.94-15.93,6.73-31.66,13.88-47.33,21.18-1.75.81-.23,3.4,1.51,2.59h0Z" style="fill: url(#linear-gradient-40);"/>
    <path d="m54.9,141.64c69.01-36.26,144.1-70.4,223.74-68.8,68.52,1.37,135.3,22.14,198.32,47.66,63.59,25.74,124.84,56.88,188.5,82.46,31.51,12.66,63.61,23.98,96.51,32.46,36.12,9.32,73.24,14.15,109.84,21.15,78.95,15.11,157.26,33.98,234.04,57.84s152.1,54.36,226.28,86.47c35.66,15.43,71.18,31.18,106.89,46.5,16.59,7.12,33.23,14.14,49.93,21.01,14.22,5.84,31.05,16.88,46.46,14.07,75.49-13.76,152.56-16.88,228.82-24.07s158.49-14.09,238.51-14.99,162.97,1.2,244.45,2.16c19.93.23,39.87.39,59.8.43,1.93,0,1.93-3,0-3-162.16-.31-325.09-9.84-486.8,6.6-78.3,7.96-157.08,12.55-235.17,22.36-16.26,2.04-32.48,4.4-48.61,7.3-10.85,1.95-19.53-2.76-29.41-6.73s-19.18-7.78-28.74-11.76c-36.89-15.34-73.47-31.42-110.09-47.42-72.42-31.64-145.1-62.99-220.01-88.34-76.36-25.84-154.51-46.29-233.38-62.84-38.67-8.12-77.62-14.39-116.44-21.66-34.02-6.37-67.29-16.25-99.81-28.04-66.19-23.99-129.12-55.79-193.74-83.53-60.09-25.8-122.28-48.24-187.53-56.19-75.49-9.19-146.19,9.96-214.37,41.6-16.75,7.77-33.21,16.14-49.55,24.72-1.71.9-.2,3.49,1.51,2.59h0Z" style="fill: url(#linear-gradient-41);"/>
    <path d="m62.42,145.42c66.73-39.47,141.54-70.06,219.85-73.36,68.31-2.87,134.39,17.02,196.92,42.75,62.65,25.78,122.89,57.22,186.55,80.58,70.38,25.83,144.52,33.31,217.52,48.67,78.63,16.54,156.43,37.37,232.38,63.63,77.34,26.74,152.07,60.19,226.04,95.04,71.45,33.66,142.28,68.68,214.81,99.97,6.47,2.79,12.37,1.18,19.37.67,9.41-.68,18.83-1.22,28.26-1.66,18.21-.85,36.44-1.33,54.67-1.68,39.49-.75,78.99-.94,118.47-2.25,40.76-1.36,81.38-4.86,122.11-6.7,40.45-1.82,80.95-2.58,121.44-2.86,82.13-.55,164.27.91,246.4.28,19.89-.15,39.78-.44,59.67-.9,1.93-.04,1.93-3.04,0-3-164.3,3.76-328.53-3.59-492.65,7.39-78.52,5.25-157.26,2.96-235.82,6.99-8.76.45-17.51.99-26.26,1.66-12.13.93-20.55-3.28-31.43-8.08-18.49-8.15-36.89-16.52-55.23-25.03-36.12-16.75-72.01-34.01-107.96-51.12-72.41-34.48-145.18-68.64-220.29-96.9-74.77-28.13-151.63-50.59-229.42-68.67-40.22-9.35-80.72-17.51-121.4-24.57-35.75-6.2-71.14-11.57-105.91-22.27-67.09-20.66-129.77-52.76-193.91-80.77-59.61-26.03-121.77-49.12-187.22-53.65-73.31-5.08-145.6,15.57-211.01,47.51-16.19,7.91-31.99,16.56-47.49,25.74-1.66.98-.15,3.58,1.51,2.59h0Z" style="fill: url(#linear-gradient-42);"/>
    <path d="m69.94,149.19c63.34-42.36,136.5-74.42,213.45-78.3,69.99-3.54,137.43,18.59,201.36,44.78,64.61,26.47,127.75,57.63,195.6,75.27,36.84,9.58,74.88,13.63,112.3,20.37,40.05,7.21,79.89,15.57,119.43,25.16,78.04,18.93,155.01,42.56,229.78,71.91,76.8,30.14,151.03,66.59,224.62,103.77,71.7,36.23,142.88,73.53,215.66,107.57,7.53,3.52,11.57,5.48,19.68,5.67,8.8.2,17.6.64,26.38,1.2,18.88,1.22,37.72,3.11,56.54,5.02,39.14,3.98,78.34,8.1,117.73,8.33,40.9.25,80.41-6.76,120.95-10.63,39.76-3.8,79.75-4.76,119.68-4.49,81.58.54,163.05,6.29,244.64,5.93,19.7-.09,39.39-.57,59.06-1.52,1.92-.09,1.93-3.09,0-3-81.96,3.98-163.94-.92-245.87-3.3-40.43-1.17-80.91-1.76-121.35-.26s-80.48,7.6-120.93,11.74c-79.17,8.11-157.32-6.66-236.15-11.18-8.99-.52-19.05.34-27.79-1.74-10.39-2.47-20.51-8.8-30.16-13.4-17.78-8.48-35.47-17.13-53.1-25.89-36.59-18.17-72.95-36.82-109.36-55.36-73.28-37.32-146.84-74.37-222.62-106.39-73.08-30.87-148.54-56-225.19-76.38-39.28-10.44-78.89-19.64-118.73-27.65-39.94-8.04-80.23-13.62-120.29-20.85-70.82-12.78-136.57-43.3-202.31-71.32-60.72-25.88-123.42-50.72-189.88-55.81-72.55-5.55-144.05,15.69-207.55,49.73-16.17,8.67-31.83,18.22-47.08,28.42-1.6,1.07-.1,3.67,1.51,2.59h0Z" style="fill: url(#linear-gradient-43);"/>
    <path d="m77.47,152.97c59.71-45.28,131.5-79.01,207.18-83.37,72.18-4.16,141.28,20.51,207.34,46.66,67.26,26.63,133.11,53.05,205.14,63.45,80.73,11.66,160.78,28.21,239.42,49.9,78.07,21.54,154.83,48.16,229.06,80.58,74.97,32.74,147.68,70.56,219.85,109.02,71.43,38.06,142.39,77.07,214.76,113.34,8.49,4.26,17.65,10.51,26.72,13.23,7.51,2.25,16.75,2.03,24.49,3.1,18.53,2.56,36.96,5.79,55.38,9.04,36.89,6.52,73.79,13.23,111.11,16.8,40.72,3.89,80.08,1.59,120.69-1.85,39.96-3.39,80.11-3.98,120.19-3.53,82.83.94,165.62,6.55,248.48,4.52,19.84-.49,39.65-1.46,59.43-2.99,1.91-.15,1.93-3.15,0-3-83.13,6.44-166.52,2.19-249.72-.25-40.66-1.2-81.36-2-122.02-.83-40.83,1.18-81.43,7.43-122.25,7.6-77.97.32-153.35-19.98-230.22-29.69-21.1-2.67-39.05-13.8-57.85-23.35s-36.58-18.79-54.77-28.36c-35.81-18.84-71.43-38.05-107.09-57.19-73.51-39.45-147.28-78.52-223.04-113.5-71.82-33.16-145.95-61.02-221.69-83.82-78.04-23.49-157.66-41.74-238.05-55.1-37.97-6.31-76.05-10.54-113.2-21-34.99-9.86-68.92-23.03-102.66-36.48-64.2-25.59-129.44-53.35-199.12-58.8-71.94-5.62-142.75,16.56-204.21,53.01-15.53,9.21-30.45,19.38-44.84,30.29-1.52,1.15-.03,3.76,1.51,2.59h0Z" style="fill: url(#linear-gradient-44);"/>
    <path d="m85.29,156.51c58.67-50.65,133.65-86.96,212.14-88.85,74.83-1.8,145.51,27.37,214.69,52.13,35.07,12.55,70.53,24.44,107.13,31.68,39.53,7.82,79.87,11.6,119.56,18.76,81.07,14.63,161.22,34.52,239.62,59.84,78.23,25.26,155.19,55.62,228.72,92.47,69.67,34.92,135.66,76.51,202.17,116.99,64.5,39.25,129.86,77.68,199.5,107.21,70.05,29.7,144.98,51.56,220.32,62.5,80.74,11.73,161.72,2.65,242.9,4.32,84.16,1.74,168.35,7.34,252.54,3.63,20.71-.91,41.38-2.45,62-4.7,1.9-.21,1.92-3.21,0-3-84.31,9.17-169.22,5.64-253.79,2.81-42.32-1.42-84.68-2.71-127.03-2.05s-82.38,4.29-123.75,1.6c-79.86-5.2-158.75-25.38-233.75-52.74-73.85-26.94-142.81-65.3-210.06-105.62-67.82-40.66-134.38-83.54-204.33-120.54-70.68-37.38-144.95-68.27-220.49-94.35-78.45-27.09-158.8-48.67-240.2-64.88-39.23-7.81-78.7-14.35-118.34-19.67-39.3-5.27-77.08-14.92-114.63-27.61-68.58-23.17-136.26-53.93-209.14-60.57-73.81-6.72-146.35,16.92-207.45,57.65-14.14,9.43-27.6,19.79-40.46,30.89-1.46,1.26.67,3.38,2.12,2.12h0Z" style="fill: url(#linear-gradient-45);"/>
    <path d="m92.82,160.29c54.68-54.01,128.95-92.1,206.7-94.36,77.57-2.26,150.56,29.35,223.82,50.19,38.26,10.88,76.49,16.29,115.78,21.7,40.71,5.61,81.22,12.63,121.44,21.03,80.2,16.75,159.27,38.96,236.46,66.44,78.07,27.8,154.46,60.84,227.63,99.8,70.19,37.38,137.45,79.91,205.12,121.59,67,41.27,134.65,81.85,205.95,115.36,69.93,32.86,143.06,57.04,218.72,72.77,79.73,16.58,161.03,23.76,242.22,28.41,83.98,4.81,168.45,5.52,252.28-2.29,19.37-1.81,38.68-4.12,57.94-6.89,1.9-.27,1.09-3.17-.8-2.89-85.19,12.27-171.53,14.43-257.46,11.48-84.77-2.92-170.31-8.82-253.96-23.22-79.6-13.7-157.53-35.69-231.55-68.19-72.7-31.92-141.49-71.89-209.17-113.22s-134.68-84.27-204.2-122.7-144.58-72.72-220.24-101.28c-76.58-28.91-155.15-52.57-234.94-70.8-40.74-9.31-81.8-17.21-123.09-23.65-39.49-6.16-79.47-9.34-118.39-18.7-73.18-17.59-143.27-49.86-218.83-56.78-73.78-6.76-146.21,17.62-205.35,61.31-13.52,9.99-26.23,20.96-38.19,32.77-1.38,1.36.75,3.48,2.12,2.12h0Z" style="fill: url(#linear-gradient-46);"/>
    <path d="m100.34,164.07c50.54-57.52,124.25-97.18,201.47-100.18,80.32-3.12,156.18,29.86,234.22,43.25,40.31,6.91,81.26,9.88,121.67,16.45s81.02,14.71,121.07,24.23c79.92,18.99,158.49,43.62,235.06,73.36,78.06,30.31,154,65.96,227.24,106.56,71.33,39.54,140.28,83.15,209.51,126.19,135.28,84.12,273.14,165.13,427.31,209.36,78.1,22.41,158.25,35.01,239.1,42.14s168.4,8.58,252-1.15c19.35-2.25,38.62-5.14,57.79-8.61,1.9-.34,1.09-3.24-.8-2.89-84.73,15.36-171.28,18.05-257.14,13.36-84.56-4.61-169.35-15-251.62-35.44-159.94-39.73-302.74-118.95-441.9-204.97-69.3-42.84-137.98-86.76-208.78-127.13-71.14-40.56-144.65-76.73-220.44-107.77-151.59-62.09-311.63-104.2-474.57-121.95-79.37-8.65-154.32-40.44-233.87-47.11-72.92-6.11-144.06,17.87-201,63.36-13.91,11.11-26.7,23.44-38.45,36.8-1.27,1.45.84,3.58,2.12,2.12h0Z" style="fill: url(#linear-gradient-47);"/>
    <path d="m108.1,167.54c46.27-61.24,119.95-101.92,196.79-106.27,42.16-2.39,84.02,5.09,125.29,12.81,39.89,7.47,79.42,12.97,119.76,17.24,164.35,17.38,325.21,62.07,477.5,125.72,155.51,65,298.21,152.9,440.67,242.12,138.12,86.5,278.06,173.88,431.8,230.14,153.32,56.11,324.77,81.02,487.21,58.72,20-2.75,39.85-6.34,59.55-10.72,1.88-.42,1.09-3.31-.8-2.89-84.84,18.86-172.48,21.73-258.9,14.54-84.99-7.07-169.1-23.35-250.15-50-159.34-52.39-303.81-140.31-445.27-228.68-142.71-89.15-284.74-179.02-439.58-246.04-149.26-64.61-306.79-111.19-468.29-131.96-43.25-5.56-86.49-8.83-129.43-16.73-39.74-7.31-79.54-15.86-120.04-17.46-72.26-2.85-142.62,23.02-196.02,71.88-12.01,10.99-22.86,23.08-32.67,36.07-1.16,1.54,1.44,3.04,2.59,1.51h0Z" style="fill: url(#linear-gradient-48);"/>
    <path d="m115.62,171.32c42.38-65.99,116.89-106.81,194.27-113.9,42.44-3.89,85.03.81,127.25,4.99,41.71,4.13,83.56,6.41,125.17,11.62,166.58,20.87,328.38,71.88,481.21,140.54,154.89,69.58,299.11,159.18,442.44,249.6,142.48,89.88,285.33,183.09,440.07,250.84,149.12,65.29,316.52,102.52,479.24,76.94,20.66-3.25,41.09-7.63,61.28-13.03,1.86-.5,1.07-3.39-.8-2.89-167.68,44.85-348.78,13.84-507.13-50.48-158.7-64.47-304.44-158.79-448.8-249.86-144.76-91.32-289.72-183.05-445.43-254.89-150.59-69.48-309.89-122.12-474.33-146.01-39.72-5.77-79.54-9.04-119.53-12.29-43.36-3.52-86.62-9.81-130.21-9.51-73.34.51-145.04,25.99-197.08,78.84-11.4,11.58-21.45,24.3-30.23,37.97-1.05,1.63,1.55,3.14,2.59,1.51h0Z" style="fill: url(#linear-gradient-49);"/>
    <path d="m123.15,175.1c37.25-69.3,110.53-108.39,185.58-122.94,85.2-16.51,176.13-8.8,261.42,3.4,167.83,24.01,329.37,81.22,481.97,153.9,156.38,74.49,303.92,165.85,449.99,258.55,146.66,93.09,292.03,190.84,447.03,269.75,146.08,74.37,311.77,127.97,477.05,97.86,20.41-3.72,40.5-8.81,60.27-15.09,1.83-.58,1.05-3.48-.8-2.89-170.08,54.03-350.33,7.02-506.09-68.12-77.89-37.58-152.44-81.89-226.22-126.89-75.71-46.18-150.38-94.02-225.21-141.62-148.11-94.22-297.2-187.86-455.2-264.83-150.97-73.55-310.57-132.5-476.79-159.65-82.84-13.53-169.62-21.96-253.35-12.54-71.63,8.05-143.9,33.77-193.31,88.42-11.32,12.52-20.95,26.31-28.94,41.17-.91,1.7,1.67,3.22,2.59,1.51h0Z" style="fill: url(#linear-gradient-50);"/>
  </g>
</svg>