<svg width="1100" height="250" viewBox="0 0 1265 319" fill="none" xmlns="http://www.w3.org/2000/svg">
<g opacity="0.5" clip-path="url(#clip0_440_122)">
<path d="M2148.57 -6.59908C2066.07 -19.1591 1981.33 -27.7091 1898.65 -11.7691C1825.69 2.30093 1757.96 34.8309 1694.74 72.9909C1562.71 152.681 1443.24 261.171 1291.11 301.741C1214.67 322.131 1136.3 319.551 1061.49 293.771C988.93 268.771 923.54 226.601 862 181.501C743.47 94.6509 628.94 -13.4891 480.72 -45.2591C448.75 -52.1091 410.42 -59.4191 379.33 -45.7491C346.03 -31.0991 327.09 3.01093 291.48 14.4109C254.75 26.1709 211.9 23.1009 174.17 18.3009C134.28 13.2309 95.06 2.96092 57.84 -12.2791C38.69 -20.1191 20.17 -29.3291 2.25004 -39.6491C0.570035 -40.6091 -0.939965 -38.0191 0.740035 -37.0591C67.2 1.19093 142.7 22.7909 219.41 24.7009C254.66 25.5809 292.43 23.7509 322.02 2.33091C334.92 -7.00909 345.77 -18.7691 358.14 -28.7391C375.14 -42.4591 393.75 -49.4791 415.69 -49.9891C453.35 -50.8591 492.4 -41.1091 527.83 -29.0591C564.42 -16.6091 599.3 0.430916 632.64 19.9009C698.29 58.2409 757.74 105.801 817.89 152.021C934.75 241.821 1068.59 332.051 1223.2 317.211C1377.2 302.421 1504.2 202.611 1628.12 119.341C1692 76.421 1758.36 35.3509 1831.34 9.73093C1911.86 -18.5391 1996.01 -21.5491 2080.25 -12.6391C2102.84 -10.2491 2125.35 -7.11909 2147.8 -3.69909C2149.69 -3.40909 2150.5 -6.29907 2148.6 -6.58907L2148.57 -6.59908Z" fill="url(#paint0_linear_440_122)"/>
<path d="M2145.29 -12.8302C2067.67 -23.7202 1988.61 -31.4602 1910.61 -19.7102C1837.22 -8.66024 1768.28 20.4597 1703.67 56.1097C1566.99 131.52 1444.59 237.48 1291.43 279.37C1216.49 299.87 1136.48 303.9 1060.69 285.49C989.01 268.08 922.89 233.3 861.08 193.82C735.47 113.59 619.84 4.58976 472.92 -35.4902C441.03 -44.1902 401.67 -54.1903 369.17 -43.2303C337.7 -32.6203 318.05 -2.62025 285.69 6.77975C248.14 17.6898 204.09 12.0797 166.22 5.45974C128.1 -1.21026 90.7899 -12.6403 55.4799 -28.4702C38.5399 -36.0602 22.1299 -44.7103 6.1899 -54.2003C4.5299 -55.1903 3.0199 -52.6002 4.6799 -51.6102C67.8999 -13.9702 139.45 9.03976 212.92 14.1598C246.57 16.4998 282.99 16.7298 312.42 -2.08023C326.09 -10.8102 337.73 -22.3202 351.36 -31.0902C368.57 -42.1602 387.55 -45.5502 407.79 -44.3102C484.69 -39.6102 558.77 -3.16024 623.62 35.9398C690.96 76.5398 753.33 124.47 818.11 168.9C876.62 209.02 937.85 246.45 1004.57 271.31C1074.01 297.19 1147.16 305.71 1220.73 296.51C1377.84 276.85 1506.03 180.74 1636.52 99.3297C1700.83 59.2097 1767.81 21.7098 1840.62 -0.610233C1918.19 -24.3902 1998.78 -26.0002 2078.97 -17.9902C2100.87 -15.8002 2122.7 -12.9902 2144.5 -9.93024C2146.39 -9.66024 2147.2 -12.5603 2145.3 -12.8203L2145.29 -12.8302Z" fill="url(#paint1_linear_440_122)"/>
<path d="M2141.61 -19.1207C2063.43 -29.2007 1983.97 -36.4507 1905.54 -24.7407C1833.02 -13.9107 1764.51 13.5492 1699.82 47.3292C1564.37 118.069 1441.64 217.639 1292.18 258.639C1217.07 279.239 1135.17 285.199 1058.04 273.249C987.09 262.249 920.02 234.469 857.25 200.369C791.85 164.839 730.65 122.229 668.12 82.0093C604.76 41.2493 539.54 0.43927 467.8 -23.9307C436.45 -34.5807 399.41 -46.2808 365.91 -41.6408C332.41 -37.0008 311.05 -8.23075 279.16 -0.350746C243.18 8.54926 201.97 1.38926 166.33 -6.06074C129.26 -13.8107 93.12 -25.9807 58.89 -42.1807C42.12 -50.1107 25.88 -59.0407 10.1 -68.7807C8.45003 -69.8007 6.94003 -67.2007 8.59003 -66.1907C69.78 -28.4307 138.85 -3.89074 210.4 3.96926C243.37 7.58926 277.65 8.64925 307.08 -8.85075C321.3 -17.3107 334.17 -28.3208 349.72 -34.3908C368.7 -41.7908 389.52 -39.9107 409.12 -36.3207C485.8 -22.2407 555.39 15.6793 621.16 55.9793C686.21 95.8493 748.55 140.009 814.06 179.139C874.6 215.299 938.52 247.269 1006.92 265.499C1076.99 284.169 1151.24 285.999 1222.87 275.989C1377.81 254.329 1505.96 162.539 1637.66 85.3793C1702.14 47.5993 1769.19 12.7093 1841.38 -7.79075C1919.84 -30.0707 2000.97 -30.8707 2081.62 -23.0507C2101.66 -21.1107 2121.64 -18.7007 2141.6 -16.1307C2143.51 -15.8807 2143.49 -18.8907 2141.6 -19.1307L2141.61 -19.1207Z" fill="url(#paint2_linear_440_122)"/>
<path d="M2138.33 -25.3497C2061.53 -34.4297 1983.66 -41.1997 1906.64 -30.6597C1834.88 -20.8397 1766.69 4.38033 1701.89 36.0803C1565.83 102.66 1442.29 197.48 1294.85 239.05C1220.47 260.02 1142.92 263.3 1066.12 258.85C992.9 254.61 922.01 233.39 855.25 203.78C789.39 174.58 727.51 137.51 665.88 100.42C601.35 61.5903 537.14 20.0703 467.47 -9.09967C435.63 -22.4297 400.39 -35.5197 365.61 -37.5697C350.3 -38.4697 336.09 -35.4497 322.27 -28.8897C307.48 -21.8697 293.9 -12.4597 277.85 -8.33966C242.23 0.810341 201.21 -8.65967 166.33 -17.3197C129.75 -26.3997 94.2099 -39.6697 60.5699 -56.6797C44.5899 -64.7597 29.1099 -73.7097 14.0399 -83.3697C12.4099 -84.4097 10.8999 -81.8197 12.5299 -80.7797C72.59 -42.2997 140.38 -15.8597 211.05 -5.42966C243.45 -0.649658 274.12 -0.139679 303.67 -15.6997C319.95 -24.2697 335.46 -33.4797 354.31 -34.6397C373.16 -35.7997 392.34 -30.9197 410.44 -25.9097C485.44 -5.13967 552.86 36.1503 619.09 75.7803C682.66 113.82 745.54 153.38 811.85 186.56C874.4 217.85 940.41 243.55 1009.6 255.36C1078.79 267.17 1157.22 267.2 1228.62 256.4C1379.94 233.51 1507.91 144.75 1639.02 72.3603C1703.79 36.5903 1771.03 3.96034 1842.86 -14.9297C1919.89 -35.1797 1999.22 -35.7797 2078.1 -28.7597C2098.21 -26.9697 2118.28 -24.7397 2138.33 -22.3697C2140.24 -22.1397 2140.23 -25.1497 2138.33 -25.3697V-25.3497Z" fill="url(#paint3_linear_440_122)"/>
<path d="M2135.05 -31.5896C2058.48 -39.8496 1980.95 -46.2196 1904.23 -36.0796C1834.47 -26.8596 1767.8 -3.84962 1704.08 25.4604C1567.98 88.0704 1444.1 178.15 1299.03 220.42C1225.7 241.79 1150.76 245.12 1074.86 242.07C1037.08 240.55 999.52 238.4 962.23 231.79C926.98 225.54 892.3 216.3 858.39 204.86C790.41 181.92 725.87 150.21 662.85 116.17C595.59 79.8404 530.78 38.3304 461.86 5.19039C430.8 -9.73961 398 -23.5796 364.12 -30.6096C349.02 -33.7396 333.81 -34.6296 318.8 -30.5996C303.79 -26.5696 289.95 -18.7096 274.72 -15.1096C239.17 -6.6896 198.55 -18.6396 164.42 -28.7696C129.62 -39.1096 95.9199 -53.0796 63.9399 -70.2496C48.1699 -78.7196 32.8699 -87.9996 17.9799 -97.9296C16.3699 -98.9996 14.8699 -96.4096 16.4699 -95.3396C74.9999 -56.3196 140.89 -27.9496 210.03 -14.4396C226.21 -11.2796 242.89 -8.77961 259.42 -9.86961C274.64 -10.8696 288.26 -16.0896 302.29 -21.6796C320.47 -28.9296 337.89 -32.1296 357.43 -28.8496C375.47 -25.8296 393.18 -19.8896 410.32 -13.5996C482.56 12.9404 548.01 55.6504 614.85 93.1304C677.74 128.39 741.54 162.53 808.49 189.53C873.33 215.68 941.24 234.87 1011.01 241.41C1083.86 248.24 1159.96 250.34 1232.38 238.68C1380.94 214.75 1508.94 128.95 1639.79 60.5604C1704.95 26.5004 1772.49 -4.28962 1844.16 -21.7896C1920.88 -40.5196 1999.55 -40.7396 2077.83 -34.1896C2096.93 -32.5896 2116 -30.6396 2135.06 -28.5796C2136.98 -28.3696 2136.96 -31.3696 2135.06 -31.5796L2135.05 -31.5896Z" fill="url(#paint4_linear_440_122)"/>
<path d="M2131.77 -37.8193C2056.08 -45.2493 1979.54 -51.1793 1903.74 -41.7593C1834.11 -33.0993 1767.31 -11.2893 1703.22 16.7307C1567.7 75.9807 1443.69 161.421 1300.89 203.661C1228.83 224.981 1156.13 229.651 1081.39 225.971C1007.62 222.341 934.36 218.071 862.26 200.961C793.74 184.701 727.48 160.011 663.52 130.721C595.04 99.3606 530.57 61.2807 464.56 25.2307C433.05 8.02068 400.74 -8.02933 366.76 -19.7993C351.43 -25.1193 335.29 -29.9393 318.9 -29.7593C303.96 -29.5993 289.88 -24.6993 275.41 -21.6293C239.29 -13.9793 200.94 -26.8293 166.96 -38.4793C132.98 -50.1293 99.5899 -65.3093 68.1299 -83.2393C52.2799 -92.2793 36.8999 -102.079 21.9199 -112.489C20.3299 -113.589 18.8299 -110.999 20.4099 -109.899C77.9799 -69.8793 142.88 -38.7993 211.19 -22.2793C227.05 -18.4393 243.66 -15.3493 260.05 -16.3993C275.38 -17.3693 289.75 -22.8393 304.79 -25.3894C342.68 -31.8194 383.57 -11.6193 416.92 4.16067C485.41 36.5807 549.19 78.1907 617.08 111.891C678.88 142.571 742.66 169.671 808.77 189.641C876.79 210.191 945.7 221.051 1016.51 225.211C1089.62 229.501 1162.89 235.141 1235.51 222.311C1381.13 196.591 1508.1 115.391 1638.42 50.5107C1703.58 18.0707 1770.97 -11.1093 1842.08 -27.7193C1918.43 -45.5493 1996.5 -45.8593 2074.3 -39.9393C2093.48 -38.4793 2112.63 -36.6893 2131.77 -34.8093C2133.69 -34.6193 2133.68 -37.6193 2131.77 -37.8093V-37.8193Z" fill="url(#paint5_linear_440_122)"/>
<path d="M2128.49 -44.0595C2053.27 -50.7395 1977.31 -56.2495 1902.03 -47.2895C1831.89 -38.9395 1764.35 -17.7195 1699.42 9.59053C1565.35 65.9705 1441.72 146.651 1301.54 188.351C1230.69 209.431 1159.31 216.271 1085.67 211.561C1048.55 209.191 1011.55 205.171 974.42 202.911C937.08 200.641 899.96 197.411 862.97 191.721C793.97 181.101 726.07 163.611 660.47 139.771C590.09 114.191 524.42 80.3005 459.79 42.7705C428.12 24.3805 396.31 6.05052 362.76 -8.72948C347.73 -15.3495 332.3 -21.8395 316.13 -25.0595C301.14 -28.0395 286.39 -26.5595 271.31 -25.2895C234.78 -22.2095 199.95 -35.0995 166.57 -48.5795C133 -62.1395 100.6 -78.6295 69.77 -97.5995C54.75 -106.839 40.14 -116.699 25.88 -127.069C24.32 -128.209 22.82 -125.599 24.37 -124.479C80.59 -83.6295 143.75 -49.7495 210.49 -29.7095C226.25 -24.9795 242.52 -21.3095 259.07 -21.5895C274.99 -21.8595 290.74 -25.1495 306.69 -23.5095C326.92 -21.4395 346.44 -12.8095 364.79 -4.56947C381.36 2.87053 397.53 11.1705 413.46 19.8805C478.36 55.3505 540.64 94.0205 609.02 122.811C672.87 149.691 739.29 170.511 807.11 184.651C841.45 191.811 876.14 197.261 911.02 200.991C947.71 204.921 984.61 206.351 1021.38 209.451C1093.52 215.531 1164.82 220.741 1236.51 207.321C1380.71 180.331 1507.66 102.441 1638.44 40.3305C1704.31 9.04053 1772.33 -18.8595 1843.79 -34.4395C1918.55 -50.7395 1994.82 -50.9595 2070.83 -45.7095C2090.08 -44.3795 2109.31 -42.7395 2128.53 -41.0395C2130.45 -40.8695 2130.44 -43.8695 2128.53 -44.0395L2128.49 -44.0595Z" fill="url(#paint6_linear_440_122)"/>
<path d="M2125.21 -50.2904C2050.95 -56.2204 1976.05 -61.3104 1901.76 -52.9804C1831.09 -45.0604 1762.82 -24.5304 1697.07 2.06958C1562.28 56.5796 1437.28 134.66 1297 175.52C1226.99 195.91 1155.81 204.32 1083.06 198.53C1046.79 195.64 1010.74 190.55 974.54 186.95C937.93 183.31 901.14 182.03 864.49 178.8C792.71 172.48 721.09 161.9 651.41 143.26C579.93 124.14 512.82 95.4496 449.27 57.6196C418.6 39.3496 388.49 20.0796 356.97 3.26956C327.97 -12.2004 300.08 -24.2404 267.05 -26.9304C230.21 -29.9304 197.71 -42.9804 164.61 -58.8404C132.91 -74.0204 102.29 -91.4404 72.9901 -110.84C58.2401 -120.6 43.8701 -130.89 29.8001 -141.61C28.2601 -142.78 26.7701 -140.18 28.2901 -139.02C83.4701 -96.9904 144.98 -59.9004 210.28 -35.8904C224.7 -30.5904 239.37 -26.6404 254.67 -25.0004C272.72 -23.0704 290.44 -22.3204 307.76 -16.2804C341.7 -4.45042 373.36 15.2896 404 33.7596C434.64 52.2296 467.07 72.6496 500.1 89.4396C531.53 105.43 564.19 118.94 597.6 130.2C663.8 152.53 732.64 166.28 801.85 175.11C874.41 184.36 947.54 186.58 1020.18 195.02C1056.72 199.26 1093.35 203.49 1130.18 203.73C1164.7 203.96 1199.13 200.51 1233.04 194.1C1376.69 166.92 1504.3 91.8196 1635.76 31.8496C1702.12 1.57957 1770.53 -25.3604 1842.12 -40.3404C1913.71 -55.3204 1992.63 -56.1704 2068.36 -51.4204C2087.33 -50.2304 2106.28 -48.7704 2125.23 -47.2604C2127.15 -47.1104 2127.14 -50.1104 2125.23 -50.2604L2125.21 -50.2904Z" fill="url(#paint7_linear_440_122)"/>
<path d="M2121.93 -56.5306C2047.36 -61.8506 1972.19 -66.5706 1897.65 -58.2606C1827.79 -50.4706 1760.11 -30.7306 1694.77 -5.28056C1559.78 47.3094 1434.03 122.659 1294.24 162.949C1224.83 182.959 1153.16 193.149 1080.95 187.049C1043.4 183.869 1006.25 177.379 968.96 172.139C931.67 166.899 897.76 164.649 861.85 162.799C717.53 155.359 568.67 148.789 440.8 73.8494C410.94 56.3494 382.45 36.6694 353.18 18.2194C325.83 0.969437 297.96 -16.1306 266.68 -25.1506C251.11 -29.6406 235.45 -33.3606 220.41 -39.5206C202.6 -46.8206 185.55 -55.9606 168.74 -65.3106C137.92 -82.4506 108.07 -101.311 79.3202 -121.741C63.8802 -132.711 48.8002 -144.151 34.0202 -155.991C32.5302 -157.191 30.3902 -155.081 31.9002 -153.871C86.5202 -110.131 146.44 -69.3206 210.46 -40.5706C241.52 -26.6306 275.43 -22.0306 305.74 -6.16057C335.85 9.60944 364.1 28.7594 392.56 47.2494C422.56 66.7394 452.95 85.7694 485.51 100.759C516.26 114.919 548.41 125.839 581.22 134.109C649.95 151.419 720.93 157.719 791.49 161.999C829.14 164.279 866.85 165.639 904.48 168.109C942.11 170.579 979.95 176.809 1017.54 182.309C1052.87 187.479 1088.38 191.899 1124.14 192.009C1158.5 192.119 1192.81 188.489 1226.57 182.209C1370.3 155.439 1499.01 82.6794 1631.37 24.3694C1697.98 -4.97057 1766.49 -31.0706 1837.96 -45.7706C1912.75 -61.1606 1988.87 -61.5406 2064.82 -57.2806C2083.86 -56.2106 2102.89 -54.8906 2121.92 -53.5406C2123.85 -53.4006 2123.84 -56.4006 2121.92 -56.5406L2121.93 -56.5306Z" fill="url(#paint8_linear_440_122)"/>
<path d="M2118.65 -62.7604C2043.78 -67.4904 1968.36 -71.8604 1893.57 -63.5504C1823.85 -55.8004 1756.18 -36.5004 1690.71 -11.7604C1555.32 39.3996 1428.59 112.45 1288.76 151.91C1218.85 171.64 1146.07 182.56 1073.39 176.3C1001.13 170.07 931.01 149.28 858.41 145.59C715.82 138.35 561.42 160.9 431.04 89.1496C371.02 56.1196 320.52 7.66959 258.94 -22.6004C227.91 -37.8504 198.09 -53.3604 169.15 -72.4104C138.42 -92.6304 108.51 -114.1 79.5202 -136.75C65.4402 -147.75 51.6102 -159.04 37.9602 -170.56C36.4902 -171.8 34.3602 -169.69 35.8402 -168.44C89.7002 -122.93 147.12 -79.2804 208.55 -44.4204C238.39 -27.4904 270.11 -15.0104 298.89 3.92958C327.59 22.8196 354.93 43.6696 383.33 62.9996C411.21 81.9696 440.23 99.1096 471.63 111.61C503.03 124.11 538.85 132.89 573.72 137.9C644.44 148.05 716.16 146.04 787.39 146.69C825.02 147.03 862.83 147.57 900.22 152.15C937.34 156.7 973.95 164.47 1010.79 170.79C1080.89 182.83 1150.08 184 1220.19 171.08C1364.1 144.56 1493.83 73.9696 1627.11 17.1396C1694.13 -11.4404 1762.94 -36.8704 1834.54 -51.3004C1909.33 -66.3804 1985.42 -66.8704 2061.34 -63.1004C2080.46 -62.1504 2099.56 -60.9704 2118.66 -59.7604C2120.59 -59.6404 2120.58 -62.6404 2118.66 -62.7604H2118.65Z" fill="url(#paint9_linear_440_122)"/>
<path d="M2115.37 -68.9902C2041.47 -73.0802 1967.12 -77.0002 1893.31 -69.2701C1823.03 -61.9101 1754.69 -43.0302 1688.47 -18.8002C1552.39 30.9998 1424.56 102.19 1284.46 141.14C1214.02 160.72 1140.66 172.06 1067.46 166.48C995.2 160.97 926.02 137.02 854.13 129.06C711.93 113.31 558.05 168.65 422.86 104.47C360.42 74.8298 311.05 24.1098 255.28 -15.6402C196.29 -57.6902 139.06 -101.04 84.0099 -148.21C69.8399 -160.36 55.8099 -172.67 41.8999 -185.12C40.4699 -186.4 38.3399 -184.29 39.7799 -183C93.4399 -134.97 148.79 -88.0602 207.14 -45.7902C237.1 -24.0902 267.6 -3.49017 296.6 19.5498C322.46 40.0898 347.75 61.4698 375.07 80.0898C403.3 99.3298 433.66 114.65 466.56 124.11C499.33 133.53 533.38 137.34 567.39 138.33C640.12 140.45 712.47 129.95 785.14 129.16C823.23 128.75 860.72 131.81 898.19 138.75C935.66 145.69 969.41 154.3 1005.25 160.99C1075.4 174.09 1145.87 173.26 1215.98 160.23C1361.12 133.25 1492.59 63.6298 1627.91 8.03984C1694.56 -19.3402 1762.88 -43.5802 1833.76 -57.3402C1908 -71.7502 1983.53 -72.1802 2058.82 -68.8902C2077.68 -68.0602 2096.53 -67.0302 2115.38 -65.9902C2117.31 -65.8801 2117.3 -68.8801 2115.38 -68.9902H2115.37Z" fill="url(#paint10_linear_440_122)"/>
<path d="M2112.09 -75.2307C2035.21 -78.9107 1957.85 -82.6107 1881.17 -73.7207C1810.74 -65.5607 1742.24 -46.1307 1675.75 -21.9407C1538.45 28.0193 1408.5 97.8093 1266.48 134.559C1195.09 153.029 1120.89 162.989 1047.17 156.089C973.63 149.199 904.12 122.219 831.23 111.759C764.77 102.229 698.8 112.449 633.03 122.289C566.31 132.279 496.18 142.469 430.11 123.169C359.96 102.679 308.01 47.3293 256.06 -1.02071C199.4 -53.7607 143.22 -107.021 87.1399 -160.381C73.3699 -173.491 59.6 -186.601 45.83 -199.711C44.43 -201.041 42.3099 -198.921 43.7099 -197.591C100.75 -143.271 157.79 -88.9507 215.24 -35.0707C243.03 -9.01073 270.85 17.0393 298.96 42.7593C323.48 65.1893 348.81 87.2393 377.69 103.939C498.42 173.729 640.19 112.299 768.78 110.649C843.65 109.689 914.02 134.479 986.43 149.669C1056.33 164.329 1127.37 164.129 1197.7 152.379C1344.4 127.879 1478.08 60.0293 1614.69 4.80928C1681.7 -22.2807 1750.19 -46.6407 1821.16 -61.0907C1897.67 -76.6707 1975.53 -77.7207 2053.28 -74.8407C2072.89 -74.1107 2092.49 -73.1807 2112.09 -72.2407C2114.02 -72.1507 2114.02 -75.1507 2112.09 -75.2407V-75.2307Z" fill="url(#paint11_linear_440_122)"/>
<path d="M2114.73 -96.6995C2041.12 -101.299 1966.96 -103.929 1893.55 -95.1094C1824.4 -86.7994 1757.28 -67.4894 1692.1 -43.3694C1556.49 6.81058 1428.16 75.7805 1288.25 114.311C1218.76 133.451 1146.55 145.311 1074.3 142.011C999.71 138.601 929.6 113.931 856.9 99.6906C785.04 85.6205 713.39 91.6906 641.02 97.6505C569.16 103.571 494.82 107.811 425.68 83.2805C359.06 59.6406 304.04 9.53055 249.35 -33.5694C193.08 -77.9094 137.19 -122.799 83.72 -170.519C70.38 -182.419 57.22 -194.509 44.21 -206.769C42.81 -208.089 40.68 -205.979 42.09 -204.649C94.98 -154.809 150.8 -108.249 207.57 -62.8994C235.84 -40.3194 264.3 -17.9794 292.84 4.26057C318.62 24.3406 344.4 44.6906 372.56 61.3705C433.28 97.3506 501.92 107.051 571.54 105.001C644.77 102.841 717.65 90.2006 791.05 94.2206C866.18 98.3305 937.12 125.241 1010.79 138.021C1080.45 150.101 1151.48 146.491 1220.7 133.251C1364.66 105.701 1496.15 39.2906 1630.63 -16.0394C1697.5 -43.5494 1765.88 -68.3695 1836.86 -82.8895C1909.77 -97.8095 1984.24 -99.6694 2058.39 -96.6894C2077.18 -95.9294 2095.96 -94.8795 2114.73 -93.6995C2116.66 -93.5795 2116.65 -96.5795 2114.73 -96.6995Z" fill="url(#paint12_linear_440_122)"/>
<path d="M2117.37 -118.179C2045 -123.789 1971.97 -125.469 1899.85 -115.879C1827.73 -106.289 1762.43 -85.9092 1696.84 -60.5892C1562.22 -8.61919 1434.2 59.9108 1294.46 98.2308C1225.48 117.141 1153.8 129.181 1082.08 126.591C1007.25 123.891 936.98 100.061 864.42 84.4008C723 53.8908 574.11 95.4608 435.4 48.1508C368.74 25.4108 309.86 -18.2192 251.5 -56.5592C193.14 -94.8992 135.35 -134.129 81.8699 -179.049C68.4799 -190.299 55.3999 -201.899 42.6099 -213.829C41.1999 -215.149 39.0699 -213.029 40.4899 -211.709C90.8499 -164.729 146.21 -123.689 203.17 -85.1192C232.92 -64.9692 263.04 -45.3692 293.21 -25.8492C321.84 -7.32919 350.31 11.6308 380.52 27.5108C442.47 60.0708 510.73 72.4408 580.14 74.8808C653.14 77.4408 726.32 70.4308 799.19 77.2108C872.06 83.9908 944.46 111.041 1018.18 123.151C1087.43 134.521 1157.9 130.391 1226.59 117.221C1369.35 89.8408 1500.15 25.2008 1632.87 -31.2692C1699.64 -59.6792 1767.77 -85.8992 1838.71 -101.889C1912.47 -118.509 1988.13 -121.849 2063.47 -118.519C2081.45 -117.719 2099.42 -116.549 2117.36 -115.159C2119.29 -115.009 2119.28 -118.009 2117.36 -118.159L2117.37 -118.179Z" fill="url(#paint13_linear_440_122)"/>
<path d="M2120.01 -139.651C2048.86 -146.251 1976.96 -147.001 1906.11 -136.711C1834.92 -126.371 1766.34 -103.891 1699.82 -77.0508C1567.5 -23.6508 1440.9 43.5092 1302.73 81.5792C1232.76 100.859 1159.91 113.489 1087.13 111.199C1013.02 108.869 943.56 85.9692 872.12 68.8292C730.92 34.9392 582.35 58.0192 443.06 12.5292C375.3 -9.60078 312.11 -46.9208 249.57 -80.5708C190.69 -112.261 132.52 -145.841 80.0001 -187.471C66.5701 -198.111 53.5801 -209.281 40.9901 -220.901C39.5701 -222.211 37.4501 -220.091 38.8701 -218.781C88.2701 -173.151 144.44 -136.031 202.79 -102.901C262.59 -68.9508 323.7 -35.3608 386.25 -6.73079C450.6 22.7292 519.42 37.2992 589.62 44.0692C663.92 51.2392 738.91 49.6992 812.89 60.4092C884.63 70.7892 952.83 96.9492 1024.41 108.209C1094.61 119.249 1165.9 114.299 1235.38 100.649C1376.71 72.8792 1506.64 9.93922 1637.6 -47.4708C1703.85 -76.5108 1771.28 -103.821 1841.7 -121.061C1912.12 -138.301 1990.46 -143.971 2065.65 -140.491C2083.8 -139.651 2101.92 -138.311 2120.02 -136.631C2121.94 -136.451 2121.93 -139.451 2120.02 -139.631L2120.01 -139.651Z" fill="url(#paint14_linear_440_122)"/>
<path d="M2122.65 -161.129C2051.41 -168.839 1979.23 -168.599 1908.42 -156.959C1838.6 -145.479 1771.54 -122.169 1706.45 -94.909C1573.82 -39.379 1446.43 28.011 1307.04 66.041C1236.9 85.181 1163.75 98.081 1090.81 95.921C1017.2 93.751 948.6 71.231 878.14 52.431C808.71 33.911 737.32 27.021 666.16 18.681C591.63 9.95097 516.73 -2.16901 444.95 -24.579C377.92 -45.499 312.77 -74.619 248.34 -102.359C189.6 -127.659 131.74 -156.039 80.1901 -194.259C65.9901 -204.779 52.4001 -216.049 39.3701 -227.979C37.9501 -229.279 35.8201 -227.169 37.2501 -225.859C85.2401 -181.939 141.27 -148.629 199.87 -120.889C260.68 -92.099 323.54 -66.689 386.21 -42.249C455.08 -15.389 526.74 1.53098 599.72 12.811C672.63 24.071 746.48 28.521 819.04 42.101C889.89 55.361 957.42 82.051 1028.74 93.111C1098.87 103.991 1169.97 98.621 1239.34 85.051C1381.34 57.261 1512.21 -4.94904 1643.19 -64.009C1709.27 -93.799 1776.36 -122.289 1846.63 -140.699C1919.04 -159.669 1994.03 -166.109 2068.72 -162.439C2086.74 -161.549 2104.72 -160.059 2122.65 -158.119C2124.57 -157.909 2124.55 -160.909 2122.65 -161.119V-161.129Z" fill="url(#paint15_linear_440_122)"/>
<path d="M2125.3 -182.601C2054.64 -191.361 1982.85 -190.181 1912.73 -177.501C1844.09 -165.091 1778.36 -141.041 1714.52 -113.411C1581.64 -55.8908 1453.63 11.7292 1313.19 50.0092C1243.61 68.9692 1171 82.2992 1098.64 80.9192C1061.18 80.2092 1023.97 74.8592 987.57 66.0692C951.17 57.2792 917.89 45.5592 883.08 35.2092C812.36 14.1892 739.44 2.85919 667.04 -10.5908C595.53 -23.8808 524.09 -39.7208 453.93 -58.9608C385.9 -77.6208 318.18 -99.0708 251.23 -121.261C190.66 -141.341 130.84 -165.721 78.33 -202.551C64.12 -212.521 50.61 -223.391 37.75 -235.041C36.32 -236.331 34.19 -234.221 35.63 -232.921C133.65 -144.051 267.22 -112.691 390.26 -74.6008C461.1 -52.6708 533.13 -35.1608 605.65 -19.7708C677.93 -4.4308 751.22 5.87918 823.21 22.5692C894.43 39.0792 962.58 67.5692 1035.1 78.4892C1105.1 89.0292 1176.02 82.8392 1245.16 69.1592C1386.78 41.1292 1517.79 -19.7508 1647.92 -80.0808C1714.12 -110.771 1781.14 -140.621 1851.57 -160.311C1923.13 -180.311 1997.61 -188.221 2071.79 -184.361C2089.68 -183.431 2107.51 -181.791 2125.28 -179.581C2127.19 -179.341 2127.17 -182.351 2125.28 -182.581L2125.3 -182.601Z" fill="url(#paint16_linear_440_122)"/>
<path d="M2128.34 -204.03C2059.42 -213.68 1989.28 -211.88 1920.92 -198.81C1851.55 -185.54 1785.4 -160.14 1721.15 -131.32C1655.13 -101.7 1590.61 -68.8696 1524.26 -39.9496C1457.05 -10.6396 1388.23 15.3304 1317.4 34.5004C1246.49 53.6904 1172.24 67.7304 1098.51 65.8704C1062.07 64.9504 1025.83 59.6604 990.56 50.4904C955.58 41.4004 921.78 28.4604 887.5 17.1004C816.07 -6.5696 742.55 -22.7696 669.7 -41.2596C598.83 -59.2496 528.26 -77.8996 457.02 -94.4196C387.6 -110.52 317.48 -123.95 248.31 -141.03C187.92 -155.94 128.01 -176.39 75.9502 -211.15C61.9402 -220.51 48.6902 -230.88 36.1602 -242.14C34.7302 -243.43 32.6002 -241.31 34.0402 -240.02C132.65 -151.39 267.74 -134.47 392.02 -106.32C463.75 -90.0696 535.37 -73.4196 606.48 -54.6496C677.59 -35.8796 751.55 -19.1996 823.46 0.840408C893.77 20.4304 961.54 50.8504 1033.82 62.7304C1103.56 74.2004 1174.19 68.0804 1243.22 54.8104C1385.95 27.3604 1518.65 -32.2596 1649.08 -94.4096C1715.43 -126.03 1782.29 -157.45 1852.77 -178.83C1923.35 -200.24 1997.22 -210.1 2070.94 -206.53C2089.89 -205.61 2108.76 -203.77 2127.54 -201.14C2129.43 -200.88 2130.24 -203.77 2128.34 -204.03Z" fill="url(#paint17_linear_440_122)"/>
<path d="M2130.98 -225.5C2060.78 -236.47 1989.09 -233.33 1919.73 -218.25C1850.42 -203.18 1784.63 -175.92 1720.63 -145.87C1654.94 -115.03 1590.45 -81.7405 1523.82 -52.9005C1456.45 -23.7405 1387.33 1.66954 1316.31 20.4395C1246.35 38.9395 1173.11 53.0196 1100.47 51.0695C1062.35 50.0396 1024.49 44.0295 987.96 33.0795C952.7 22.4995 918.77 8.02951 884.23 -4.57048C814.02 -30.1905 742.24 -51.0905 671.07 -73.8105C601 -96.1805 531.19 -116.25 458.67 -129.12C389.35 -141.43 319.15 -146.98 249.75 -158.55C188.46 -168.77 127 -185.64 74.0901 -219.22C60.0801 -228.11 46.9101 -238.15 34.5201 -249.19C33.0801 -250.47 30.9501 -248.36 32.4001 -247.07C131.45 -158.81 267.48 -154.3 392.06 -136.69C464.92 -126.4 536.88 -112.09 607.34 -90.7205C678.83 -69.0405 750.27 -46.6005 821.22 -23.1905C856.71 -11.4805 891.75 1.30956 926.64 14.6696C961.09 27.8696 995.8 40.1595 1032.18 46.9095C1102.76 60.0096 1174.5 53.3896 1244.5 39.9496C1386.78 12.6496 1519.99 -44.9405 1649.5 -108.2C1715.71 -140.54 1782.05 -173.42 1852.18 -196.57C1922.63 -219.83 1996.81 -231.94 2071.08 -228.6C2090.89 -227.71 2110.6 -225.66 2130.18 -222.6C2132.07 -222.3 2132.88 -225.2 2130.98 -225.49V-225.5Z" fill="url(#paint18_linear_440_122)"/>
<path d="M2133.62 -246.98C2063.34 -259.13 1991.33 -254.81 1922.11 -238.31C1853.56 -221.97 1788.73 -193.58 1725.57 -162.83C1660.15 -130.98 1595.77 -97.1898 1528.96 -68.2698C1460.7 -38.7298 1390.52 -13.3598 1318.54 5.51022C1246.67 24.3502 1171.14 39.5202 1096.51 36.2202C1057.88 34.5102 1020 27.1102 983.57 14.1902C947.14 1.2702 915.48 -13.7398 881.44 -27.6298C812.81 -55.6298 743.2 -81.2298 673.89 -107.46C606.33 -133.02 538.75 -153.15 466.84 -161.88C336.48 -177.71 190.89 -156.11 73.1802 -226.7C58.8602 -235.29 45.4402 -245.21 32.9302 -256.27C31.4902 -257.54 29.3602 -255.43 30.8102 -254.15C130.14 -166.37 267.39 -172.31 391.26 -165.37C466.1 -161.18 539.74 -150.52 611.05 -126.88C681.4 -103.56 750.57 -75.6298 819.69 -48.8998C856.36 -34.7198 892.75 -19.9198 928.91 -4.4998C961.45 9.38019 994.26 22.8102 1028.91 30.4702C1100.87 46.3702 1174.71 38.9402 1246.34 25.0702C1389.29 -2.59978 1523.91 -58.8498 1653.61 -123.67C1719.7 -156.7 1785.59 -190.83 1855.42 -215.41C1925.5 -240.08 1999.77 -253.98 2074.23 -250.55C2093.89 -249.64 2113.45 -247.43 2132.84 -244.08C2134.73 -243.75 2135.54 -246.64 2133.64 -246.97L2133.62 -246.98Z" fill="url(#paint19_linear_440_122)"/>
<path d="M2136.26 -268.45C1992.5 -295.74 1854.96 -242.6 1728.67 -178.8C1662.43 -145.34 1596.99 -110.56 1528.7 -81.3197C1459.99 -51.8997 1389.24 -27.0297 1316.83 -8.36966C1244.36 10.3103 1167.96 26.3103 1092.75 21.3803C1054.27 18.8604 1017.25 9.75034 981.68 -5.00967C946.11 -19.7697 912.42 -36.9597 877.79 -52.8097C810.07 -83.8097 742.06 -114.5 673.56 -143.73C641.44 -157.43 608.78 -170.1 574.95 -178.92C541.12 -187.74 504.69 -192.54 469.02 -194.52C337.66 -201.79 192.15 -165.59 71.3399 -234.68C57.0299 -242.86 43.6899 -252.48 31.2999 -263.34C29.8499 -264.61 27.7199 -262.49 29.1799 -261.22C129.14 -173.59 268.52 -189.16 391.29 -192.29C468.06 -194.25 543.86 -188.53 616.75 -162.92C686.84 -138.3 754.35 -105.02 822.11 -74.7097C857.1 -59.0597 891.99 -43.1997 926.64 -26.8197C958.94 -11.5497 991.3 4.14035 1025.92 13.5003C1096.9 32.6903 1170.99 25.1203 1242.22 11.4703C1387.49 -16.3697 1525.25 -71.4797 1656.58 -138.5C1788.68 -205.91 1924.16 -279.79 2077.34 -272.51C2096.87 -271.58 2116.26 -269.22 2135.46 -265.57C2137.35 -265.21 2138.16 -268.1 2136.26 -268.46V-268.45Z" fill="url(#paint20_linear_440_122)"/>
<path d="M2138.9 -289.929C1995.1 -319.709 1856.79 -260.099 1731.97 -194.749C1664.94 -159.649 1598.44 -123.999 1528.68 -94.5092C1458.92 -65.0192 1389.81 -41.3992 1317.86 -22.9292C1245.29 -4.29922 1168.51 12.9608 1093.17 6.75076C1014.55 0.280762 947.48 -42.3192 878.93 -77.5892C810.82 -112.639 743.08 -149.279 673.53 -181.399C642.05 -195.939 609.55 -208.679 575.65 -216.289C539.82 -224.329 502.92 -226.679 466.27 -225.849C335.86 -222.889 191.44 -175.699 69.0401 -242.869C54.9401 -250.609 41.8401 -259.869 29.7101 -270.419C28.2601 -271.679 26.1301 -269.569 27.5901 -268.299C127.43 -181.449 268.29 -204.839 388.47 -217.399C465.62 -225.459 543.12 -226.909 617.33 -201.179C652.89 -188.849 686.73 -172.189 720.25 -155.209C753.77 -138.229 788.99 -120.229 823.34 -102.689C858.22 -84.8892 893.06 -67.0193 927.78 -48.9193C960.1 -32.0692 992.28 -14.1992 1027.12 -3.02924C1097.49 19.5308 1172.58 11.0208 1243.73 -3.01923C1389.67 -31.8092 1529.12 -85.2992 1660.81 -153.859C1791.88 -222.099 1927.19 -302.079 2080.49 -294.459C2099.88 -293.499 2119.11 -290.979 2138.12 -287.049C2140 -286.659 2140.81 -289.549 2138.92 -289.939L2138.9 -289.929Z" fill="url(#paint21_linear_440_122)"/>
<path d="M2141.55 -311.4C1996.96 -343.9 1857.25 -276.71 1733.39 -209.54C1666.1 -173.04 1598.93 -136.98 1528.18 -107.51C1459.59 -78.9399 1388.94 -55.3199 1316.96 -36.8999C1244.95 -18.4699 1168.05 0.270081 1093.26 -7.92993C1015.65 -16.4299 949.31 -64.1199 883.27 -102.08C816.25 -140.6 750.12 -182.16 680.85 -216.55C649.33 -232.2 616.36 -245.33 581.71 -252.03C547.06 -258.73 508.71 -259.21 472.25 -256.02C398.69 -249.57 327.13 -229.32 253.59 -222.92C190.93 -217.47 123.93 -220.88 67.2202 -250.7C53.1602 -258.1 40.1102 -267.1 28.0902 -277.48C26.6402 -278.74 24.5002 -276.62 25.9702 -275.36C127.28 -187.91 271.95 -220.74 390.71 -241.59C468.27 -255.21 547.56 -263.69 623.57 -237.66C659.07 -225.5 692.39 -207.92 724.98 -189.52C759.7 -169.92 794.16 -149.84 828.72 -129.97C863.47 -110 898.21 -90.0299 932.96 -70.0599C964.25 -52.0699 995.34 -32.8399 1029.2 -19.9799C1097.98 6.13007 1173.07 -2.64993 1243.45 -16.9399C1389.47 -46.5999 1530.4 -97.9799 1662.07 -167.57C1793.07 -236.81 1928.37 -323.91 2082.77 -316.44C2102.31 -315.49 2121.67 -312.81 2140.76 -308.52C2142.64 -308.1 2143.44 -310.99 2141.56 -311.41L2141.55 -311.4Z" fill="url(#paint22_linear_440_122)"/>
<path d="M2106.4 -396C1958.16 -390.05 1811.05 -362.01 1670.95 -313.18C1601.44 -288.95 1533.69 -259.65 1468.45 -225.54C1400.1 -189.8 1337.19 -146.36 1271.9 -105.6C1156.7 -33.6702 1023.94 1.69986 888.12 -3.34015C756.88 -8.21014 626.45 -50.0901 519.89 -127.48C457.41 -172.86 403.58 -229.17 339.06 -271.89C278.53 -311.98 210.61 -340.93 139.8 -356.96C122.12 -360.96 104.27 -364.11 86.3098 -366.53C84.4198 -366.78 83.6098 -363.89 85.5098 -363.64C159.63 -353.66 231.61 -330.07 297.07 -293.84C366.24 -255.57 422.69 -201.26 483.6 -151.76C585.07 -69.3001 707.04 -18.4301 837.08 -4.09015C967.12 10.2498 1097.41 -11.0502 1212.89 -68.7002C1281.19 -102.8 1342.01 -149.98 1407.77 -188.5C1473.11 -226.77 1541.39 -260.03 1611.77 -287.95C1752.11 -343.62 1900.81 -378.3 2051.37 -389.83C2069.69 -391.23 2088.03 -392.27 2106.39 -393.01C2108.31 -393.09 2108.32 -396.09 2106.39 -396.01L2106.4 -396Z" fill="url(#paint23_linear_440_122)"/>
</g>
<defs>
<linearGradient id="paint0_linear_440_122" x1="3.5134e-05" y1="132.681" x2="2147.01" y2="132.681" gradientUnits="userSpaceOnUse">
<stop stop-color="#3476B6"/>
<stop offset="1" stop-color="#BFE2F2"/>
</linearGradient>
<linearGradient id="paint1_linear_440_122" x1="3.9399" y1="122.83" x2="2143.74" y2="122.83" gradientUnits="userSpaceOnUse">
<stop stop-color="#3476B6"/>
<stop offset="1" stop-color="#BFE2F2"/>
</linearGradient>
<linearGradient id="paint2_linear_440_122" x1="7.89003" y1="106.499" x2="2140.47" y2="106.499" gradientUnits="userSpaceOnUse">
<stop stop-color="#3476B6"/>
<stop offset="1" stop-color="#BFE2F2"/>
</linearGradient>
<linearGradient id="paint3_linear_440_122" x1="11.8399" y1="90.4603" x2="2137.21" y2="90.4603" gradientUnits="userSpaceOnUse">
<stop stop-color="#3476B6"/>
<stop offset="1" stop-color="#BFE2F2"/>
</linearGradient>
<linearGradient id="paint4_linear_440_122" x1="15.7799" y1="74.4004" x2="2133.94" y2="74.4004" gradientUnits="userSpaceOnUse">
<stop stop-color="#3476B6"/>
<stop offset="1" stop-color="#BFE2F2"/>
</linearGradient>
<linearGradient id="paint5_linear_440_122" x1="19.7299" y1="58.7207" x2="2130.68" y2="58.7207" gradientUnits="userSpaceOnUse">
<stop stop-color="#3476B6"/>
<stop offset="1" stop-color="#BFE2F2"/>
</linearGradient>
<linearGradient id="paint6_linear_440_122" x1="23.69" y1="44.1905" x2="2127.42" y2="44.1905" gradientUnits="userSpaceOnUse">
<stop stop-color="#3476B6"/>
<stop offset="1" stop-color="#BFE2F2"/>
</linearGradient>
<linearGradient id="paint7_linear_440_122" x1="27.6401" y1="30.8896" x2="2124.16" y2="30.8896" gradientUnits="userSpaceOnUse">
<stop stop-color="#3476B6"/>
<stop offset="1" stop-color="#BFE2F2"/>
</linearGradient>
<linearGradient id="paint8_linear_440_122" x1="31.3902" y1="17.8394" x2="2120.7" y2="17.8394" gradientUnits="userSpaceOnUse">
<stop stop-color="#3476B6"/>
<stop offset="1" stop-color="#BFE2F2"/>
</linearGradient>
<linearGradient id="paint9_linear_440_122" x1="35.3402" y1="4.6896" x2="2117.44" y2="4.6896" gradientUnits="userSpaceOnUse">
<stop stop-color="#3476B6"/>
<stop offset="1" stop-color="#BFE2F2"/>
</linearGradient>
<linearGradient id="paint10_linear_440_122" x1="39.2899" y1="-7.56019" x2="2114.19" y2="-7.56019" gradientUnits="userSpaceOnUse">
<stop stop-color="#3476B6"/>
<stop offset="1" stop-color="#BFE2F2"/>
</linearGradient>
<linearGradient id="paint11_linear_440_122" x1="43.2499" y1="-19.5807" x2="2110.94" y2="-19.5807" gradientUnits="userSpaceOnUse">
<stop stop-color="#3476B6"/>
<stop offset="1" stop-color="#BFE2F2"/>
</linearGradient>
<linearGradient id="paint12_linear_440_122" x1="41.63" y1="-30.8995" x2="2113.58" y2="-30.8995" gradientUnits="userSpaceOnUse">
<stop stop-color="#3476B6"/>
<stop offset="1" stop-color="#BFE2F2"/>
</linearGradient>
<linearGradient id="paint13_linear_440_122" x1="40.0099" y1="-42.2492" x2="2116.22" y2="-42.2492" gradientUnits="userSpaceOnUse">
<stop stop-color="#3476B6"/>
<stop offset="1" stop-color="#BFE2F2"/>
</linearGradient>
<linearGradient id="paint14_linear_440_122" x1="38.4001" y1="-53.5308" x2="2118.87" y2="-53.5308" gradientUnits="userSpaceOnUse">
<stop stop-color="#3476B6"/>
<stop offset="1" stop-color="#BFE2F2"/>
</linearGradient>
<linearGradient id="paint15_linear_440_122" x1="36.7801" y1="-64.739" x2="2121.51" y2="-64.739" gradientUnits="userSpaceOnUse">
<stop stop-color="#3476B6"/>
<stop offset="1" stop-color="#BFE2F2"/>
</linearGradient>
<linearGradient id="paint16_linear_440_122" x1="35.17" y1="-75.8308" x2="2124.16" y2="-75.8308" gradientUnits="userSpaceOnUse">
<stop stop-color="#3476B6"/>
<stop offset="1" stop-color="#BFE2F2"/>
</linearGradient>
<linearGradient id="paint17_linear_440_122" x1="33.5502" y1="-86.8696" x2="2126.81" y2="-86.8696" gradientUnits="userSpaceOnUse">
<stop stop-color="#3476B6"/>
<stop offset="1" stop-color="#BFE2F2"/>
</linearGradient>
<linearGradient id="paint18_linear_440_122" x1="31.9301" y1="-97.7905" x2="2129.45" y2="-97.7905" gradientUnits="userSpaceOnUse">
<stop stop-color="#3476B6"/>
<stop offset="1" stop-color="#BFE2F2"/>
</linearGradient>
<linearGradient id="paint19_linear_440_122" x1="30.3202" y1="-108.61" x2="2132.1" y2="-108.61" gradientUnits="userSpaceOnUse">
<stop stop-color="#3476B6"/>
<stop offset="1" stop-color="#BFE2F2"/>
</linearGradient>
<linearGradient id="paint20_linear_440_122" x1="28.6999" y1="-125.35" x2="2134.74" y2="-125.35" gradientUnits="userSpaceOnUse">
<stop stop-color="#3476B6"/>
<stop offset="1" stop-color="#BFE2F2"/>
</linearGradient>
<linearGradient id="paint21_linear_440_122" x1="27.0801" y1="-143.459" x2="2137.39" y2="-143.459" gradientUnits="userSpaceOnUse">
<stop stop-color="#3476B6"/>
<stop offset="1" stop-color="#BFE2F2"/>
</linearGradient>
<linearGradient id="paint22_linear_440_122" x1="25.4702" y1="-161.53" x2="2140.04" y2="-161.53" gradientUnits="userSpaceOnUse">
<stop stop-color="#3476B6"/>
<stop offset="1" stop-color="#BFE2F2"/>
</linearGradient>
<linearGradient id="paint23_linear_440_122" x1="84.4198" y1="-197.93" x2="2105" y2="-197.93" gradientUnits="userSpaceOnUse">
<stop stop-color="#3476B6"/>
<stop offset="1" stop-color="#BFE2F2"/>
</linearGradient>
<clipPath id="clip0_440_122">
<rect width="2149.66" height="714.83" fill="white" transform="translate(0 -396)"/>
</clipPath>
</defs>
</svg>
