<svg width="100%" height="253" viewBox="0 0 1920 293" fill="none" xmlns="http://www.w3.org/2000/svg">
<g opacity="0.29" clip-path="url(#clip0_491_194)">
<path d="M2016.77 358.181C1941.08 350.751 1864.54 344.821 1788.74 354.241C1719.11 362.901 1652.31 384.711 1588.22 412.731C1452.7 471.981 1328.69 557.421 1185.89 599.661C1113.83 620.981 1041.13 625.651 966.39 621.971C892.62 618.341 819.36 614.071 747.26 596.961C678.74 580.701 612.48 556.011 548.52 526.721C480.04 495.361 415.57 457.281 349.56 421.231C318.05 404.021 285.74 387.971 251.76 376.201C236.43 370.881 220.29 366.061 203.9 366.241C188.96 366.401 174.88 371.301 160.41 374.371C124.29 382.021 85.9404 369.171 51.9604 357.521C17.9804 345.871 -15.4096 330.691 -46.8696 312.761C-62.7196 303.721 -78.0996 293.921 -93.0796 283.511C-94.6696 282.411 -96.1696 285.001 -94.5896 286.101C-37.0196 326.121 27.8804 357.201 96.1904 373.721C112.05 377.561 128.66 380.651 145.05 379.601C160.38 378.631 174.75 373.161 189.79 370.611C227.68 364.181 268.57 384.381 301.92 400.161C370.41 432.581 434.19 474.191 502.08 507.891C563.88 538.571 627.66 565.671 693.77 585.641C761.79 606.191 830.7 617.051 901.51 621.211C974.62 625.501 1047.89 631.141 1120.51 618.311C1266.13 592.591 1393.1 511.391 1523.42 446.511C1588.58 414.071 1655.97 384.891 1727.08 368.281C1803.43 350.451 1881.5 350.141 1959.3 356.061C1978.48 357.521 1997.63 359.311 2016.77 361.191C2018.69 361.381 2018.68 358.381 2016.77 358.191V358.181Z" fill="url(#paint0_linear_491_194)"/>
<path d="M2013.49 351.941C1938.27 345.261 1862.31 339.751 1787.03 348.711C1716.89 357.061 1649.35 378.281 1584.42 405.591C1450.35 461.971 1326.72 542.651 1186.54 584.351C1115.69 605.431 1044.31 612.271 970.67 607.561C933.55 605.191 896.55 601.171 859.42 598.911C822.08 596.641 784.96 593.411 747.97 587.721C678.97 577.101 611.07 559.611 545.47 535.771C475.09 510.191 409.42 476.301 344.79 438.771C313.12 420.381 281.31 402.051 247.76 387.271C232.73 380.651 217.3 374.161 201.13 370.941C186.14 367.961 171.39 369.441 156.31 370.711C119.78 373.791 84.9501 360.901 51.5701 347.421C18.0001 333.861 -14.4 317.371 -45.23 298.401C-60.25 289.161 -74.86 279.301 -89.12 268.931C-90.68 267.791 -92.18 270.401 -90.63 271.521C-34.41 312.371 28.7501 346.251 95.4901 366.291C111.25 371.021 127.52 374.691 144.07 374.411C159.99 374.141 175.74 370.851 191.69 372.491C211.92 374.561 231.44 383.191 249.79 391.431C266.36 398.871 282.53 407.171 298.46 415.881C363.36 451.351 425.64 490.021 494.02 518.811C557.87 545.691 624.29 566.511 692.11 580.651C726.45 587.811 761.14 593.261 796.02 596.991C832.71 600.921 869.61 602.351 906.38 605.451C978.52 611.531 1049.82 616.741 1121.51 603.321C1265.71 576.331 1392.66 498.441 1523.44 436.331C1589.31 405.041 1657.33 377.141 1728.79 361.561C1803.55 345.261 1879.82 345.041 1955.83 350.291C1975.08 351.621 1994.31 353.261 2013.53 354.961C2015.45 355.131 2015.44 352.131 2013.53 351.961L2013.49 351.941Z" fill="url(#paint1_linear_491_194)"/>
<path d="M2010.21 345.71C1935.95 339.78 1861.05 334.69 1786.76 343.02C1716.09 350.94 1647.82 371.47 1582.07 398.07C1447.28 452.58 1322.28 530.66 1182 571.52C1111.99 591.91 1040.81 600.32 968.06 594.53C931.79 591.64 895.74 586.55 859.54 582.95C822.93 579.31 786.14 578.03 749.49 574.8C677.71 568.48 606.09 557.9 536.41 539.26C464.93 520.14 397.82 491.45 334.27 453.62C303.6 435.35 273.49 416.08 241.97 399.27C212.97 383.8 185.08 371.76 152.05 369.07C115.21 366.07 82.7097 353.02 49.6096 337.16C17.9097 321.98 -12.7104 304.56 -42.0103 285.16C-56.7603 275.4 -71.1304 265.11 -85.2003 254.39C-86.7403 253.22 -88.2303 255.82 -86.7103 256.98C-31.5303 299.01 29.9796 336.1 95.2796 360.11C109.7 365.41 124.37 369.36 139.67 371C157.72 372.93 175.44 373.68 192.76 379.72C226.7 391.55 258.36 411.29 289 429.76C319.64 448.23 352.07 468.65 385.1 485.44C416.53 501.43 449.19 514.94 482.6 526.2C548.8 548.53 617.64 562.28 686.85 571.11C759.41 580.36 832.54 582.58 905.18 591.02C941.72 595.26 978.35 599.49 1015.18 599.73C1049.7 599.96 1084.13 596.51 1118.04 590.1C1261.69 562.92 1389.3 487.82 1520.76 427.85C1587.12 397.58 1655.53 370.64 1727.12 355.66C1798.71 340.68 1877.63 339.83 1953.36 344.58C1972.33 345.77 1991.28 347.23 2010.23 348.74C2012.15 348.89 2012.14 345.89 2010.23 345.74L2010.21 345.71Z" fill="url(#paint2_linear_491_194)"/>
<path d="M2006.93 339.469C1932.36 334.149 1857.19 329.429 1782.65 337.739C1712.79 345.529 1645.11 365.269 1579.77 390.719C1444.78 443.309 1319.03 518.659 1179.24 558.949C1109.83 578.959 1038.16 589.149 965.95 583.049C928.4 579.869 891.25 573.379 853.96 568.139C816.67 562.899 782.76 560.649 746.85 558.799C602.53 551.359 453.67 544.789 325.8 469.849C295.94 452.349 267.45 432.669 238.18 414.219C210.83 396.969 182.96 379.869 151.68 370.849C136.11 366.359 120.45 362.639 105.41 356.479C87.5997 349.179 70.5497 340.039 53.7397 330.689C22.9197 313.549 -6.93028 294.689 -35.6803 274.259C-51.1203 263.289 -66.2003 251.849 -80.9803 240.009C-82.4703 238.809 -84.6103 240.919 -83.1003 242.129C-28.4803 285.869 31.4397 326.679 95.4597 355.429C126.52 369.369 160.43 373.969 190.74 389.839C220.85 405.609 249.1 424.759 277.56 443.249C307.56 462.739 337.95 481.769 370.51 496.759C401.26 510.919 433.41 521.839 466.22 530.109C534.95 547.419 605.93 553.719 676.49 557.999C714.14 560.279 751.85 561.639 789.48 564.109C827.11 566.579 864.95 572.809 902.54 578.309C937.87 583.479 973.38 587.899 1009.14 588.009C1043.5 588.119 1077.81 584.489 1111.57 578.209C1255.3 551.439 1384.01 478.679 1516.37 420.369C1582.98 391.029 1651.49 364.929 1722.96 350.229C1797.75 334.839 1873.87 334.459 1949.82 338.719C1968.86 339.789 1987.89 341.109 2006.92 342.459C2008.85 342.599 2008.84 339.599 2006.92 339.459L2006.93 339.469Z" fill="url(#paint3_linear_491_194)"/>
<path d="M2003.65 333.24C1928.78 328.51 1853.36 324.14 1778.57 332.45C1708.85 340.2 1641.18 359.5 1575.71 384.24C1440.32 435.4 1313.59 508.45 1173.76 547.91C1103.85 567.64 1031.07 578.56 958.39 572.3C886.13 566.07 816.01 545.28 743.41 541.59C600.82 534.35 446.42 556.9 316.04 485.15C256.02 452.12 205.52 403.67 143.94 373.4C112.91 358.15 83.0897 342.64 54.1497 323.59C23.4197 303.37 -6.4903 281.9 -35.4803 259.25C-49.5603 248.25 -63.3903 236.96 -77.0403 225.44C-78.5103 224.2 -80.6403 226.31 -79.1603 227.56C-25.3003 273.07 32.1197 316.72 93.5497 351.58C123.39 368.51 155.11 380.99 183.89 399.93C212.59 418.82 239.93 439.67 268.33 459C296.21 477.97 325.23 495.11 356.63 507.61C388.03 520.11 423.85 528.89 458.72 533.9C529.44 544.05 601.16 542.04 672.39 542.69C710.02 543.03 747.83 543.57 785.22 548.15C822.34 552.7 858.95 560.47 895.79 566.79C965.89 578.83 1035.08 580 1105.19 567.08C1249.1 540.56 1378.83 469.97 1512.11 413.14C1579.13 384.56 1647.94 359.13 1719.54 344.7C1794.33 329.62 1870.42 329.13 1946.34 332.9C1965.46 333.85 1984.56 335.03 2003.66 336.24C2005.59 336.36 2005.58 333.36 2003.66 333.24H2003.65Z" fill="url(#paint4_linear_491_194)"/>
<path d="M2000.37 327.01C1926.47 322.92 1852.12 319 1778.31 326.73C1708.03 334.09 1639.69 352.97 1573.47 377.2C1437.39 427 1309.56 498.19 1169.46 537.14C1099.02 556.72 1025.66 568.06 952.46 562.48C880.2 556.97 811.02 533.02 739.13 525.06C596.93 509.31 443.05 564.65 307.86 500.47C245.42 470.83 196.05 420.11 140.28 380.36C81.2899 338.31 24.0599 294.96 -30.9901 247.79C-45.1601 235.64 -59.1901 223.33 -73.1001 210.88C-74.5301 209.6 -76.6601 211.71 -75.2201 213C-21.5601 261.03 33.7899 307.94 92.1399 350.21C122.1 371.91 152.6 392.51 181.6 415.55C207.46 436.09 232.75 457.47 260.07 476.09C288.3 495.33 318.66 510.65 351.56 520.11C384.33 529.53 418.38 533.34 452.39 534.33C525.12 536.45 597.47 525.95 670.14 525.16C708.23 524.75 745.72 527.81 783.19 534.75C820.66 541.69 854.41 550.3 890.25 556.99C960.4 570.09 1030.87 569.26 1100.98 556.23C1246.12 529.25 1377.59 459.63 1512.91 404.04C1579.56 376.66 1647.88 352.42 1718.76 338.66C1793 324.25 1868.53 323.82 1943.82 327.11C1962.68 327.94 1981.53 328.97 2000.38 330.01C2002.31 330.12 2002.3 327.12 2000.38 327.01H2000.37Z" fill="url(#paint5_linear_491_194)"/>
<path d="M1997.09 320.769C1920.21 317.089 1842.85 313.389 1766.17 322.279C1695.74 330.439 1627.24 349.869 1560.75 374.059C1423.45 424.019 1293.5 493.809 1151.48 530.559C1080.09 549.029 1005.89 558.989 932.17 552.089C858.63 545.199 789.12 518.219 716.23 507.759C649.77 498.229 583.8 508.449 518.03 518.289C451.31 528.279 381.18 538.469 315.11 519.169C244.96 498.679 193.01 443.329 141.06 394.979C84.3999 342.239 28.22 288.979 -27.8601 235.619C-41.6301 222.509 -55.4 209.399 -69.17 196.289C-70.57 194.959 -72.6901 197.079 -71.2901 198.409C-14.25 252.729 42.79 307.049 100.24 360.929C128.03 386.989 155.85 413.039 183.96 438.759C208.48 461.189 233.81 483.239 262.69 499.939C383.42 569.729 525.19 508.299 653.78 506.649C728.65 505.689 799.02 530.479 871.43 545.669C941.33 560.329 1012.37 560.129 1082.7 548.379C1229.4 523.879 1363.08 456.029 1499.69 400.809C1566.7 373.719 1635.19 349.359 1706.16 334.909C1782.67 319.329 1860.53 318.279 1938.28 321.159C1957.89 321.889 1977.49 322.819 1997.09 323.759C1999.02 323.849 1999.02 320.849 1997.09 320.759V320.769Z" fill="url(#paint6_linear_491_194)"/>
<path d="M1999.73 299.301C1926.12 294.701 1851.96 292.071 1778.55 300.891C1709.4 309.201 1642.28 328.511 1577.1 352.631C1441.49 402.811 1313.16 471.781 1173.25 510.311C1103.76 529.451 1031.55 541.311 959.3 538.011C884.71 534.601 814.6 509.931 741.9 495.691C670.04 481.621 598.39 487.691 526.02 493.651C454.16 499.571 379.82 503.811 310.68 479.281C244.06 455.641 189.04 405.531 134.35 362.431C78.08 318.091 22.19 273.201 -31.28 225.481C-44.62 213.581 -57.78 201.491 -70.79 189.231C-72.19 187.911 -74.32 190.021 -72.91 191.351C-20.02 241.191 35.8 287.751 92.57 333.101C120.84 355.681 149.3 378.021 177.84 400.261C203.62 420.341 229.4 440.691 257.56 457.371C318.28 493.351 386.92 503.051 456.54 501.001C529.77 498.841 602.65 486.201 676.05 490.221C751.18 494.331 822.12 521.241 895.79 534.021C965.45 546.101 1036.48 542.491 1105.7 529.251C1249.66 501.701 1381.15 435.291 1515.63 379.961C1582.5 352.451 1650.88 327.631 1721.86 313.111C1794.77 298.191 1869.24 296.331 1943.39 299.311C1962.18 300.071 1980.96 301.121 1999.73 302.301C2001.66 302.421 2001.65 299.421 1999.73 299.301Z" fill="url(#paint7_linear_491_194)"/>
<path d="M2002.37 277.821C1930 272.211 1856.97 270.531 1784.85 280.121C1712.73 289.711 1647.43 310.091 1581.84 335.411C1447.22 387.381 1319.2 455.911 1179.46 494.231C1110.48 513.141 1038.8 525.181 967.08 522.591C892.25 519.891 821.98 496.061 749.42 480.401C608 449.891 459.11 491.461 320.4 444.151C253.74 421.411 194.86 377.781 136.5 339.441C78.1399 301.101 20.3499 261.871 -33.1301 216.951C-46.5201 205.701 -59.6001 194.101 -72.3901 182.171C-73.8001 180.851 -75.9301 182.971 -74.5101 184.291C-24.1501 231.271 31.2099 272.311 88.1699 310.881C117.92 331.031 148.04 350.631 178.21 370.151C206.84 388.671 235.31 407.631 265.52 423.511C327.47 456.071 395.73 468.441 465.14 470.881C538.14 473.441 611.32 466.431 684.19 473.211C757.06 479.991 829.46 507.041 903.18 519.151C972.43 530.521 1042.9 526.391 1111.59 513.221C1254.35 485.841 1385.15 421.201 1517.87 364.731C1584.64 336.321 1652.77 310.101 1723.71 294.111C1797.47 277.491 1873.13 274.151 1948.47 277.481C1966.45 278.281 1984.42 279.451 2002.36 280.841C2004.29 280.991 2004.28 277.991 2002.36 277.841L2002.37 277.821Z" fill="url(#paint8_linear_491_194)"/>
<path d="M2005.01 256.349C1933.86 249.749 1861.96 248.999 1791.11 259.289C1719.92 269.629 1651.34 292.109 1584.82 318.949C1452.5 372.349 1325.9 439.509 1187.73 477.579C1117.76 496.859 1044.91 509.489 972.13 507.199C898.02 504.869 828.56 481.969 757.12 464.829C615.92 430.939 467.35 454.019 328.06 408.529C260.3 386.399 197.11 349.079 134.57 315.429C75.6901 283.739 17.5201 250.159 -34.9999 208.529C-48.4299 197.889 -61.4199 186.719 -74.0099 175.099C-75.4299 173.789 -77.5499 175.909 -76.1299 177.219C-26.7299 222.849 29.4401 259.969 87.7901 293.099C147.59 327.049 208.7 360.639 271.25 389.269C335.6 418.729 404.42 433.299 474.62 440.069C548.92 447.239 623.91 445.699 697.89 456.409C769.63 466.789 837.83 492.949 909.41 504.209C979.61 515.249 1050.9 510.299 1120.38 496.649C1261.71 468.879 1391.64 405.939 1522.6 348.529C1588.85 319.489 1656.28 292.179 1726.7 274.939C1797.12 257.699 1875.46 252.029 1950.65 255.509C1968.8 256.349 1986.92 257.689 2005.02 259.369C2006.94 259.549 2006.93 256.549 2005.02 256.369L2005.01 256.349Z" fill="url(#paint9_linear_491_194)"/>
<path d="M2007.65 234.871C1936.41 227.161 1864.23 227.401 1793.42 239.041C1723.6 250.521 1656.54 273.831 1591.45 301.091C1458.82 356.621 1331.43 424.011 1192.04 462.041C1121.9 481.181 1048.75 494.081 975.81 491.921C902.2 489.751 833.6 467.231 763.14 448.431C693.71 429.911 622.32 423.021 551.16 414.681C476.63 405.951 401.73 393.831 329.95 371.421C262.92 350.501 197.77 321.381 133.34 293.641C74.6001 268.341 16.7401 239.961 -34.8099 201.741C-49.0099 191.221 -62.5999 179.951 -75.6299 168.021C-77.0499 166.721 -79.1799 168.831 -77.7499 170.141C-29.7599 214.061 26.2701 247.371 84.8701 275.111C145.68 303.901 208.54 329.311 271.21 353.751C340.08 380.611 411.74 397.531 484.72 408.811C557.63 420.071 631.48 424.521 704.04 438.101C774.89 451.361 842.42 478.051 913.74 489.111C983.87 499.991 1054.97 494.621 1124.34 481.051C1266.34 453.261 1397.21 391.051 1528.19 331.991C1594.27 302.201 1661.36 273.711 1731.63 255.301C1804.04 236.331 1879.03 229.891 1953.72 233.561C1971.74 234.451 1989.72 235.941 2007.65 237.881C2009.57 238.091 2009.55 235.091 2007.65 234.881V234.871Z" fill="url(#paint10_linear_491_194)"/>
<path d="M2010.3 213.399C1939.64 204.639 1867.85 205.819 1797.73 218.499C1729.09 230.909 1663.36 254.959 1599.52 282.589C1466.64 340.109 1338.63 407.729 1198.19 446.009C1128.61 464.969 1056 478.299 983.64 476.919C946.18 476.209 908.97 470.859 872.57 462.069C836.17 453.279 802.89 441.559 768.08 431.209C697.36 410.189 624.44 398.859 552.04 385.409C480.53 372.119 409.09 356.279 338.93 337.039C270.9 318.379 203.18 296.929 136.23 274.739C75.6595 254.659 15.8395 230.279 -36.6705 193.449C-50.8805 183.479 -64.3905 172.609 -77.2505 160.959C-78.6805 159.669 -80.8105 161.779 -79.3705 163.079C18.6495 251.949 152.22 283.309 275.26 321.399C346.1 343.329 418.13 360.839 490.65 376.229C562.93 391.569 636.22 401.879 708.21 418.569C779.43 435.079 847.58 463.569 920.1 474.489C990.1 485.029 1061.02 478.839 1130.16 465.159C1271.78 437.129 1402.79 376.249 1532.92 315.919C1599.12 285.229 1666.14 255.379 1736.57 235.689C1808.13 215.689 1882.61 207.779 1956.79 211.639C1974.68 212.569 1992.51 214.209 2010.28 216.419C2012.19 216.659 2012.17 213.649 2010.28 213.419L2010.3 213.399Z" fill="url(#paint11_linear_491_194)"/>
<path d="M2013.34 191.97C1944.42 182.32 1874.28 184.12 1805.92 197.19C1736.55 210.46 1670.4 235.86 1606.15 264.68C1540.13 294.3 1475.61 327.13 1409.26 356.05C1342.05 385.36 1273.23 411.33 1202.4 430.5C1131.49 449.69 1057.24 463.73 983.51 461.87C947.07 460.95 910.83 455.66 875.56 446.49C840.58 437.4 806.78 424.46 772.5 413.1C701.07 389.43 627.55 373.23 554.7 354.74C483.83 336.75 413.26 318.1 342.02 301.58C272.6 285.48 202.48 272.05 133.31 254.97C72.9197 240.06 13.0097 219.61 -39.0503 184.85C-53.0603 175.49 -66.3103 165.12 -78.8403 153.86C-80.2703 152.57 -82.4003 154.69 -80.9603 155.98C17.6497 244.61 152.74 261.53 277.02 289.68C348.75 305.93 420.37 322.58 491.48 341.35C562.59 360.12 636.55 376.8 708.46 396.84C778.77 416.43 846.54 446.85 918.82 458.73C988.56 470.2 1059.19 464.08 1128.22 450.81C1270.95 423.36 1403.65 363.74 1534.08 301.59C1600.43 269.97 1667.29 238.55 1737.77 217.17C1808.35 195.76 1882.22 185.9 1955.94 189.47C1974.89 190.39 1993.76 192.23 2012.54 194.86C2014.43 195.12 2015.24 192.23 2013.34 191.97Z" fill="url(#paint12_linear_491_194)"/>
<path d="M2015.98 170.5C1945.78 159.53 1874.09 162.67 1804.73 177.75C1735.42 192.82 1669.63 220.08 1605.63 250.13C1539.94 280.97 1475.45 314.26 1408.82 343.1C1341.45 372.26 1272.33 397.67 1201.31 416.44C1131.35 434.94 1058.11 449.02 985.47 447.07C947.35 446.04 909.49 440.03 872.96 429.08C837.7 418.5 803.77 404.03 769.23 391.43C699.02 365.81 627.24 344.91 556.07 322.19C486 299.82 416.19 279.75 343.67 266.88C274.35 254.57 204.15 249.02 134.75 237.45C73.4596 227.23 11.9996 210.36 -40.9104 176.78C-54.9204 167.89 -68.0904 157.85 -80.4804 146.81C-81.9204 145.53 -84.0504 147.64 -82.6004 148.93C16.4496 237.19 152.48 241.7 277.06 259.31C349.92 269.6 421.88 283.91 492.34 305.28C563.83 326.96 635.27 349.4 706.22 372.81C741.71 384.52 776.75 397.31 811.64 410.67C846.09 423.87 880.8 436.16 917.18 442.91C987.76 456.01 1059.5 449.39 1129.5 435.95C1271.78 408.65 1404.99 351.06 1534.5 287.8C1600.71 255.46 1667.05 222.58 1737.18 199.43C1807.63 176.17 1881.81 164.06 1956.08 167.4C1975.89 168.29 1995.6 170.34 2015.18 173.4C2017.07 173.7 2017.88 170.8 2015.98 170.51V170.5Z" fill="url(#paint13_linear_491_194)"/>
<path d="M2018.62 149.02C1948.34 136.87 1876.33 141.19 1807.11 157.69C1738.56 174.03 1673.73 202.42 1610.57 233.17C1545.15 265.02 1480.77 298.81 1413.96 327.73C1345.7 357.27 1275.52 382.64 1203.54 401.51C1131.67 420.35 1056.14 435.52 981.51 432.22C942.88 430.51 905 423.11 868.57 410.19C832.14 397.27 800.48 382.26 766.44 368.37C697.81 340.37 628.2 314.77 558.89 288.54C491.33 262.98 423.75 242.85 351.84 234.12C221.48 218.29 75.8897 239.89 -41.8203 169.3C-56.1403 160.71 -69.5603 150.79 -82.0703 139.73C-83.5103 138.46 -85.6403 140.57 -84.1903 141.85C15.1397 229.63 152.39 223.69 276.26 230.63C351.1 234.82 424.74 245.48 496.05 269.12C566.4 292.44 635.57 320.37 704.69 347.1C741.36 361.28 777.75 376.08 813.91 391.5C846.45 405.38 879.26 418.81 913.91 426.47C985.87 442.37 1059.71 434.94 1131.34 421.07C1274.29 393.4 1408.91 337.15 1538.61 272.33C1604.7 239.3 1670.59 205.17 1740.42 180.59C1810.5 155.92 1884.77 142.02 1959.23 145.45C1978.89 146.36 1998.45 148.57 2017.84 151.92C2019.73 152.25 2020.54 149.36 2018.64 149.03L2018.62 149.02Z" fill="url(#paint14_linear_491_194)"/>
<path d="M2021.26 127.55C1877.5 100.26 1739.96 153.4 1613.67 217.2C1547.43 250.66 1481.99 285.44 1413.7 314.68C1344.99 344.1 1274.24 368.97 1201.83 387.63C1129.36 406.31 1052.96 422.31 977.75 417.38C939.27 414.86 902.25 405.75 866.68 390.99C831.11 376.23 797.42 359.04 762.79 343.19C695.07 312.19 627.06 281.5 558.56 252.27C526.44 238.57 493.78 225.9 459.95 217.08C426.12 208.26 389.69 203.46 354.02 201.48C222.66 194.21 77.1504 230.41 -43.6596 161.32C-57.9696 153.14 -71.3096 143.52 -83.6996 132.66C-85.1496 131.39 -87.2796 133.51 -85.8196 134.78C14.1404 222.41 153.52 206.84 276.29 203.71C353.06 201.75 428.86 207.47 501.75 233.08C571.84 257.7 639.35 290.98 707.11 321.29C742.1 336.94 776.99 352.8 811.64 369.18C843.94 384.45 876.3 400.14 910.92 409.5C981.9 428.69 1055.99 421.12 1127.22 407.47C1272.49 379.63 1410.25 324.52 1541.58 257.5C1673.68 190.09 1809.16 116.21 1962.34 123.49C1981.87 124.42 2001.26 126.78 2020.46 130.43C2022.35 130.79 2023.16 127.9 2021.26 127.54V127.55Z" fill="url(#paint15_linear_491_194)"/>
<path d="M2023.9 106.071C1880.1 76.2908 1741.79 135.901 1616.97 201.251C1549.94 236.351 1483.44 272.001 1413.68 301.491C1343.92 330.981 1274.81 354.601 1202.86 373.071C1130.29 391.701 1053.51 408.961 978.17 402.751C899.55 396.281 832.48 353.681 763.93 318.411C695.82 283.361 628.08 246.721 558.53 214.601C527.05 200.061 494.55 187.321 460.65 179.711C424.82 171.671 387.92 169.321 351.27 170.151C220.86 173.111 76.4396 220.301 -45.9604 153.131C-60.0604 145.391 -73.1604 136.131 -85.2904 125.581C-86.7404 124.321 -88.8704 126.431 -87.4104 127.701C12.4296 214.551 153.29 191.161 273.47 178.601C350.62 170.541 428.12 169.091 502.33 194.821C537.89 207.151 571.73 223.811 605.25 240.791C638.77 257.771 673.99 275.771 708.34 293.311C743.22 311.111 778.06 328.981 812.78 347.081C845.1 363.931 877.28 381.801 912.12 392.971C982.49 415.531 1057.58 407.021 1128.73 392.981C1274.67 364.191 1414.12 310.701 1545.81 242.141C1676.88 173.901 1812.19 93.9208 1965.49 101.541C1984.88 102.501 2004.11 105.021 2023.12 108.951C2025 109.341 2025.81 106.451 2023.92 106.061L2023.9 106.071Z" fill="url(#paint16_linear_491_194)"/>
<path d="M2026.55 84.6001C1881.96 52.1001 1742.25 119.29 1618.39 186.46C1551.1 222.96 1483.93 259.02 1413.18 288.49C1344.59 317.06 1273.94 340.68 1201.96 359.1C1129.95 377.53 1053.05 396.27 978.26 388.07C900.65 379.57 834.31 331.88 768.27 293.92C701.25 255.4 635.12 213.84 565.85 179.45C534.33 163.8 501.36 150.67 466.71 143.97C432.06 137.27 393.71 136.79 357.25 139.98C283.69 146.43 212.13 166.68 138.59 173.08C75.9297 178.53 8.92969 175.12 -47.7803 145.3C-61.8403 137.9 -74.8903 128.9 -86.9103 118.52C-88.3603 117.26 -90.5003 119.38 -89.0303 120.64C12.2797 208.09 156.95 175.26 275.71 154.41C353.27 140.79 432.56 132.31 508.57 158.34C544.07 170.5 577.39 188.08 609.98 206.48C644.7 226.08 679.16 246.16 713.72 266.03C748.47 286 783.21 305.97 817.96 325.94C849.25 343.93 880.34 363.16 914.2 376.02C982.98 402.13 1058.07 393.35 1128.45 379.06C1274.47 349.4 1415.4 298.02 1547.07 228.43C1678.07 159.19 1813.37 72.0901 1967.77 79.5601C1987.31 80.5101 2006.67 83.1901 2025.76 87.4801C2027.64 87.9001 2028.44 85.0101 2026.56 84.5901L2026.55 84.6001Z" fill="url(#paint17_linear_491_194)"/>
<path d="M2023.39 76.9099C1882.02 47.8099 1745.41 110.27 1623 174.05C1557.14 208.36 1491.49 242.52 1422.83 270.99C1355.67 298.83 1286.74 322.41 1216.6 341.54C1145.41 360.96 1069.83 381.15 995.42 375.38C955.76 372.3 920.19 358.89 884.55 341.97C851.17 326.12 817.64 310.62 784.09 295.14C749.05 278.98 714.02 262.76 679.27 245.97C647.13 230.44 615.44 213.96 582.86 199.34C551.38 185.22 518.96 172.86 485.21 165.4C450.3 157.68 414.46 155.16 378.77 155.48C240.51 156.72 89.6997 200.09 -41.1603 135.49C-55.5303 128.39 -69.1003 119.92 -81.8703 110.24C-83.4103 109.07 -84.9003 111.68 -83.3803 112.83C27.9797 197.34 179.75 172.14 308.81 161.95C383.84 156.03 458.54 156.52 530.42 181.47C600.83 205.91 666.6 243.77 734.01 275.24C768.66 291.42 803.46 307.3 838.14 323.42C869.53 338.02 900.47 354.69 933.29 365.89C1002.55 389.52 1077.35 377.85 1146.95 362.05C1287.78 330.08 1423.98 279.87 1552.52 214.16C1681.89 148.03 1815.35 66.7399 1966.15 72.8499C1985.14 73.6199 2003.98 75.9899 2022.59 79.8199C2024.47 80.2099 2025.28 77.3199 2023.39 76.9299V76.9099Z" fill="url(#paint18_linear_491_194)"/>
<path d="M2020.23 69.2298C1880.82 43.2898 1746.3 102.28 1624.39 163.23C1558.71 196.06 1493.21 228.75 1425.16 256.49C1358.1 283.83 1289.53 307.47 1219.86 327.24C1149.61 347.17 1075.04 368.55 1001.31 362.35C964.08 359.22 930.64 345.58 896.05 332.56C861.46 319.54 827.64 308 793.43 295.76C759.22 283.52 722.92 270.19 688.18 256.06C655 242.56 622.35 227.8 588.99 214.73C555.63 201.66 522.52 190.58 487.89 183.44C453.26 176.3 417.44 172.92 381.89 171.46C243.68 165.8 94.0197 185.62 -35.4803 125.26C-49.7403 118.61 -63.4203 110.89 -76.5103 102.17C-78.1203 101.1 -79.6203 103.69 -78.0203 104.76C35.0497 180.12 183.05 173.18 312.92 173.33C387.26 173.42 461.47 176.26 533.07 198.16C602.37 219.36 667.63 252.15 735.35 277.69C770 290.75 804.94 303.02 839.83 315.42C874.72 327.82 906.37 340.82 940.02 352.28C1008.71 375.67 1080.74 365.3 1149.75 348.78C1289.45 315.34 1425.22 265.09 1554.07 201.76C1683.09 138.34 1815.83 61.2098 1964.54 66.1098C1982.98 66.7198 2001.3 68.7598 2019.44 72.1298C2021.33 72.4798 2022.14 69.5898 2020.24 69.2398L2020.23 69.2298Z" fill="url(#paint19_linear_491_194)"/>
<path d="M2017.07 61.5395C1878.82 38.6495 1745.66 94.8395 1623.61 153.259C1557.6 184.859 1491.69 216.239 1423.7 243.439C1356.72 270.239 1288.51 293.949 1219.33 314.409C1150.66 334.729 1077.47 357.029 1005.05 349.939C969.1 346.419 934.76 333.149 899.98 324.119C865.2 315.089 832.39 307.059 798.71 298.059C729.31 279.509 662.78 254.299 594.97 230.909C527.16 207.519 458.44 193.739 387.11 186.799C313.55 179.639 239.81 175.079 166.61 164.519C100.31 154.959 33.5498 142.469 -28.2802 115.809C-43.0102 109.459 -57.3102 102.199 -71.1602 94.1095C-72.8302 93.1395 -74.3402 95.7295 -72.6702 96.6995C-16.7002 129.349 46.4898 146.759 109.82 158.399C179.64 171.229 250.39 178.119 321.08 184.069C394.2 190.229 467.38 196.159 538.31 216.119C606.85 235.409 672.26 264.089 740.39 284.679C807.96 305.099 877.11 319.649 944.75 339.769C978.62 349.849 1011.72 355.519 1047.18 353.749C1082.48 351.989 1117.35 344.939 1151.56 336.329C1289.96 301.489 1425.1 250.679 1554.11 189.889C1683.12 129.099 1815.04 56.1395 1961.85 59.3395C1980.11 59.7395 1998.26 61.4595 2016.28 64.4395C2018.17 64.7495 2018.98 61.8595 2017.08 61.5495L2017.07 61.5395Z" fill="url(#paint20_linear_491_194)"/>
<path d="M2013.91 53.8595C1876.11 34.0195 1743.65 87.7795 1620.86 143.929C1488.89 204.279 1355.62 259.559 1216.93 302.759C1148.49 324.079 1074.25 348.119 1001.72 337.649C968.089 332.799 934.82 325.059 901.22 319.789C866.61 314.359 831.99 308.919 797.6 302.199C727.68 288.539 660.77 265.919 592.74 245.279C523.31 224.209 452.84 210.919 381.24 199.759C311.85 188.949 242.95 176.099 174.36 161.029C109.34 146.749 44.0596 132.089 -18.0204 107.559C-34.2804 101.129 -50.2204 93.9795 -65.8004 86.0495C-67.5204 85.1795 -69.0404 87.7595 -67.3104 88.6395C-8.91043 118.329 54.4396 136.489 117.98 151.459C185.86 167.449 254.27 181.659 323 193.439C393.53 205.519 464.67 214.139 534.12 231.859C603.51 249.559 670.54 275.389 740.05 292.619C808.9 309.689 879.17 317.669 948.79 330.519C981.86 336.619 1013.44 344.149 1047.35 342.749C1081.67 341.339 1115.58 334.399 1148.75 325.769C1218.12 307.729 1286.41 284.239 1353.68 259.599C1420.17 235.259 1485.79 208.529 1550.35 179.469C1680.03 121.109 1812.28 51.3195 1958.31 52.5595C1976.66 52.7195 1994.95 54.1195 2013.11 56.7395C2015 57.0095 2015.81 54.1195 2013.91 53.8495V53.8595Z" fill="url(#paint21_linear_491_194)"/>
<path d="M2010.35 46.1201C1873.46 29.5101 1741.75 80.4001 1618.6 134.02C1487.05 191.3 1354.54 245.16 1218.39 290.64C1150.24 313.41 1079.92 335.76 1007.22 328.16C938.699 321 869.699 319.58 801.359 310.31C730.07 300.64 661.399 280.17 592.219 261.13C523.699 242.27 454.25 228.2 384.94 212.72C315.93 197.31 248.52 176.51 180.68 156.77C116.61 138.12 51.9695 121.17 -10.7005 98.0501C-27.4805 91.8601 -44.0805 85.2001 -60.4505 77.9901C-62.2005 77.2201 -63.7305 79.8001 -61.9605 80.5801C-1.27048 107.31 62.4295 126.17 126.1 144.33C193.8 163.63 261.02 184.88 329.19 202.51C397.98 220.29 468.07 232.49 537.02 249.66C605.84 266.8 673.41 289.31 742.94 303.52C811.34 317.51 881.09 321.8 950.63 326.1C984.209 328.18 1017.92 334.47 1051.61 332.84C1086.21 331.16 1120.32 323.44 1153.57 314.09C1222.47 294.7 1290.14 269.77 1357.16 244.74C1423.93 219.8 1490.06 193.17 1555.47 164.86C1683.95 109.25 1815.41 45.3301 1958.63 45.8501C1975.94 45.9101 1993.19 47.0301 2010.37 49.1201C2012.28 49.3501 2012.27 46.3501 2010.37 46.1201H2010.35Z" fill="url(#paint22_linear_491_194)"/>
<path d="M2007.19 38.4302C1868.2 24.8602 1734.7 74.6102 1608.59 126.95C1477.06 181.53 1344.98 234.79 1210.8 282.57C1177.66 294.37 1144.18 305.64 1109.83 313.39C1092.56 317.29 1075.01 320.36 1057.32 321.47C1039.63 322.58 1022.3 321.72 1004.79 321.82C936.17 322.2 868.16 326.66 799.61 320.11C728.28 313.29 658.7 294.89 589.51 277.03C521.13 259.38 452.11 243.73 384.41 223.53C317.26 203.5 253.01 175.67 187.14 152.03C122.31 128.76 56.2104 109.25 -8.83958 86.6602C-24.4496 81.2402 -39.9896 75.6302 -55.4496 69.7802C-57.2596 69.1002 -58.0396 72.0002 -56.2496 72.6702C8.24041 97.0702 74.2904 116.99 139.66 138.84C206.45 161.16 271.24 188.75 337.77 211.72C403.23 234.32 470.8 250.02 537.89 266.91C606.7 284.23 675.17 303.83 745.18 315.88C813.41 327.63 882.81 328.4 951.84 326.43C985.63 325.46 1019.64 326.29 1053.38 324.68C1086.3 323.11 1118.8 315.19 1150.27 305.8C1218.32 285.5 1284.79 259.02 1351.09 233.68C1418.67 207.85 1485.9 181.11 1552.74 153.43C1681.48 100.11 1813.1 40.5702 1955.07 39.1202C1972.49 38.9402 1989.87 39.7402 2007.2 41.4302C2009.12 41.6202 2009.11 38.6202 2007.2 38.4302H2007.19Z" fill="url(#paint23_linear_491_194)"/>
<path d="M2004.03 30.7409C1863.47 20.5109 1728.3 67.9709 1599.58 118.771C1466.74 171.201 1334.72 225.961 1201.24 276.731C1168.61 289.141 1135.55 301.011 1101.47 308.811C1067.16 316.671 1031.4 318.431 996.521 322.901C928.091 331.671 858.891 336.931 789.961 331.381C717.82 325.581 646.76 308.601 576.81 290.731C510.67 273.831 444.48 256.051 380.701 231.481C315.66 206.431 254.651 172.401 190.451 145.431C127.88 119.151 63.2805 98.0609 -1.28952 77.3409C-17.5595 72.1209 -33.8295 66.9309 -50.0995 61.7009C-51.9395 61.1109 -52.7295 64.0009 -50.8995 64.5909C14.3205 85.5609 79.8105 105.871 143.91 130.131C210.06 155.161 272.421 187.951 336.98 216.551C398.111 243.631 461.99 263.311 526.461 280.661C595.611 299.271 665.341 317.151 736.19 327.951C804.99 338.431 874.15 338.431 943.35 331.881C976.74 328.721 1009.88 323.411 1043.25 320.201C1077.11 316.941 1109.5 310.981 1142.02 300.771C1209.98 279.431 1275.76 250.601 1341.92 224.331C1408.87 197.741 1475.82 171.161 1542.76 144.541C1673.94 92.3709 1808.2 35.8609 1951.49 32.4109C1969.02 31.9909 1986.54 32.4509 2004.04 33.7209C2005.97 33.8609 2005.96 30.8609 2004.04 30.7209L2004.03 30.7409Z" fill="url(#paint24_linear_491_194)"/>
<path d="M2000.87 23.0598C1859.27 16.4498 1722.55 60.3998 1591.65 109.56C1524 134.97 1456.75 161.45 1389.91 188.89C1323.07 216.33 1256.8 246.08 1189.86 273.78C1157.45 287.19 1124.57 299.9 1090.32 307.79C1056.63 315.55 1022.81 323.35 988.86 329.89C918.89 343.38 847.4 349.91 776.22 344.13C705.04 338.35 635.14 323.44 566.43 304.95C497.72 286.46 434.15 265.31 372.32 234.82C310.49 204.33 253.43 166.13 191.29 136.81C130.92 108.33 67.7002 86.1498 3.74016 67.2698C-12.3698 62.5198 -28.5398 57.9898 -44.7498 53.6298C-46.6198 53.1298 -47.4098 56.0198 -45.5498 56.5198C19.9402 74.1598 84.8301 94.5598 147.49 120.65C210.15 146.74 271.81 184.1 333.31 217.78C391.98 249.92 453.7 274.64 517.66 294.11C584.99 314.61 653.96 331.38 723.7 341.22C793.28 351.04 862.86 351.4 932.53 342.13C965.43 337.75 998.07 331.56 1030.42 324.16C1064.55 316.35 1099.14 310.1 1132.37 298.91C1200.34 276.02 1265.38 244.23 1331.41 216.42C1398.11 188.33 1465.24 161.27 1532.76 135.19C1666.13 83.6698 1803.36 31.2098 1947.89 25.7698C1965.55 25.1098 1983.22 25.2198 2000.88 26.0398C2002.81 26.1298 2002.81 23.1298 2000.88 23.0398L2000.87 23.0598Z" fill="url(#paint25_linear_491_194)"/>
<path d="M1997.71 15.3692C1855.22 12.6292 1716.75 52.0192 1583.81 99.7292C1517.49 123.529 1451.9 149.389 1387.17 177.229C1321.19 205.619 1256.77 237.139 1191.85 267.819C1127.72 298.129 1059.92 322.159 990.969 339.019C921.569 355.979 850.2 363.569 778.82 359.509C705.75 355.359 633.34 341.179 563.18 320.609C497.38 301.319 433.21 275.639 374.11 240.679C315.01 205.719 259.01 162.309 197.28 129.869C137.58 98.4992 73.8896 74.8392 8.81956 57.3492C-7.16044 53.0492 -23.2404 49.1592 -39.4004 45.5892C-41.2804 45.1692 -42.0804 48.0692 -40.2004 48.4792C27.1696 63.3692 93.3396 84.3292 156.14 113.029C219.78 142.109 276.35 181.749 334.8 219.699C450.39 294.739 583.67 339.569 720.16 357.049C789.64 365.949 859.5 365.729 928.72 354.679C998.06 343.609 1066.78 322.859 1132.15 297.389C1197.32 271.989 1259.17 238.039 1322.76 209.039C1389.55 178.569 1457.36 150.329 1525.99 124.269C1660.03 73.3892 1798.99 26.7692 1943.27 19.2392C1961.4 18.2892 1979.55 18.0292 1997.7 18.3792C1999.63 18.4192 1999.63 15.4192 1997.7 15.3792L1997.71 15.3692Z" fill="url(#paint26_linear_491_194)"/>
<path d="M1994.56 7.68945C1848.8 9.10945 1705.88 43.8994 1568.93 91.8494C1501.77 115.369 1435.76 142.209 1371.27 172.299C1305.61 202.929 1242.63 238.219 1179.01 272.789C1116.92 306.529 1051.64 335.479 983.18 353.519C914.3 371.679 843.09 378.959 771.96 375.439C630.6 368.429 488.38 323.839 372.14 242.379C314.28 201.829 260.95 155.049 199.23 120.159C141.65 87.5995 79.3197 63.4895 15.0897 47.7995C-1.1703 43.8295 -17.5603 40.4495 -34.0403 37.5395C-35.9303 37.2095 -36.7403 40.0995 -34.8403 40.4295C32.9997 52.3895 99.2597 73.2995 161.2 103.539C224.56 134.469 279.36 177.089 335.43 219.269C389.97 260.309 447.37 295.279 510.81 320.849C575.13 346.779 643.04 364.269 711.82 373.079C781.85 382.059 852.9 381.529 922.57 369.709C992.24 357.889 1054.96 335.819 1117.38 307.059C1183.04 276.799 1244.7 238.679 1309.11 205.929C1374.54 172.659 1441.73 142.859 1510.26 116.569C1647.84 63.7895 1792.02 22.2695 1939.67 12.7095C1957.95 11.5295 1976.25 10.8795 1994.57 10.6995C1996.5 10.6795 1996.5 7.67945 1994.57 7.69945L1994.56 7.68945Z" fill="url(#paint27_linear_491_194)"/>
<path d="M1991.4 -0.000146911C1843.16 5.94985 1696.05 33.9899 1555.95 82.8199C1486.44 107.05 1418.69 136.35 1353.45 170.46C1285.1 206.2 1222.19 249.64 1156.9 290.4C1041.7 362.33 908.94 397.7 773.12 392.66C641.88 387.79 511.45 345.91 404.89 268.52C342.41 223.14 288.58 166.83 224.06 124.11C163.53 84.0199 95.6103 55.0699 24.8003 39.0399C7.1203 35.0399 -10.7297 31.8899 -28.6897 29.4699C-30.5797 29.2199 -31.3897 32.1099 -29.4897 32.3599C44.6303 42.3399 116.61 65.9299 182.07 102.16C251.24 140.43 307.69 194.74 368.6 244.24C470.07 326.7 592.04 377.57 722.08 391.91C852.12 406.25 982.41 384.95 1097.89 327.3C1166.19 293.2 1227.01 246.02 1292.77 207.5C1358.11 169.23 1426.39 135.97 1496.77 108.05C1637.11 52.3799 1785.81 17.6999 1936.37 6.16985C1954.69 4.76985 1973.03 3.72985 1991.39 2.98985C1993.31 2.90985 1993.32 -0.0901469 1991.39 -0.0101469L1991.4 -0.000146911Z" fill="url(#paint28_linear_491_194)"/>
</g>
<defs>
<linearGradient id="paint0_linear_491_194" x1="-95.2696" y1="454.721" x2="2015.68" y2="454.721" gradientUnits="userSpaceOnUse">
<stop stop-color="#3476B6"/>
<stop offset="1" stop-color="#BFE2F2"/>
</linearGradient>
<linearGradient id="paint1_linear_491_194" x1="-91.31" y1="440.191" x2="2012.42" y2="440.191" gradientUnits="userSpaceOnUse">
<stop stop-color="#3476B6"/>
<stop offset="1" stop-color="#BFE2F2"/>
</linearGradient>
<linearGradient id="paint2_linear_491_194" x1="-87.3603" y1="426.89" x2="2009.16" y2="426.89" gradientUnits="userSpaceOnUse">
<stop stop-color="#3476B6"/>
<stop offset="1" stop-color="#BFE2F2"/>
</linearGradient>
<linearGradient id="paint3_linear_491_194" x1="-83.6103" y1="413.839" x2="2005.7" y2="413.839" gradientUnits="userSpaceOnUse">
<stop stop-color="#3476B6"/>
<stop offset="1" stop-color="#BFE2F2"/>
</linearGradient>
<linearGradient id="paint4_linear_491_194" x1="-79.6603" y1="400.69" x2="2002.44" y2="400.69" gradientUnits="userSpaceOnUse">
<stop stop-color="#3476B6"/>
<stop offset="1" stop-color="#BFE2F2"/>
</linearGradient>
<linearGradient id="paint5_linear_491_194" x1="-75.7101" y1="388.44" x2="1999.19" y2="388.44" gradientUnits="userSpaceOnUse">
<stop stop-color="#3476B6"/>
<stop offset="1" stop-color="#BFE2F2"/>
</linearGradient>
<linearGradient id="paint6_linear_491_194" x1="-71.7501" y1="376.419" x2="1995.94" y2="376.419" gradientUnits="userSpaceOnUse">
<stop stop-color="#3476B6"/>
<stop offset="1" stop-color="#BFE2F2"/>
</linearGradient>
<linearGradient id="paint7_linear_491_194" x1="-73.37" y1="365.101" x2="1998.58" y2="365.101" gradientUnits="userSpaceOnUse">
<stop stop-color="#3476B6"/>
<stop offset="1" stop-color="#BFE2F2"/>
</linearGradient>
<linearGradient id="paint8_linear_491_194" x1="-74.9901" y1="353.751" x2="2001.22" y2="353.751" gradientUnits="userSpaceOnUse">
<stop stop-color="#3476B6"/>
<stop offset="1" stop-color="#BFE2F2"/>
</linearGradient>
<linearGradient id="paint9_linear_491_194" x1="-76.5999" y1="342.469" x2="2003.87" y2="342.469" gradientUnits="userSpaceOnUse">
<stop stop-color="#3476B6"/>
<stop offset="1" stop-color="#BFE2F2"/>
</linearGradient>
<linearGradient id="paint10_linear_491_194" x1="-78.2199" y1="331.261" x2="2006.51" y2="331.261" gradientUnits="userSpaceOnUse">
<stop stop-color="#3476B6"/>
<stop offset="1" stop-color="#BFE2F2"/>
</linearGradient>
<linearGradient id="paint11_linear_491_194" x1="-79.8305" y1="320.169" x2="2009.16" y2="320.169" gradientUnits="userSpaceOnUse">
<stop stop-color="#3476B6"/>
<stop offset="1" stop-color="#BFE2F2"/>
</linearGradient>
<linearGradient id="paint12_linear_491_194" x1="-81.4503" y1="309.13" x2="2011.81" y2="309.13" gradientUnits="userSpaceOnUse">
<stop stop-color="#3476B6"/>
<stop offset="1" stop-color="#BFE2F2"/>
</linearGradient>
<linearGradient id="paint13_linear_491_194" x1="-83.0704" y1="298.21" x2="2014.45" y2="298.21" gradientUnits="userSpaceOnUse">
<stop stop-color="#3476B6"/>
<stop offset="1" stop-color="#BFE2F2"/>
</linearGradient>
<linearGradient id="paint14_linear_491_194" x1="-84.6803" y1="287.39" x2="2017.1" y2="287.39" gradientUnits="userSpaceOnUse">
<stop stop-color="#3476B6"/>
<stop offset="1" stop-color="#BFE2F2"/>
</linearGradient>
<linearGradient id="paint15_linear_491_194" x1="-86.2996" y1="270.65" x2="2019.74" y2="270.65" gradientUnits="userSpaceOnUse">
<stop stop-color="#3476B6"/>
<stop offset="1" stop-color="#BFE2F2"/>
</linearGradient>
<linearGradient id="paint16_linear_491_194" x1="-87.9204" y1="252.541" x2="2022.39" y2="252.541" gradientUnits="userSpaceOnUse">
<stop stop-color="#3476B6"/>
<stop offset="1" stop-color="#BFE2F2"/>
</linearGradient>
<linearGradient id="paint17_linear_491_194" x1="-89.5303" y1="234.47" x2="2025.04" y2="234.47" gradientUnits="userSpaceOnUse">
<stop stop-color="#3476B6"/>
<stop offset="1" stop-color="#BFE2F2"/>
</linearGradient>
<linearGradient id="paint18_linear_491_194" x1="-84.0203" y1="224.42" x2="2022.01" y2="224.42" gradientUnits="userSpaceOnUse">
<stop stop-color="#3476B6"/>
<stop offset="1" stop-color="#BFE2F2"/>
</linearGradient>
<linearGradient id="paint19_linear_491_194" x1="-78.7103" y1="214.44" x2="2018.76" y2="214.44" gradientUnits="userSpaceOnUse">
<stop stop-color="#3476B6"/>
<stop offset="1" stop-color="#BFE2F2"/>
</linearGradient>
<linearGradient id="paint20_linear_491_194" x1="-73.4002" y1="205.189" x2="2015.53" y2="205.189" gradientUnits="userSpaceOnUse">
<stop stop-color="#3476B6"/>
<stop offset="1" stop-color="#BFE2F2"/>
</linearGradient>
<linearGradient id="paint21_linear_491_194" x1="-68.0804" y1="196.279" x2="2012.3" y2="196.279" gradientUnits="userSpaceOnUse">
<stop stop-color="#3476B6"/>
<stop offset="1" stop-color="#BFE2F2"/>
</linearGradient>
<linearGradient id="paint22_linear_491_194" x1="-62.7505" y1="188.01" x2="2009.08" y2="188.01" gradientUnits="userSpaceOnUse">
<stop stop-color="#3476B6"/>
<stop offset="1" stop-color="#BFE2F2"/>
</linearGradient>
<linearGradient id="paint23_linear_491_194" x1="-57.2696" y1="181.72" x2="2006.01" y2="181.72" gradientUnits="userSpaceOnUse">
<stop stop-color="#3476B6"/>
<stop offset="1" stop-color="#BFE2F2"/>
</linearGradient>
<linearGradient id="paint24_linear_491_194" x1="-51.9395" y1="182.871" x2="2002.78" y2="182.871" gradientUnits="userSpaceOnUse">
<stop stop-color="#3476B6"/>
<stop offset="1" stop-color="#BFE2F2"/>
</linearGradient>
<linearGradient id="paint25_linear_491_194" x1="-46.6098" y1="185.63" x2="1999.57" y2="185.63" gradientUnits="userSpaceOnUse">
<stop stop-color="#3476B6"/>
<stop offset="1" stop-color="#BFE2F2"/>
</linearGradient>
<linearGradient id="paint26_linear_491_194" x1="-41.2704" y1="189.309" x2="1996.36" y2="189.309" gradientUnits="userSpaceOnUse">
<stop stop-color="#3476B6"/>
<stop offset="1" stop-color="#BFE2F2"/>
</linearGradient>
<linearGradient id="paint27_linear_491_194" x1="-35.9303" y1="193.469" x2="1993.16" y2="193.469" gradientUnits="userSpaceOnUse">
<stop stop-color="#3476B6"/>
<stop offset="1" stop-color="#BFE2F2"/>
</linearGradient>
<linearGradient id="paint28_linear_491_194" x1="-30.5797" y1="198.07" x2="1990" y2="198.07" gradientUnits="userSpaceOnUse">
<stop stop-color="#3476B6"/>
<stop offset="1" stop-color="#BFE2F2"/>
</linearGradient>
<clipPath id="clip0_491_194">
<rect width="2149.66" height="714.83" fill="white" transform="translate(-115)"/>
</clipPath>
</defs>
</svg>
