<svg width="237" height="30" viewBox="0 0 237 30" fill="none" xmlns="http://www.w3.org/2000/svg">
<path d="M16.12 0.999998C22.44 0.999998 26.12 3.92 26.12 8.92C26.12 16.12 21.12 20.16 13.12 20.16H5.2L3.4 29H0.48L6.08 0.999998H16.12ZM13.16 17.56C19.52 17.56 23.16 14.72 23.16 9.2C23.16 5.52 20.56 3.56 15.88 3.56H8.52L5.68 17.56H13.16ZM54.4803 8.92C54.4803 14.68 51.2803 18.4 45.8803 19.64L51.1603 29H47.9603L42.9203 20.08C42.4803 20.12 41.9603 20.12 41.4803 20.12H33.5203L31.7603 29H28.8003L34.4003 0.999998H44.4803C50.8403 0.999998 54.4803 3.92 54.4803 8.92ZM41.5603 17.56C47.8803 17.56 51.5203 14.72 51.5203 9.2C51.5203 5.52 48.9203 3.56 44.2803 3.56H36.8403L34.0003 17.56H41.5603ZM70.7466 29.24C62.4666 29.24 57.7866 24.52 57.7866 17.6C57.7866 8.4 64.3466 0.759999 74.6666 0.759999C82.9466 0.759999 87.6666 5.48 87.6666 12.4C87.6666 21.6 81.0666 29.24 70.7466 29.24ZM71.0266 26.6C79.3466 26.6 84.7066 20.16 84.7066 12.52C84.7066 7.08 81.1466 3.4 74.3866 3.4C66.0666 3.4 60.7066 9.84 60.7066 17.44C60.7066 22.92 64.2666 26.6 71.0266 26.6ZM112.141 0.999998H119.981L107.981 29H100.181L88.2212 0.999998H96.7813L104.381 19.24L112.141 0.999998ZM135.35 29.56C126.39 29.56 119.79 23.4 119.79 15C119.79 6.6 126.39 0.439998 135.35 0.439998C144.31 0.439998 150.91 6.6 150.91 15C150.91 23.4 144.31 29.56 135.35 29.56ZM135.35 23C139.59 23 142.91 19.84 142.91 15C142.91 10.16 139.59 7 135.35 7C131.11 7 127.79 10.16 127.79 15C127.79 19.84 131.11 23 135.35 23ZM169.018 29.56C160.138 29.56 153.618 23.52 153.618 15C153.618 6.48 160.138 0.439998 169.018 0.439998C174.178 0.439998 178.338 2.32 181.058 5.72L176.018 10.28C174.258 8.16 172.098 7 169.418 7C164.818 7 161.618 10.2 161.618 15C161.618 19.8 164.818 23 169.418 23C172.098 23 174.258 21.84 176.018 19.72L181.058 24.28C178.338 27.68 174.178 29.56 169.018 29.56ZM205.08 29L202.88 23.56H191.04L188.84 29H180.76L193.12 0.999998H200.92L213.32 29H205.08ZM193.36 17.72H200.56L196.96 8.76L193.36 17.72ZM215.566 29V0.999998H223.486V22.72H236.846V29H215.566Z" fill="currentColor"/>
</svg>
