<svg width="212" height="24" viewBox="0 0 212 24" fill="none" xmlns="http://www.w3.org/2000/svg">
<path d="M0.292892 11.2929C-0.0976295 11.6834 -0.0976295 12.3166 0.292892 12.7071L6.65685 19.0711C7.04738 19.4616 7.68054 19.4616 8.07107 19.0711C8.46159 18.6805 8.46159 18.0474 8.07107 17.6569L2.41422 12L8.07107 6.34315C8.46159 5.95262 8.46159 5.31946 8.07107 4.92893C7.68054 4.53841 7.04738 4.53841 6.65685 4.92893L0.292892 11.2929ZM56 11L1 11V13L56 13V11Z" fill="white"/>
<path d="M74.18 5H86.24V19H84.28V6.74H76.16V19H74.18V5ZM94.8258 19.12C91.6458 19.12 89.3058 16.86 89.3058 13.7C89.3058 10.54 91.6458 8.3 94.8258 8.3C98.0058 8.3 100.326 10.54 100.326 13.7C100.326 16.86 98.0058 19.12 94.8258 19.12ZM94.8258 17.44C96.8658 17.44 98.3858 15.96 98.3858 13.7C98.3858 11.44 96.8658 9.98 94.8258 9.98C92.7858 9.98 91.2458 11.44 91.2458 13.7C91.2458 15.96 92.7858 17.44 94.8258 17.44ZM110.318 13.5C111.718 13.86 112.378 14.74 112.378 16.08C112.378 17.92 111.018 19 108.198 19H103.098V8.4H108.018C110.518 8.4 112.018 9.38 112.018 11.12C112.018 12.26 111.378 13.08 110.318 13.5ZM104.978 9.88V12.96H107.858C109.318 12.96 110.098 12.42 110.098 11.4C110.098 10.38 109.318 9.88 107.858 9.88H104.978ZM108.058 17.52C109.638 17.52 110.458 17.04 110.458 15.96C110.458 14.86 109.758 14.34 108.178 14.34H104.978V17.52H108.058ZM124.963 13.76C124.963 13.92 124.943 14.16 124.923 14.34H116.323C116.563 16.2 118.063 17.44 120.163 17.44C121.403 17.44 122.443 17.02 123.223 16.16L124.283 17.4C123.323 18.52 121.863 19.12 120.103 19.12C116.683 19.12 114.403 16.86 114.403 13.7C114.403 10.56 116.663 8.3 119.723 8.3C122.783 8.3 124.963 10.5 124.963 13.76ZM119.723 9.92C117.883 9.92 116.523 11.16 116.323 12.96H123.123C122.923 11.18 121.583 9.92 119.723 9.92ZM133.562 8.3C136.662 8.3 138.922 10.46 138.922 13.7C138.922 16.96 136.662 19.12 133.562 19.12C132.062 19.12 130.742 18.54 129.862 17.4V22.88H127.942V8.4H129.782V10.08C130.642 8.9 132.002 8.3 133.562 8.3ZM133.402 17.44C135.442 17.44 136.982 15.96 136.982 13.7C136.982 11.46 135.442 9.98 133.402 9.98C131.382 9.98 129.842 11.46 129.842 13.7C129.842 15.96 131.382 17.44 133.402 17.44ZM141.712 19V8.4H143.632V12.9H149.672V8.4H151.592V19H149.672V14.56H143.632V19H141.712ZM162.905 8.4H164.785L159.645 20.06C158.705 22.3 157.485 23 155.865 23C154.845 23 153.805 22.66 153.145 22.02L153.965 20.58C154.485 21.08 155.145 21.36 155.865 21.36C156.785 21.36 157.365 20.94 157.885 19.72L158.225 18.98L153.545 8.4H155.545L159.245 16.88L162.905 8.4ZM174.709 8.4V10.08H170.829V19H168.909V10.08H165.029V8.4H174.709ZM176.673 19V8.4H178.593V16.12L185.092 8.4H186.833V19H184.912V11.28L178.433 19H176.673ZM195.179 19.12C191.919 19.12 189.579 16.86 189.579 13.7C189.579 10.54 191.919 8.3 195.179 8.3C197.079 8.3 198.659 9.08 199.499 10.56L198.039 11.5C197.359 10.46 196.319 9.98 195.159 9.98C193.079 9.98 191.519 11.44 191.519 13.7C191.519 16 193.079 17.44 195.159 17.44C196.319 17.44 197.359 16.96 198.039 15.92L199.499 16.84C198.659 18.32 197.079 19.12 195.179 19.12ZM206.885 12C209.585 12.02 211.025 13.28 211.025 15.46C211.025 17.76 209.425 19.04 206.585 19.02L201.985 19V8.4H203.905V11.98L206.885 12ZM206.425 17.56C208.165 17.58 209.065 16.86 209.065 15.44C209.065 14.04 208.185 13.44 206.425 13.42L203.905 13.38V17.54L206.425 17.56Z" fill="white"/>
</svg>
